<ttFont>
    <TTGlyph name="A" xMin="4" yMin="-6" xMax="437" yMax="705">
      <contour>
        <pt x="157" y="700" on="1"/>
        <pt x="171" y="702" on="0"/>
        <pt x="181" y="700" on="0"/>
        <pt x="223" y="700" on="0"/>
        <pt x="280" y="705" on="1"/>
        <pt x="362" y="351" on="1"/>
        <pt x="437" y="1" on="1"/>
        <pt x="437" y="0" on="1"/>
        <pt x="412" y="-5" on="0"/>
        <pt x="346" y="-5" on="0"/>
        <pt x="303" y="4" on="1"/>
        <pt x="302" y="4" on="1"/>
        <pt x="295" y="23" on="0"/>
        <pt x="265" y="146" on="0"/>
        <pt x="255" y="167" on="1"/>
        <pt x="251" y="170" on="0"/>
        <pt x="236" y="170" on="1"/>
        <pt x="193" y="168" on="1"/>
        <pt x="185" y="149" on="0"/>
        <pt x="161" y="25" on="0"/>
        <pt x="149" y="1" on="1"/>
        <pt x="140" y="-1" on="0"/>
        <pt x="131" y="-1" on="1"/>
        <pt x="6" y="1" on="1"/>
        <pt x="5" y="1" on="0"/>
        <pt x="4" y="2" on="1"/>
        <pt x="5" y="5" on="0"/>
        <pt x="43" y="225" on="0"/>
        <pt x="115" y="558" on="0"/>
      </contour>
      <contour>
        <pt x="186" y="286" on="1"/>
        <pt x="223" y="286" on="0"/>
        <pt x="260" y="286" on="1"/>
        <pt x="236" y="495" on="0"/>
        <pt x="222" y="495" on="1"/>
        <pt x="218" y="495" on="0"/>
        <pt x="210" y="465" on="0"/>
      </contour>
    </TTGlyph>
    <TTGlyph name="AE" xMin="2" yMin="-1" xMax="700" yMax="701">
      <contour>
        <pt x="557" y="366" on="1"/>
        <pt x="554" y="280" on="1"/>
        <pt x="538" y="277" on="0"/>
        <pt x="480" y="276" on="0"/>
        <pt x="438" y="275" on="0"/>
        <pt x="433" y="270" on="1"/>
        <pt x="431" y="235" on="0"/>
        <pt x="431" y="161" on="0"/>
        <pt x="439" y="143" on="1"/>
        <pt x="440" y="143" on="1"/>
        <pt x="475" y="141" on="0"/>
        <pt x="654" y="141" on="0"/>
        <pt x="698" y="137" on="1"/>
        <pt x="698" y="134" on="1"/>
        <pt x="699" y="115" on="0"/>
        <pt x="699" y="50" on="0"/>
        <pt x="692" y="6" on="1"/>
        <pt x="690" y="4" on="1"/>
        <pt x="406" y="1" on="1"/>
        <pt x="338" y="1" on="0"/>
        <pt x="280" y="5" on="1"/>
        <pt x="276" y="21" on="0"/>
        <pt x="256" y="94" on="0"/>
        <pt x="252" y="115" on="1"/>
        <pt x="252" y="116" on="1"/>
        <pt x="183" y="118" on="1"/>
        <pt x="181" y="118" on="1"/>
        <pt x="181" y="117" on="0"/>
        <pt x="153" y="24" on="0"/>
        <pt x="148" y="3" on="1"/>
        <pt x="145" y="1" on="1"/>
        <pt x="68" y="3" on="1"/>
        <pt x="11" y="3" on="0"/>
        <pt x="3" y="-1" on="0"/>
        <pt x="2" y="-1" on="1"/>
        <pt x="24" y="115" on="0"/>
        <pt x="27" y="151" on="0"/>
        <pt x="37" y="203" on="0"/>
        <pt x="41" y="219" on="0"/>
        <pt x="62" y="310" on="0"/>
        <pt x="81" y="388" on="0"/>
        <pt x="128" y="588" on="0"/>
        <pt x="153" y="693" on="1"/>
        <pt x="334" y="701" on="0"/>
        <pt x="695" y="701" on="1"/>
        <pt x="695" y="699" on="1"/>
        <pt x="697" y="678" on="0"/>
        <pt x="697" y="654" on="1"/>
        <pt x="695" y="557" on="1"/>
        <pt x="695" y="555" on="1"/>
        <pt x="655" y="546" on="0"/>
        <pt x="584" y="546" on="1"/>
        <pt x="529" y="547" on="1"/>
        <pt x="466" y="547" on="0"/>
        <pt x="428" y="542" on="1"/>
        <pt x="428" y="540" on="0"/>
        <pt x="428" y="535" on="1"/>
        <pt x="425" y="459" on="1"/>
        <pt x="425" y="431" on="0"/>
        <pt x="431" y="425" on="1"/>
        <pt x="449" y="422" on="0"/>
        <pt x="532" y="422" on="0"/>
        <pt x="552" y="419" on="1"/>
        <pt x="557" y="397" on="0"/>
      </contour>
      <contour>
        <pt x="186" y="284" on="1"/>
        <pt x="188" y="284" on="1"/>
        <pt x="192" y="286" on="0"/>
        <pt x="201" y="286" on="1"/>
        <pt x="238" y="283" on="1"/>
        <pt x="251" y="283" on="0"/>
        <pt x="254" y="287" on="1"/>
        <pt x="250" y="312" on="0"/>
        <pt x="236" y="360" on="1"/>
        <pt x="218" y="421" on="1"/>
        <pt x="200" y="371" on="0"/>
        <pt x="190" y="328" on="0"/>
      </contour>
    </TTGlyph>
    <TTGlyph name="Aacute" xMin="4" yMin="-6" xMax="437" yMax="917">
      <contour>
        <pt x="266" y="750" on="1"/>
        <pt x="244" y="748" on="0"/>
        <pt x="224" y="748" on="1"/>
        <pt x="155" y="748" on="0"/>
        <pt x="132" y="754" on="1"/>
        <pt x="145" y="766" on="0"/>
        <pt x="272" y="896" on="0"/>
        <pt x="299" y="917" on="1"/>
        <pt x="368" y="847" on="1"/>
        <pt x="361" y="840" on="0"/>
        <pt x="336" y="819" on="1"/>
        <pt x="272" y="764" on="0"/>
      </contour>
      <contour>
        <pt x="157" y="700" on="1"/>
        <pt x="171" y="702" on="0"/>
        <pt x="181" y="700" on="0"/>
        <pt x="223" y="700" on="0"/>
        <pt x="280" y="705" on="1"/>
        <pt x="296" y="655" on="0"/>
        <pt x="362" y="351" on="1"/>
        <pt x="437" y="1" on="1"/>
        <pt x="437" y="0" on="1"/>
        <pt x="412" y="-5" on="0"/>
        <pt x="346" y="-5" on="0"/>
        <pt x="303" y="4" on="1"/>
        <pt x="302" y="4" on="1"/>
        <pt x="295" y="23" on="0"/>
        <pt x="265" y="146" on="0"/>
        <pt x="255" y="167" on="1"/>
        <pt x="251" y="170" on="0"/>
        <pt x="236" y="170" on="1"/>
        <pt x="193" y="168" on="1"/>
        <pt x="185" y="149" on="0"/>
        <pt x="161" y="25" on="0"/>
        <pt x="149" y="1" on="1"/>
        <pt x="140" y="-1" on="0"/>
        <pt x="131" y="-1" on="1"/>
        <pt x="6" y="1" on="1"/>
        <pt x="5" y="1" on="0"/>
        <pt x="4" y="2" on="1"/>
        <pt x="59" y="375" on="0"/>
      </contour>
      <contour>
        <pt x="186" y="286" on="1"/>
        <pt x="223" y="286" on="0"/>
        <pt x="260" y="286" on="1"/>
        <pt x="236" y="495" on="0"/>
        <pt x="222" y="495" on="1"/>
        <pt x="218" y="495" on="0"/>
        <pt x="210" y="465" on="0"/>
      </contour>
    </TTGlyph>
    <TTGlyph name="Acircumflex" xMin="4" yMin="-6" xMax="437" yMax="918">
      <contour>
        <pt x="384" y="756" on="1"/>
        <pt x="306" y="749" on="1"/>
        <pt x="289" y="749" on="0"/>
        <pt x="269" y="751" on="1"/>
        <pt x="263" y="751" on="0"/>
        <pt x="223" y="797" on="0"/>
        <pt x="218" y="800" on="1"/>
        <pt x="213" y="798" on="0"/>
        <pt x="171" y="753" on="0"/>
        <pt x="164" y="751" on="0"/>
        <pt x="139" y="751" on="0"/>
        <pt x="59" y="755" on="1"/>
        <pt x="91" y="797" on="0"/>
        <pt x="148" y="852" on="0"/>
        <pt x="209" y="907" on="0"/>
        <pt x="221" y="918" on="1"/>
      </contour>
      <contour>
        <pt x="157" y="700" on="1"/>
        <pt x="171" y="702" on="0"/>
        <pt x="181" y="700" on="0"/>
        <pt x="223" y="700" on="0"/>
        <pt x="280" y="705" on="1"/>
        <pt x="362" y="351" on="1"/>
        <pt x="437" y="1" on="1"/>
        <pt x="437" y="0" on="1"/>
        <pt x="412" y="-5" on="0"/>
        <pt x="346" y="-5" on="0"/>
        <pt x="303" y="4" on="1"/>
        <pt x="302" y="4" on="1"/>
        <pt x="295" y="23" on="0"/>
        <pt x="265" y="146" on="0"/>
        <pt x="255" y="167" on="1"/>
        <pt x="251" y="170" on="0"/>
        <pt x="236" y="170" on="1"/>
        <pt x="193" y="168" on="1"/>
        <pt x="185" y="149" on="0"/>
        <pt x="161" y="25" on="0"/>
        <pt x="149" y="1" on="1"/>
        <pt x="140" y="-1" on="0"/>
        <pt x="131" y="-1" on="1"/>
        <pt x="6" y="1" on="1"/>
        <pt x="5" y="1" on="0"/>
        <pt x="4" y="2" on="1"/>
        <pt x="5" y="5" on="0"/>
        <pt x="43" y="225" on="0"/>
        <pt x="115" y="558" on="0"/>
      </contour>
      <contour>
        <pt x="186" y="286" on="1"/>
        <pt x="223" y="286" on="0"/>
        <pt x="260" y="286" on="1"/>
        <pt x="236" y="495" on="0"/>
        <pt x="222" y="495" on="1"/>
        <pt x="218" y="495" on="0"/>
        <pt x="210" y="465" on="0"/>
      </contour>
    </TTGlyph>
    <TTGlyph name="Adieresis" xMin="4" yMin="-6" xMax="437" yMax="867">
      <contour>
        <pt x="69" y="759" on="1"/>
        <pt x="66" y="775" on="0"/>
        <pt x="66" y="805" on="1"/>
        <pt x="68" y="860" on="1"/>
        <pt x="89" y="867" on="0"/>
        <pt x="164" y="867" on="0"/>
        <pt x="177" y="861" on="1"/>
        <pt x="176" y="839" on="1"/>
        <pt x="171" y="773" on="0"/>
        <pt x="171" y="760" on="1"/>
        <pt x="171" y="758" on="1"/>
        <pt x="169" y="758" on="1"/>
        <pt x="72" y="759" on="1"/>
      </contour>
      <contour>
        <pt x="243" y="759" on="1"/>
        <pt x="240" y="775" on="0"/>
        <pt x="240" y="805" on="1"/>
        <pt x="242" y="860" on="1"/>
        <pt x="263" y="867" on="0"/>
        <pt x="338" y="867" on="0"/>
        <pt x="351" y="861" on="1"/>
        <pt x="350" y="839" on="1"/>
        <pt x="345" y="773" on="0"/>
        <pt x="345" y="760" on="1"/>
        <pt x="345" y="758" on="1"/>
        <pt x="343" y="758" on="1"/>
        <pt x="246" y="759" on="1"/>
      </contour>
      <contour>
        <pt x="157" y="700" on="1"/>
        <pt x="171" y="702" on="0"/>
        <pt x="181" y="700" on="0"/>
        <pt x="223" y="700" on="0"/>
        <pt x="280" y="705" on="1"/>
        <pt x="362" y="351" on="1"/>
        <pt x="437" y="1" on="1"/>
        <pt x="437" y="0" on="1"/>
        <pt x="412" y="-5" on="0"/>
        <pt x="346" y="-5" on="0"/>
        <pt x="303" y="4" on="1"/>
        <pt x="302" y="4" on="1"/>
        <pt x="295" y="23" on="0"/>
        <pt x="265" y="146" on="0"/>
        <pt x="255" y="167" on="1"/>
        <pt x="251" y="170" on="0"/>
        <pt x="236" y="170" on="1"/>
        <pt x="193" y="168" on="1"/>
        <pt x="185" y="149" on="0"/>
        <pt x="161" y="25" on="0"/>
        <pt x="149" y="1" on="1"/>
        <pt x="140" y="-1" on="0"/>
        <pt x="131" y="-1" on="1"/>
        <pt x="6" y="1" on="1"/>
        <pt x="5" y="1" on="0"/>
        <pt x="4" y="2" on="1"/>
        <pt x="5" y="5" on="0"/>
        <pt x="43" y="225" on="0"/>
        <pt x="115" y="558" on="0"/>
      </contour>
      <contour>
        <pt x="186" y="286" on="1"/>
        <pt x="223" y="286" on="0"/>
        <pt x="260" y="286" on="1"/>
        <pt x="236" y="495" on="0"/>
        <pt x="222" y="495" on="1"/>
        <pt x="218" y="495" on="0"/>
        <pt x="210" y="465" on="0"/>
      </contour>
    </TTGlyph>
    <TTGlyph name="Agrave" xMin="4" yMin="-6" xMax="437" yMax="917">
      <contour>
        <pt x="290" y="754" on="1"/>
        <pt x="266" y="748" on="0"/>
        <pt x="178" y="748" on="0"/>
        <pt x="156" y="750" on="1"/>
        <pt x="148" y="762" on="0"/>
        <pt x="61" y="840" on="0"/>
        <pt x="54" y="847" on="1"/>
        <pt x="123" y="917" on="1"/>
        <pt x="150" y="896" on="0"/>
        <pt x="277" y="766" on="0"/>
      </contour>
      <contour>
        <pt x="157" y="700" on="1"/>
        <pt x="171" y="702" on="0"/>
        <pt x="181" y="700" on="0"/>
        <pt x="223" y="700" on="0"/>
        <pt x="280" y="705" on="1"/>
        <pt x="296" y="655" on="0"/>
        <pt x="362" y="351" on="1"/>
        <pt x="437" y="1" on="1"/>
        <pt x="437" y="0" on="1"/>
        <pt x="412" y="-5" on="0"/>
        <pt x="346" y="-5" on="0"/>
        <pt x="303" y="4" on="1"/>
        <pt x="302" y="4" on="1"/>
        <pt x="295" y="23" on="0"/>
        <pt x="265" y="146" on="0"/>
        <pt x="255" y="167" on="1"/>
        <pt x="251" y="170" on="0"/>
        <pt x="236" y="170" on="1"/>
        <pt x="193" y="168" on="1"/>
        <pt x="185" y="149" on="0"/>
        <pt x="161" y="25" on="0"/>
        <pt x="149" y="1" on="1"/>
        <pt x="140" y="-1" on="0"/>
        <pt x="131" y="-1" on="1"/>
        <pt x="6" y="1" on="1"/>
        <pt x="5" y="1" on="0"/>
        <pt x="4" y="2" on="1"/>
        <pt x="59" y="375" on="0"/>
      </contour>
      <contour>
        <pt x="186" y="286" on="1"/>
        <pt x="223" y="286" on="0"/>
        <pt x="260" y="286" on="1"/>
        <pt x="236" y="495" on="0"/>
        <pt x="222" y="495" on="1"/>
        <pt x="218" y="495" on="0"/>
        <pt x="210" y="465" on="0"/>
      </contour>
    </TTGlyph>
    <TTGlyph name="Aring" xMin="4" yMin="-6" xMax="437" yMax="936">
      <contour>
        <pt x="232" y="753" on="1"/>
        <pt x="221" y="751" on="0"/>
        <pt x="191" y="751" on="0"/>
        <pt x="176" y="752" on="1"/>
        <pt x="142" y="754" on="0"/>
        <pt x="131" y="781" on="1"/>
        <pt x="124" y="816" on="0"/>
        <pt x="124" y="844" on="1"/>
        <pt x="124" y="893" on="0"/>
        <pt x="141" y="915" on="1"/>
        <pt x="164" y="936" on="0"/>
        <pt x="203" y="936" on="1"/>
        <pt x="211" y="936" on="0"/>
        <pt x="219" y="935" on="1"/>
        <pt x="279" y="933" on="0"/>
        <pt x="298" y="906" on="1"/>
        <pt x="306" y="878" on="0"/>
        <pt x="306" y="813" on="0"/>
        <pt x="292" y="777" on="1"/>
        <pt x="278" y="755" on="0"/>
      </contour>
      <contour>
        <pt x="169" y="848" on="1"/>
        <pt x="169" y="814" on="0"/>
        <pt x="179" y="804" on="1"/>
        <pt x="190" y="795" on="0"/>
        <pt x="204" y="795" on="1"/>
        <pt x="214" y="795" on="1"/>
        <pt x="251" y="797" on="0"/>
        <pt x="257" y="810" on="1"/>
        <pt x="262" y="833" on="0"/>
        <pt x="262" y="843" on="1"/>
        <pt x="262" y="866" on="0"/>
        <pt x="255" y="877" on="1"/>
        <pt x="241" y="891" on="0"/>
        <pt x="200" y="891" on="0"/>
        <pt x="186" y="885" on="1"/>
        <pt x="174" y="877" on="0"/>
        <pt x="169" y="851" on="0"/>
      </contour>
      <contour>
        <pt x="157" y="700" on="1"/>
        <pt x="171" y="702" on="0"/>
        <pt x="181" y="700" on="0"/>
        <pt x="223" y="700" on="0"/>
        <pt x="280" y="705" on="1"/>
        <pt x="362" y="351" on="1"/>
        <pt x="437" y="1" on="1"/>
        <pt x="437" y="0" on="1"/>
        <pt x="412" y="-5" on="0"/>
        <pt x="346" y="-5" on="0"/>
        <pt x="303" y="4" on="1"/>
        <pt x="302" y="4" on="1"/>
        <pt x="295" y="23" on="0"/>
        <pt x="265" y="146" on="0"/>
        <pt x="255" y="167" on="1"/>
        <pt x="251" y="170" on="0"/>
        <pt x="236" y="170" on="1"/>
        <pt x="193" y="168" on="1"/>
        <pt x="185" y="149" on="0"/>
        <pt x="161" y="25" on="0"/>
        <pt x="149" y="1" on="1"/>
        <pt x="140" y="-1" on="0"/>
        <pt x="131" y="-1" on="1"/>
        <pt x="6" y="1" on="1"/>
        <pt x="5" y="1" on="0"/>
        <pt x="4" y="2" on="1"/>
        <pt x="5" y="5" on="0"/>
        <pt x="43" y="225" on="0"/>
        <pt x="115" y="558" on="0"/>
      </contour>
      <contour>
        <pt x="186" y="286" on="1"/>
        <pt x="223" y="286" on="0"/>
        <pt x="260" y="286" on="1"/>
        <pt x="236" y="495" on="0"/>
        <pt x="222" y="495" on="1"/>
        <pt x="218" y="495" on="0"/>
        <pt x="210" y="465" on="0"/>
      </contour>
    </TTGlyph>
    <TTGlyph name="Atilde" xMin="4" yMin="-6" xMax="437" yMax="922">
      <contour>
        <pt x="188" y="823" on="1"/>
        <pt x="131" y="823" on="0"/>
        <pt x="131" y="776" on="1"/>
        <pt x="131" y="766" on="0"/>
        <pt x="134" y="755" on="1"/>
        <pt x="134" y="754" on="1"/>
        <pt x="117" y="758" on="0"/>
        <pt x="34" y="758" on="0"/>
        <pt x="17" y="757" on="1"/>
        <pt x="42" y="846" on="0"/>
        <pt x="77" y="886" on="1"/>
        <pt x="112" y="921" on="0"/>
        <pt x="158" y="921" on="1"/>
        <pt x="205" y="921" on="0"/>
        <pt x="237" y="880" on="1"/>
        <pt x="251" y="862" on="0"/>
        <pt x="259" y="857" on="1"/>
        <pt x="272" y="846" on="0"/>
        <pt x="295" y="846" on="0"/>
        <pt x="326" y="880" on="0"/>
        <pt x="336" y="910" on="1"/>
        <pt x="337" y="910" on="0"/>
        <pt x="418" y="913" on="1"/>
        <pt x="419" y="912" on="1"/>
        <pt x="419" y="911" on="0"/>
        <pt x="420" y="911" on="1"/>
        <pt x="420" y="910" on="1"/>
        <pt x="421" y="899" on="0"/>
        <pt x="421" y="889" on="1"/>
        <pt x="421" y="849" on="0"/>
        <pt x="400" y="809" on="1"/>
        <pt x="369" y="749" on="0"/>
        <pt x="305" y="749" on="1"/>
        <pt x="283" y="749" on="0"/>
        <pt x="235" y="771" on="0"/>
        <pt x="223" y="800" on="1"/>
        <pt x="210" y="822" on="0"/>
      </contour>
      <contour>
        <pt x="157" y="700" on="1"/>
        <pt x="171" y="702" on="0"/>
        <pt x="181" y="700" on="0"/>
        <pt x="223" y="700" on="0"/>
        <pt x="280" y="705" on="1"/>
        <pt x="296" y="655" on="0"/>
        <pt x="362" y="351" on="1"/>
        <pt x="437" y="1" on="1"/>
        <pt x="437" y="0" on="1"/>
        <pt x="412" y="-5" on="0"/>
        <pt x="346" y="-5" on="0"/>
        <pt x="303" y="4" on="1"/>
        <pt x="302" y="4" on="1"/>
        <pt x="295" y="23" on="0"/>
        <pt x="265" y="146" on="0"/>
        <pt x="255" y="167" on="1"/>
        <pt x="251" y="170" on="0"/>
        <pt x="236" y="170" on="1"/>
        <pt x="193" y="168" on="1"/>
        <pt x="185" y="149" on="0"/>
        <pt x="161" y="25" on="0"/>
        <pt x="149" y="1" on="1"/>
        <pt x="140" y="-1" on="0"/>
        <pt x="131" y="-1" on="1"/>
        <pt x="6" y="1" on="1"/>
        <pt x="5" y="1" on="0"/>
        <pt x="4" y="2" on="1"/>
        <pt x="5" y="5" on="0"/>
        <pt x="43" y="225" on="0"/>
        <pt x="115" y="558" on="0"/>
      </contour>
      <contour>
        <pt x="186" y="286" on="1"/>
        <pt x="223" y="286" on="0"/>
        <pt x="260" y="286" on="1"/>
        <pt x="236" y="495" on="0"/>
        <pt x="222" y="495" on="1"/>
        <pt x="218" y="495" on="0"/>
        <pt x="210" y="465" on="0"/>
      </contour>
    </TTGlyph>
    <TTGlyph name="B" xMin="40" yMin="-5" xMax="466" yMax="715">
      <contour>
        <pt x="40" y="218" on="1"/>
        <pt x="42" y="558" on="1"/>
        <pt x="42" y="644" on="0"/>
        <pt x="41" y="692" on="1"/>
        <pt x="42" y="693" on="1"/>
        <pt x="122" y="715" on="0"/>
        <pt x="221" y="715" on="0"/>
        <pt x="304" y="704" on="0"/>
        <pt x="387" y="662" on="0"/>
        <pt x="439" y="572" on="0"/>
        <pt x="439" y="434" on="0"/>
        <pt x="390" y="352" on="1"/>
        <pt x="385" y="343" on="0"/>
        <pt x="410" y="313" on="0"/>
        <pt x="417" y="304" on="0"/>
        <pt x="442" y="270" on="0"/>
        <pt x="448" y="255" on="0"/>
        <pt x="463" y="222" on="0"/>
        <pt x="466" y="197" on="0"/>
        <pt x="466" y="163" on="0"/>
        <pt x="457" y="111" on="0"/>
        <pt x="427" y="58" on="0"/>
        <pt x="390" y="26" on="0"/>
        <pt x="361" y="16" on="1"/>
        <pt x="306" y="-5" on="0"/>
        <pt x="213" y="-4" on="1"/>
        <pt x="190" y="-4" on="0"/>
        <pt x="137" y="-2" on="1"/>
        <pt x="66" y="2" on="1"/>
        <pt x="49" y="2" on="0"/>
        <pt x="44" y="4" on="1"/>
        <pt x="40" y="71" on="0"/>
      </contour>
      <contour>
        <pt x="188" y="140" on="1"/>
        <pt x="226" y="139" on="1"/>
        <pt x="266" y="139" on="0"/>
        <pt x="293" y="156" on="0"/>
        <pt x="301" y="165" on="1"/>
        <pt x="312" y="180" on="0"/>
        <pt x="312" y="218" on="0"/>
        <pt x="304" y="239" on="1"/>
        <pt x="290" y="266" on="0"/>
        <pt x="261" y="273" on="1"/>
        <pt x="246" y="277" on="0"/>
        <pt x="188" y="280" on="0"/>
        <pt x="183" y="281" on="1"/>
        <pt x="171" y="234" on="0"/>
        <pt x="171" y="163" on="0"/>
        <pt x="186" y="141" on="1"/>
      </contour>
      <contour>
        <pt x="180" y="535" on="1"/>
        <pt x="179" y="468" on="1"/>
        <pt x="179" y="435" on="0"/>
        <pt x="184" y="420" on="1"/>
        <pt x="205" y="417" on="0"/>
        <pt x="222" y="417" on="1"/>
        <pt x="283" y="417" on="0"/>
        <pt x="300" y="450" on="1"/>
        <pt x="313" y="474" on="0"/>
        <pt x="313" y="502" on="0"/>
        <pt x="309" y="510" on="1"/>
        <pt x="294" y="539" on="0"/>
        <pt x="236" y="551" on="0"/>
        <pt x="194" y="551" on="0"/>
        <pt x="180" y="544" on="1"/>
        <pt x="180" y="542" on="0"/>
      </contour>
    </TTGlyph>
    <TTGlyph name="C" xMin="31" yMin="-14" xMax="472" yMax="727">
      <contour>
        <pt x="360" y="285" on="1"/>
        <pt x="405" y="285" on="1"/>
        <pt x="446" y="285" on="0"/>
        <pt x="458" y="280" on="1"/>
        <pt x="468" y="242" on="0"/>
        <pt x="468" y="208" on="1"/>
        <pt x="468" y="101" on="0"/>
        <pt x="388" y="35" on="1"/>
        <pt x="334" y="-10" on="0"/>
        <pt x="263" y="-11" on="1"/>
        <pt x="242" y="-14" on="0"/>
        <pt x="192" y="-14" on="0"/>
        <pt x="116" y="2" on="0"/>
        <pt x="41" y="69" on="0"/>
        <pt x="36" y="122" on="1"/>
        <pt x="32" y="207" on="0"/>
        <pt x="32" y="434" on="0"/>
        <pt x="32" y="543" on="0"/>
        <pt x="32" y="575" on="0"/>
        <pt x="44" y="604" on="1"/>
        <pt x="62" y="657" on="0"/>
        <pt x="99" y="691" on="1"/>
        <pt x="119" y="706" on="0"/>
        <pt x="150" y="714" on="1"/>
        <pt x="188" y="726" on="0"/>
        <pt x="215" y="726" on="1"/>
        <pt x="300" y="726" on="0"/>
        <pt x="349" y="695" on="1"/>
        <pt x="471" y="617" on="0"/>
        <pt x="471" y="498" on="1"/>
        <pt x="471" y="461" on="0"/>
        <pt x="459" y="421" on="1"/>
        <pt x="436" y="416" on="0"/>
        <pt x="366" y="416" on="0"/>
        <pt x="313" y="425" on="1"/>
        <pt x="311" y="436" on="0"/>
        <pt x="309" y="482" on="0"/>
        <pt x="307" y="496" on="1"/>
        <pt x="301" y="538" on="0"/>
        <pt x="279" y="551" on="1"/>
        <pt x="267" y="558" on="0"/>
        <pt x="245" y="558" on="0"/>
        <pt x="202" y="551" on="0"/>
        <pt x="193" y="542" on="1"/>
        <pt x="190" y="540" on="0"/>
        <pt x="188" y="532" on="1"/>
        <pt x="179" y="508" on="0"/>
        <pt x="179" y="288" on="0"/>
        <pt x="183" y="244" on="1"/>
        <pt x="191" y="166" on="0"/>
        <pt x="240" y="152" on="1"/>
        <pt x="246" y="151" on="0"/>
        <pt x="251" y="151" on="1"/>
        <pt x="318" y="151" on="0"/>
        <pt x="321" y="240" on="1"/>
        <pt x="322" y="275" on="0"/>
        <pt x="324" y="286" on="1"/>
        <pt x="333" y="285" on="0"/>
      </contour>
    </TTGlyph>
    <TTGlyph name="Ccedilla" xMin="32" yMin="-129" xMax="458" yMax="694">
      <contour>
        <pt x="151" y="-125" on="1"/>
        <pt x="177" y="-10" on="1"/>
        <pt x="177" y="-7" on="1"/>
        <pt x="167" y="-8" on="0"/>
        <pt x="131" y="-8" on="0"/>
        <pt x="82" y="18" on="0"/>
        <pt x="66" y="48" on="1"/>
        <pt x="37" y="104" on="0"/>
        <pt x="35" y="184" on="1"/>
        <pt x="35" y="194" on="1"/>
        <pt x="33" y="272" on="0"/>
        <pt x="33" y="443" on="0"/>
        <pt x="38" y="532" on="0"/>
        <pt x="39" y="535" on="1"/>
        <pt x="48" y="629" on="0"/>
        <pt x="103" y="676" on="1"/>
        <pt x="130" y="693" on="0"/>
        <pt x="185" y="693" on="1"/>
        <pt x="191" y="693" on="0"/>
        <pt x="207" y="693" on="0"/>
        <pt x="216" y="693" on="1"/>
        <pt x="292" y="693" on="0"/>
        <pt x="331" y="679" on="1"/>
        <pt x="403" y="649" on="0"/>
        <pt x="437" y="567" on="1"/>
        <pt x="457" y="519" on="0"/>
        <pt x="457" y="440" on="0"/>
        <pt x="447" y="408" on="1"/>
        <pt x="446" y="408" on="0"/>
        <pt x="446" y="408" on="1"/>
        <pt x="429" y="402" on="0"/>
        <pt x="359" y="402" on="0"/>
        <pt x="312" y="409" on="1"/>
        <pt x="310" y="409" on="1"/>
        <pt x="305" y="422" on="0"/>
        <pt x="301" y="489" on="0"/>
        <pt x="292" y="511" on="1"/>
        <pt x="279" y="540" on="0"/>
        <pt x="241" y="540" on="1"/>
        <pt x="217" y="540" on="0"/>
        <pt x="182" y="507" on="0"/>
        <pt x="180" y="480" on="1"/>
        <pt x="177" y="410" on="0"/>
        <pt x="177" y="275" on="0"/>
        <pt x="182" y="218" on="1"/>
        <pt x="195" y="157" on="0"/>
        <pt x="235" y="146" on="1"/>
        <pt x="241" y="145" on="0"/>
        <pt x="246" y="145" on="1"/>
        <pt x="287" y="145" on="0"/>
        <pt x="304" y="180" on="1"/>
        <pt x="313" y="199" on="0"/>
        <pt x="315" y="264" on="0"/>
        <pt x="316" y="274" on="1"/>
        <pt x="386" y="276" on="1"/>
        <pt x="424" y="276" on="0"/>
        <pt x="446" y="270" on="1"/>
        <pt x="458" y="233" on="0"/>
        <pt x="458" y="198" on="1"/>
        <pt x="458" y="140" on="0"/>
        <pt x="426" y="84" on="1"/>
        <pt x="375" y="-4" on="0"/>
        <pt x="274" y="-10" on="1"/>
        <pt x="272" y="-10" on="1"/>
        <pt x="271" y="-9" on="1"/>
        <pt x="250" y="-98" on="0"/>
        <pt x="241" y="-125" on="1"/>
        <pt x="241" y="-127" on="1"/>
        <pt x="236" y="-127" on="0"/>
        <pt x="229" y="-127" on="1"/>
        <pt x="169" y="-129" on="1"/>
        <pt x="151" y="-129" on="0"/>
      </contour>
    </TTGlyph>
    <TTGlyph name="D" xMin="39" yMin="1" xMax="462" yMax="703">
      <contour>
        <pt x="167" y="702" on="1"/>
        <pt x="260" y="701" on="1"/>
        <pt x="274" y="701" on="0"/>
        <pt x="284" y="701" on="1"/>
        <pt x="316" y="693" on="0"/>
        <pt x="375" y="647" on="0"/>
        <pt x="393" y="617" on="1"/>
        <pt x="434" y="553" on="0"/>
        <pt x="453" y="470" on="1"/>
        <pt x="460" y="449" on="0"/>
        <pt x="462" y="407" on="1"/>
        <pt x="461" y="392" on="0"/>
        <pt x="459" y="329" on="0"/>
        <pt x="458" y="311" on="1"/>
        <pt x="455" y="255" on="0"/>
        <pt x="448" y="218" on="0"/>
        <pt x="447" y="218" on="0"/>
        <pt x="447" y="217" on="1"/>
        <pt x="414" y="122" on="0"/>
        <pt x="320" y="5" on="1"/>
        <pt x="232" y="2" on="0"/>
        <pt x="57" y="2" on="1"/>
        <pt x="56" y="1" on="1"/>
        <pt x="39" y="123" on="0"/>
        <pt x="39" y="343" on="1"/>
        <pt x="41" y="594" on="1"/>
        <pt x="41" y="649" on="0"/>
        <pt x="40" y="687" on="1"/>
        <pt x="43" y="691" on="1"/>
        <pt x="90" y="702" on="0"/>
      </contour>
      <contour>
        <pt x="183" y="410" on="1"/>
        <pt x="183" y="304" on="1"/>
        <pt x="183" y="255" on="0"/>
        <pt x="184" y="222" on="1"/>
        <pt x="194" y="214" on="0"/>
        <pt x="214" y="214" on="1"/>
        <pt x="249" y="214" on="0"/>
        <pt x="270" y="222" on="1"/>
        <pt x="286" y="232" on="0"/>
        <pt x="301" y="254" on="1"/>
        <pt x="329" y="297" on="0"/>
        <pt x="329" y="343" on="1"/>
        <pt x="329" y="376" on="0"/>
        <pt x="319" y="408" on="1"/>
        <pt x="299" y="473" on="0"/>
        <pt x="260" y="486" on="1"/>
        <pt x="240" y="489" on="0"/>
        <pt x="202" y="489" on="0"/>
        <pt x="185" y="485" on="1"/>
        <pt x="182" y="485" on="1"/>
        <pt x="182" y="481" on="1"/>
        <pt x="183" y="457" on="0"/>
      </contour>
    </TTGlyph>
    <TTGlyph name="E" xMin="40" yMin="0" xMax="465" yMax="698">
      <contour>
        <pt x="201" y="141" on="1"/>
        <pt x="421" y="135" on="1"/>
        <pt x="444" y="135" on="0"/>
        <pt x="463" y="136" on="1"/>
        <pt x="463" y="134" on="1"/>
        <pt x="465" y="110" on="0"/>
        <pt x="465" y="38" on="0"/>
        <pt x="455" y="3" on="1"/>
        <pt x="171" y="0" on="1"/>
        <pt x="102" y="0" on="0"/>
        <pt x="45" y="5" on="1"/>
        <pt x="40" y="474" on="1"/>
        <pt x="40" y="587" on="0"/>
        <pt x="46" y="689" on="1"/>
        <pt x="215" y="698" on="0"/>
        <pt x="459" y="698" on="0"/>
        <pt x="460" y="695" on="1"/>
        <pt x="463" y="674" on="0"/>
        <pt x="463" y="650" on="1"/>
        <pt x="460" y="553" on="1"/>
        <pt x="460" y="552" on="1"/>
        <pt x="416" y="542" on="0"/>
        <pt x="344" y="542" on="1"/>
        <pt x="292" y="542" on="1"/>
        <pt x="236" y="542" on="0"/>
        <pt x="198" y="540" on="1"/>
        <pt x="195" y="540" on="1"/>
        <pt x="194" y="539" on="1"/>
        <pt x="191" y="452" on="1"/>
        <pt x="191" y="426" on="0"/>
        <pt x="196" y="421" on="1"/>
        <pt x="250" y="418" on="0"/>
        <pt x="319" y="418" on="1"/>
        <pt x="319" y="417" on="1"/>
        <pt x="323" y="414" on="0"/>
        <pt x="323" y="375" on="1"/>
        <pt x="321" y="278" on="1"/>
        <pt x="300" y="272" on="0"/>
        <pt x="207" y="272" on="0"/>
        <pt x="200" y="267" on="1"/>
        <pt x="196" y="246" on="0"/>
        <pt x="196" y="183" on="0"/>
        <pt x="200" y="142" on="1"/>
      </contour>
    </TTGlyph>
    <TTGlyph name="Eacute" xMin="40" yMin="0" xMax="465" yMax="917">
      <contour>
        <pt x="201" y="141" on="1"/>
        <pt x="421" y="135" on="1"/>
        <pt x="444" y="135" on="0"/>
        <pt x="463" y="136" on="1"/>
        <pt x="463" y="134" on="1"/>
        <pt x="465" y="110" on="0"/>
        <pt x="465" y="38" on="0"/>
        <pt x="455" y="3" on="1"/>
        <pt x="171" y="0" on="1"/>
        <pt x="102" y="0" on="0"/>
        <pt x="45" y="5" on="1"/>
        <pt x="40" y="474" on="1"/>
        <pt x="40" y="587" on="0"/>
        <pt x="46" y="689" on="1"/>
        <pt x="215" y="698" on="0"/>
        <pt x="459" y="698" on="0"/>
        <pt x="460" y="695" on="1"/>
        <pt x="463" y="674" on="0"/>
        <pt x="463" y="650" on="1"/>
        <pt x="460" y="553" on="1"/>
        <pt x="460" y="552" on="1"/>
        <pt x="416" y="542" on="0"/>
        <pt x="344" y="542" on="1"/>
        <pt x="292" y="542" on="1"/>
        <pt x="236" y="542" on="0"/>
        <pt x="198" y="540" on="1"/>
        <pt x="195" y="540" on="1"/>
        <pt x="194" y="539" on="1"/>
        <pt x="191" y="452" on="1"/>
        <pt x="191" y="426" on="0"/>
        <pt x="196" y="421" on="1"/>
        <pt x="250" y="418" on="0"/>
        <pt x="319" y="418" on="1"/>
        <pt x="319" y="417" on="1"/>
        <pt x="323" y="414" on="0"/>
        <pt x="323" y="375" on="1"/>
        <pt x="321" y="278" on="1"/>
        <pt x="300" y="272" on="0"/>
        <pt x="207" y="272" on="0"/>
        <pt x="200" y="267" on="1"/>
        <pt x="196" y="246" on="0"/>
        <pt x="196" y="183" on="0"/>
        <pt x="200" y="142" on="1"/>
      </contour>
      <contour>
        <pt x="294" y="750" on="1"/>
        <pt x="272" y="748" on="0"/>
        <pt x="252" y="748" on="1"/>
        <pt x="182" y="748" on="0"/>
        <pt x="160" y="754" on="1"/>
        <pt x="173" y="766" on="0"/>
        <pt x="300" y="896" on="0"/>
        <pt x="327" y="917" on="1"/>
        <pt x="396" y="847" on="1"/>
        <pt x="389" y="840" on="0"/>
        <pt x="364" y="819" on="1"/>
        <pt x="300" y="764" on="0"/>
      </contour>
    </TTGlyph>
    <TTGlyph name="Ecircumflex" xMin="40" yMin="0" xMax="465" yMax="918">
      <contour>
        <pt x="415" y="756" on="1"/>
        <pt x="337" y="749" on="1"/>
        <pt x="320" y="749" on="0"/>
        <pt x="300" y="751" on="1"/>
        <pt x="294" y="751" on="0"/>
        <pt x="254" y="797" on="0"/>
        <pt x="249" y="800" on="1"/>
        <pt x="244" y="798" on="0"/>
        <pt x="202" y="753" on="0"/>
        <pt x="195" y="751" on="0"/>
        <pt x="170" y="751" on="0"/>
        <pt x="90" y="755" on="1"/>
        <pt x="122" y="797" on="0"/>
        <pt x="179" y="852" on="0"/>
        <pt x="240" y="907" on="0"/>
        <pt x="252" y="918" on="1"/>
      </contour>
      <contour>
        <pt x="201" y="141" on="1"/>
        <pt x="421" y="135" on="1"/>
        <pt x="444" y="135" on="0"/>
        <pt x="463" y="136" on="1"/>
        <pt x="463" y="134" on="1"/>
        <pt x="465" y="110" on="0"/>
        <pt x="465" y="38" on="0"/>
        <pt x="455" y="3" on="1"/>
        <pt x="171" y="0" on="1"/>
        <pt x="102" y="0" on="0"/>
        <pt x="45" y="5" on="1"/>
        <pt x="40" y="474" on="1"/>
        <pt x="40" y="587" on="0"/>
        <pt x="46" y="689" on="1"/>
        <pt x="215" y="698" on="0"/>
        <pt x="459" y="698" on="0"/>
        <pt x="460" y="695" on="1"/>
        <pt x="463" y="674" on="0"/>
        <pt x="463" y="650" on="1"/>
        <pt x="460" y="553" on="1"/>
        <pt x="460" y="552" on="1"/>
        <pt x="416" y="542" on="0"/>
        <pt x="344" y="542" on="1"/>
        <pt x="292" y="542" on="1"/>
        <pt x="236" y="542" on="0"/>
        <pt x="198" y="540" on="1"/>
        <pt x="195" y="540" on="1"/>
        <pt x="194" y="539" on="1"/>
        <pt x="191" y="452" on="1"/>
        <pt x="191" y="426" on="0"/>
        <pt x="196" y="421" on="1"/>
        <pt x="250" y="418" on="0"/>
        <pt x="319" y="418" on="1"/>
        <pt x="319" y="417" on="1"/>
        <pt x="323" y="414" on="0"/>
        <pt x="323" y="375" on="1"/>
        <pt x="321" y="278" on="1"/>
        <pt x="300" y="272" on="0"/>
        <pt x="207" y="272" on="0"/>
        <pt x="200" y="267" on="1"/>
        <pt x="196" y="246" on="0"/>
        <pt x="196" y="183" on="0"/>
        <pt x="200" y="142" on="1"/>
      </contour>
    </TTGlyph>
    <TTGlyph name="Edieresis" xMin="40" yMin="0" xMax="465" yMax="867">
      <contour>
        <pt x="201" y="141" on="1"/>
        <pt x="421" y="135" on="1"/>
        <pt x="444" y="135" on="0"/>
        <pt x="463" y="136" on="1"/>
        <pt x="463" y="134" on="1"/>
        <pt x="465" y="110" on="0"/>
        <pt x="465" y="38" on="0"/>
        <pt x="455" y="3" on="1"/>
        <pt x="171" y="0" on="1"/>
        <pt x="102" y="0" on="0"/>
        <pt x="45" y="5" on="1"/>
        <pt x="40" y="474" on="1"/>
        <pt x="40" y="587" on="0"/>
        <pt x="46" y="689" on="1"/>
        <pt x="215" y="698" on="0"/>
        <pt x="459" y="698" on="0"/>
        <pt x="460" y="695" on="1"/>
        <pt x="463" y="674" on="0"/>
        <pt x="463" y="650" on="1"/>
        <pt x="460" y="553" on="1"/>
        <pt x="460" y="552" on="1"/>
        <pt x="416" y="542" on="0"/>
        <pt x="344" y="542" on="1"/>
        <pt x="292" y="542" on="1"/>
        <pt x="236" y="542" on="0"/>
        <pt x="198" y="540" on="1"/>
        <pt x="195" y="540" on="1"/>
        <pt x="194" y="539" on="1"/>
        <pt x="191" y="452" on="1"/>
        <pt x="191" y="426" on="0"/>
        <pt x="196" y="421" on="1"/>
        <pt x="250" y="418" on="0"/>
        <pt x="319" y="418" on="1"/>
        <pt x="319" y="417" on="1"/>
        <pt x="323" y="414" on="0"/>
        <pt x="323" y="375" on="1"/>
        <pt x="321" y="278" on="1"/>
        <pt x="300" y="272" on="0"/>
        <pt x="207" y="272" on="0"/>
        <pt x="200" y="267" on="1"/>
        <pt x="196" y="246" on="0"/>
        <pt x="196" y="183" on="0"/>
        <pt x="200" y="142" on="1"/>
      </contour>
      <contour>
        <pt x="108" y="759" on="1"/>
        <pt x="105" y="775" on="0"/>
        <pt x="105" y="805" on="1"/>
        <pt x="107" y="860" on="1"/>
        <pt x="128" y="867" on="0"/>
        <pt x="203" y="867" on="0"/>
        <pt x="216" y="861" on="1"/>
        <pt x="214" y="839" on="1"/>
        <pt x="210" y="773" on="0"/>
        <pt x="210" y="760" on="1"/>
        <pt x="210" y="758" on="1"/>
        <pt x="208" y="758" on="1"/>
        <pt x="111" y="759" on="1"/>
      </contour>
      <contour>
        <pt x="282" y="759" on="1"/>
        <pt x="279" y="775" on="0"/>
        <pt x="279" y="805" on="1"/>
        <pt x="281" y="860" on="1"/>
        <pt x="302" y="867" on="0"/>
        <pt x="377" y="867" on="0"/>
        <pt x="390" y="861" on="1"/>
        <pt x="388" y="839" on="1"/>
        <pt x="384" y="773" on="0"/>
        <pt x="384" y="760" on="1"/>
        <pt x="384" y="758" on="1"/>
        <pt x="382" y="758" on="1"/>
        <pt x="285" y="759" on="1"/>
      </contour>
    </TTGlyph>
    <TTGlyph name="Egrave" xMin="40" yMin="0" xMax="465" yMax="917">
      <contour>
        <pt x="347" y="754" on="1"/>
        <pt x="323" y="748" on="0"/>
        <pt x="235" y="748" on="0"/>
        <pt x="213" y="750" on="1"/>
        <pt x="205" y="762" on="0"/>
        <pt x="118" y="840" on="0"/>
        <pt x="111" y="847" on="1"/>
        <pt x="180" y="917" on="1"/>
        <pt x="207" y="896" on="0"/>
        <pt x="334" y="766" on="0"/>
      </contour>
      <contour>
        <pt x="201" y="141" on="1"/>
        <pt x="421" y="135" on="1"/>
        <pt x="444" y="135" on="0"/>
        <pt x="463" y="136" on="1"/>
        <pt x="463" y="134" on="1"/>
        <pt x="465" y="110" on="0"/>
        <pt x="465" y="38" on="0"/>
        <pt x="455" y="3" on="1"/>
        <pt x="171" y="0" on="1"/>
        <pt x="102" y="0" on="0"/>
        <pt x="45" y="5" on="1"/>
        <pt x="40" y="474" on="1"/>
        <pt x="40" y="587" on="0"/>
        <pt x="46" y="689" on="1"/>
        <pt x="215" y="698" on="0"/>
        <pt x="459" y="698" on="0"/>
        <pt x="460" y="695" on="1"/>
        <pt x="463" y="674" on="0"/>
        <pt x="463" y="650" on="1"/>
        <pt x="460" y="553" on="1"/>
        <pt x="460" y="552" on="1"/>
        <pt x="416" y="542" on="0"/>
        <pt x="344" y="542" on="1"/>
        <pt x="292" y="542" on="1"/>
        <pt x="236" y="542" on="0"/>
        <pt x="198" y="540" on="1"/>
        <pt x="195" y="540" on="1"/>
        <pt x="194" y="539" on="1"/>
        <pt x="191" y="452" on="1"/>
        <pt x="191" y="426" on="0"/>
        <pt x="196" y="421" on="1"/>
        <pt x="250" y="418" on="0"/>
        <pt x="319" y="418" on="1"/>
        <pt x="319" y="417" on="1"/>
        <pt x="323" y="414" on="0"/>
        <pt x="323" y="375" on="1"/>
        <pt x="321" y="278" on="1"/>
        <pt x="300" y="272" on="0"/>
        <pt x="207" y="272" on="0"/>
        <pt x="200" y="267" on="1"/>
        <pt x="196" y="246" on="0"/>
        <pt x="196" y="183" on="0"/>
        <pt x="200" y="142" on="1"/>
      </contour>
    </TTGlyph>
    <TTGlyph name="Eth" xMin="-6" yMin="0" xMax="462" yMax="706">
      <contour>
        <pt x="-1" y="272" on="1"/>
        <pt x="-5" y="390" on="1"/>
        <pt x="-5" y="400" on="0"/>
        <pt x="-5" y="410" on="1"/>
        <pt x="52" y="409" on="1"/>
        <pt x="53" y="482" on="0"/>
        <pt x="53" y="629" on="0"/>
        <pt x="51" y="687" on="1"/>
        <pt x="58" y="688" on="0"/>
        <pt x="94" y="694" on="1"/>
        <pt x="175" y="706" on="0"/>
        <pt x="231" y="706" on="0"/>
        <pt x="254" y="703" on="0"/>
        <pt x="309" y="693" on="0"/>
        <pt x="326" y="683" on="1"/>
        <pt x="369" y="656" on="0"/>
        <pt x="423" y="568" on="0"/>
        <pt x="434" y="524" on="1"/>
        <pt x="454" y="458" on="0"/>
        <pt x="462" y="377" on="0"/>
        <pt x="462" y="281" on="0"/>
        <pt x="446" y="219" on="1"/>
        <pt x="403" y="26" on="0"/>
        <pt x="319" y="8" on="1"/>
        <pt x="278" y="0" on="0"/>
        <pt x="220" y="0" on="1"/>
        <pt x="74" y="4" on="1"/>
        <pt x="64" y="4" on="0"/>
        <pt x="56" y="4" on="1"/>
        <pt x="52" y="132" on="0"/>
        <pt x="52" y="271" on="1"/>
        <pt x="33" y="272" on="0"/>
      </contour>
      <contour>
        <pt x="201" y="164" on="1"/>
        <pt x="238" y="166" on="1"/>
        <pt x="282" y="170" on="0"/>
        <pt x="306" y="205" on="1"/>
        <pt x="332" y="245" on="0"/>
        <pt x="332" y="336" on="1"/>
        <pt x="332" y="384" on="0"/>
        <pt x="322" y="424" on="0"/>
        <pt x="316" y="454" on="0"/>
        <pt x="311" y="466" on="0"/>
        <pt x="302" y="490" on="0"/>
        <pt x="297" y="496" on="1"/>
        <pt x="283" y="515" on="0"/>
        <pt x="268" y="525" on="1"/>
        <pt x="246" y="534" on="0"/>
        <pt x="233" y="534" on="1"/>
        <pt x="192" y="534" on="0"/>
        <pt x="167" y="524" on="1"/>
        <pt x="169" y="508" on="0"/>
        <pt x="169" y="442" on="0"/>
        <pt x="168" y="406" on="1"/>
        <pt x="227" y="405" on="1"/>
        <pt x="230" y="277" on="1"/>
        <pt x="167" y="278" on="1"/>
        <pt x="167" y="191" on="0"/>
        <pt x="169" y="173" on="1"/>
        <pt x="169" y="164" on="0"/>
      </contour>
    </TTGlyph>
    <TTGlyph name="Euro" xMin="29" yMin="-1" xMax="464" yMax="709">
      <contour>
        <pt x="461" y="151" on="1"/>
        <pt x="464" y="52" on="1"/>
        <pt x="464" y="19" on="0"/>
        <pt x="459" y="7" on="1"/>
        <pt x="410" y="-1" on="0"/>
        <pt x="291" y="-1" on="0"/>
        <pt x="244" y="1" on="1"/>
        <pt x="226" y="3" on="1"/>
        <pt x="175" y="13" on="0"/>
        <pt x="109" y="52" on="0"/>
        <pt x="95" y="70" on="1"/>
        <pt x="59" y="112" on="0"/>
        <pt x="29" y="246" on="0"/>
        <pt x="29" y="310" on="1"/>
        <pt x="31" y="471" on="1"/>
        <pt x="36" y="561" on="0"/>
        <pt x="73" y="619" on="1"/>
        <pt x="115" y="681" on="0"/>
        <pt x="200" y="697" on="1"/>
        <pt x="265" y="709" on="0"/>
        <pt x="340" y="709" on="1"/>
        <pt x="404" y="708" on="1"/>
        <pt x="452" y="709" on="1"/>
        <pt x="453" y="709" on="1"/>
        <pt x="453" y="708" on="1"/>
        <pt x="458" y="662" on="0"/>
        <pt x="458" y="626" on="1"/>
        <pt x="458" y="562" on="0"/>
        <pt x="454" y="558" on="1"/>
        <pt x="448" y="558" on="0"/>
        <pt x="400" y="562" on="0"/>
        <pt x="382" y="563" on="0"/>
        <pt x="338" y="563" on="0"/>
        <pt x="316" y="560" on="0"/>
        <pt x="280" y="552" on="0"/>
        <pt x="270" y="546" on="1"/>
        <pt x="243" y="531" on="0"/>
        <pt x="228" y="507" on="1"/>
        <pt x="232" y="507" on="1"/>
        <pt x="301" y="507" on="0"/>
        <pt x="317" y="502" on="1"/>
        <pt x="317" y="501" on="1"/>
        <pt x="320" y="478" on="0"/>
        <pt x="320" y="428" on="0"/>
        <pt x="317" y="402" on="1"/>
        <pt x="317" y="401" on="1"/>
        <pt x="297" y="394" on="0"/>
        <pt x="246" y="394" on="1"/>
        <pt x="189" y="394" on="1"/>
        <pt x="189" y="373" on="0"/>
        <pt x="192" y="361" on="1"/>
        <pt x="286" y="361" on="0"/>
        <pt x="317" y="359" on="1"/>
        <pt x="322" y="338" on="0"/>
        <pt x="322" y="288" on="0"/>
        <pt x="318" y="260" on="1"/>
        <pt x="295" y="256" on="0"/>
        <pt x="215" y="255" on="0"/>
        <pt x="202" y="254" on="1"/>
        <pt x="214" y="194" on="0"/>
        <pt x="277" y="179" on="1"/>
        <pt x="319" y="169" on="0"/>
        <pt x="440" y="166" on="0"/>
        <pt x="461" y="162" on="1"/>
        <pt x="461" y="161" on="1"/>
        <pt x="461" y="157" on="0"/>
      </contour>
    </TTGlyph>
    <TTGlyph name="F" xMin="41" yMin="-3" xMax="490" yMax="697">
      <contour>
        <pt x="353" y="261" on="1"/>
        <pt x="353" y="261" on="0"/>
        <pt x="225" y="246" on="1"/>
        <pt x="224" y="246" on="1"/>
        <pt x="218" y="178" on="0"/>
        <pt x="216" y="1" on="1"/>
        <pt x="175" y="-3" on="0"/>
        <pt x="46" y="-3" on="0"/>
        <pt x="41" y="2" on="1"/>
        <pt x="43" y="679" on="1"/>
        <pt x="43" y="680" on="1"/>
        <pt x="141" y="697" on="0"/>
        <pt x="407" y="697" on="0"/>
        <pt x="490" y="682" on="1"/>
        <pt x="490" y="534" on="1"/>
        <pt x="272" y="523" on="0"/>
        <pt x="223" y="518" on="1"/>
        <pt x="213" y="495" on="0"/>
        <pt x="213" y="449" on="0"/>
        <pt x="226" y="427" on="0"/>
        <pt x="227" y="427" on="1"/>
        <pt x="254" y="424" on="0"/>
        <pt x="317" y="424" on="0"/>
        <pt x="353" y="427" on="1"/>
        <pt x="356" y="419" on="0"/>
        <pt x="356" y="385" on="1"/>
        <pt x="355" y="309" on="1"/>
        <pt x="355" y="281" on="0"/>
        <pt x="356" y="263" on="1"/>
        <pt x="356" y="261" on="0"/>
      </contour>
    </TTGlyph>
    <TTGlyph name="G" xMin="27" yMin="-16" xMax="459" yMax="703">
      <contour>
        <pt x="305" y="238" on="1"/>
        <pt x="266" y="238" on="1"/>
        <pt x="248" y="238" on="0"/>
        <pt x="244" y="240" on="1"/>
        <pt x="242" y="261" on="0"/>
        <pt x="242" y="321" on="0"/>
        <pt x="240" y="345" on="1"/>
        <pt x="240" y="346" on="1"/>
        <pt x="240" y="347" on="0"/>
        <pt x="242" y="347" on="0"/>
        <pt x="243" y="348" on="1"/>
        <pt x="258" y="357" on="0"/>
        <pt x="311" y="358" on="0"/>
        <pt x="355" y="358" on="0"/>
        <pt x="446" y="352" on="0"/>
        <pt x="448" y="352" on="1"/>
        <pt x="450" y="352" on="1"/>
        <pt x="451" y="351" on="1"/>
        <pt x="459" y="282" on="0"/>
        <pt x="459" y="168" on="0"/>
        <pt x="451" y="125" on="1"/>
        <pt x="442" y="38" on="0"/>
        <pt x="356" y="6" on="1"/>
        <pt x="281" y="-15" on="0"/>
        <pt x="178" y="-15" on="0"/>
        <pt x="106" y="16" on="0"/>
        <pt x="84" y="44" on="1"/>
        <pt x="49" y="90" on="0"/>
        <pt x="38" y="187" on="1"/>
        <pt x="27" y="298" on="0"/>
        <pt x="27" y="348" on="1"/>
        <pt x="27" y="481" on="0"/>
        <pt x="51" y="630" on="0"/>
        <pt x="97" y="662" on="1"/>
        <pt x="144" y="702" on="0"/>
        <pt x="328" y="702" on="0"/>
        <pt x="452" y="607" on="0"/>
        <pt x="452" y="516" on="1"/>
        <pt x="452" y="494" on="0"/>
        <pt x="449" y="475" on="1"/>
        <pt x="447" y="472" on="0"/>
        <pt x="347" y="471" on="0"/>
        <pt x="323" y="474" on="1"/>
        <pt x="298" y="557" on="0"/>
        <pt x="255" y="557" on="1"/>
        <pt x="246" y="558" on="0"/>
        <pt x="229" y="558" on="0"/>
        <pt x="204" y="556" on="0"/>
        <pt x="189" y="541" on="0"/>
        <pt x="179" y="507" on="1"/>
        <pt x="164" y="454" on="0"/>
        <pt x="164" y="277" on="0"/>
        <pt x="175" y="163" on="0"/>
        <pt x="201" y="142" on="1"/>
        <pt x="216" y="132" on="0"/>
        <pt x="259" y="132" on="0"/>
        <pt x="286" y="142" on="1"/>
        <pt x="311" y="153" on="0"/>
        <pt x="317" y="178" on="1"/>
        <pt x="320" y="190" on="0"/>
        <pt x="323" y="232" on="0"/>
        <pt x="318" y="238" on="1"/>
        <pt x="314" y="238" on="0"/>
      </contour>
    </TTGlyph>
    <TTGlyph name="H" xMin="38" yMin="0" xMax="469" yMax="708">
      <contour>
        <pt x="71" y="697" on="1"/>
        <pt x="137" y="700" on="1"/>
        <pt x="159" y="700" on="0"/>
        <pt x="170" y="696" on="1"/>
        <pt x="175" y="656" on="0"/>
        <pt x="182" y="479" on="0"/>
        <pt x="191" y="433" on="1"/>
        <pt x="192" y="433" on="1"/>
        <pt x="204" y="430" on="0"/>
        <pt x="256" y="430" on="0"/>
        <pt x="300" y="434" on="1"/>
        <pt x="301" y="434" on="1"/>
        <pt x="307" y="506" on="0"/>
        <pt x="307" y="641" on="0"/>
        <pt x="305" y="695" on="1"/>
        <pt x="344" y="708" on="0"/>
        <pt x="420" y="708" on="0"/>
        <pt x="442" y="706" on="1"/>
        <pt x="469" y="6" on="1"/>
        <pt x="442" y="1" on="0"/>
        <pt x="338" y="1" on="0"/>
        <pt x="329" y="0" on="1"/>
        <pt x="328" y="0" on="1"/>
        <pt x="321" y="46" on="0"/>
        <pt x="318" y="235" on="0"/>
        <pt x="313" y="276" on="1"/>
        <pt x="312" y="277" on="1"/>
        <pt x="284" y="282" on="0"/>
        <pt x="226" y="282" on="0"/>
        <pt x="196" y="275" on="1"/>
        <pt x="194" y="250" on="0"/>
        <pt x="194" y="204" on="1"/>
        <pt x="195" y="92" on="1"/>
        <pt x="195" y="33" on="0"/>
        <pt x="190" y="7" on="1"/>
        <pt x="178" y="0" on="0"/>
        <pt x="150" y="0" on="1"/>
        <pt x="79" y="4" on="1"/>
        <pt x="60" y="4" on="0"/>
        <pt x="54" y="1" on="1"/>
        <pt x="47" y="94" on="0"/>
        <pt x="39" y="468" on="0"/>
        <pt x="39" y="644" on="0"/>
        <pt x="40" y="698" on="1"/>
        <pt x="40" y="699" on="1"/>
        <pt x="43" y="699" on="1"/>
        <pt x="53" y="697" on="0"/>
      </contour>
    </TTGlyph>
    <TTGlyph name="H18533" xMin="50" yMin="6" xMax="533" yMax="492">
      <contour>
        <pt x="161" y="20" on="1"/>
        <pt x="69" y="62" on="0"/>
        <pt x="59" y="140" on="1"/>
        <pt x="50" y="189" on="0"/>
        <pt x="50" y="293" on="0"/>
        <pt x="59" y="387" on="0"/>
        <pt x="91" y="425" on="1"/>
        <pt x="132" y="477" on="0"/>
        <pt x="212" y="489" on="1"/>
        <pt x="259" y="491" on="0"/>
        <pt x="348" y="491" on="0"/>
        <pt x="420" y="478" on="0"/>
        <pt x="458" y="454" on="1"/>
        <pt x="470" y="446" on="1"/>
        <pt x="528" y="402" on="0"/>
        <pt x="532" y="320" on="1"/>
        <pt x="533" y="298" on="0"/>
        <pt x="533" y="280" on="1"/>
        <pt x="533" y="247" on="0"/>
        <pt x="522" y="162" on="0"/>
        <pt x="520" y="150" on="1"/>
        <pt x="515" y="102" on="0"/>
        <pt x="472" y="61" on="1"/>
        <pt x="430" y="19" on="0"/>
        <pt x="342" y="11" on="1"/>
        <pt x="287" y="6" on="0"/>
        <pt x="206" y="6" on="0"/>
      </contour>
    </TTGlyph>
    <TTGlyph name="I" xMin="38" yMin="-6" xMax="222" yMax="709">
      <contour>
        <pt x="52" y="708" on="1"/>
        <pt x="88" y="706" on="1"/>
        <pt x="171" y="703" on="0"/>
        <pt x="198" y="703" on="1"/>
        <pt x="222" y="703" on="1"/>
        <pt x="222" y="699" on="1"/>
        <pt x="215" y="222" on="1"/>
        <pt x="215" y="143" on="0"/>
        <pt x="221" y="5" on="1"/>
        <pt x="218" y="-6" on="0"/>
        <pt x="161" y="-6" on="1"/>
        <pt x="58" y="-3" on="1"/>
        <pt x="43" y="-3" on="0"/>
        <pt x="39" y="-4" on="1"/>
        <pt x="44" y="61" on="0"/>
        <pt x="44" y="167" on="1"/>
        <pt x="39" y="512" on="1"/>
        <pt x="39" y="640" on="0"/>
        <pt x="47" y="706" on="1"/>
        <pt x="47" y="708" on="1"/>
        <pt x="49" y="708" on="0"/>
      </contour>
    </TTGlyph>
    <TTGlyph name="Iacute" xMin="38" yMin="-6" xMax="295" yMax="917">
      <contour>
        <pt x="47" y="708" on="1"/>
        <pt x="88" y="706" on="1"/>
        <pt x="171" y="703" on="0"/>
        <pt x="198" y="703" on="1"/>
        <pt x="222" y="703" on="1"/>
        <pt x="222" y="699" on="1"/>
        <pt x="215" y="222" on="1"/>
        <pt x="215" y="143" on="0"/>
        <pt x="221" y="5" on="1"/>
        <pt x="218" y="-6" on="0"/>
        <pt x="161" y="-6" on="1"/>
        <pt x="58" y="-3" on="1"/>
        <pt x="43" y="-3" on="0"/>
        <pt x="39" y="-4" on="1"/>
        <pt x="44" y="61" on="0"/>
        <pt x="44" y="167" on="1"/>
        <pt x="39" y="512" on="1"/>
        <pt x="39" y="640" on="0"/>
        <pt x="47" y="706" on="1"/>
      </contour>
      <contour>
        <pt x="193" y="750" on="1"/>
        <pt x="171" y="748" on="0"/>
        <pt x="151" y="748" on="1"/>
        <pt x="82" y="748" on="0"/>
        <pt x="59" y="754" on="1"/>
        <pt x="72" y="766" on="0"/>
        <pt x="199" y="896" on="0"/>
        <pt x="226" y="917" on="1"/>
        <pt x="295" y="847" on="1"/>
        <pt x="288" y="840" on="0"/>
        <pt x="264" y="819" on="1"/>
        <pt x="199" y="764" on="0"/>
      </contour>
    </TTGlyph>
    <TTGlyph name="Icircumflex" xMin="-18" yMin="-6" xMax="307" yMax="918">
      <contour>
        <pt x="307" y="756" on="1"/>
        <pt x="229" y="749" on="1"/>
        <pt x="212" y="749" on="0"/>
        <pt x="192" y="751" on="1"/>
        <pt x="186" y="751" on="0"/>
        <pt x="146" y="797" on="0"/>
        <pt x="141" y="800" on="1"/>
        <pt x="136" y="798" on="0"/>
        <pt x="94" y="753" on="0"/>
        <pt x="87" y="751" on="0"/>
        <pt x="62" y="751" on="0"/>
        <pt x="-18" y="755" on="1"/>
        <pt x="14" y="797" on="0"/>
        <pt x="71" y="852" on="0"/>
        <pt x="132" y="907" on="0"/>
        <pt x="144" y="918" on="1"/>
      </contour>
      <contour>
        <pt x="52" y="708" on="1"/>
        <pt x="88" y="706" on="1"/>
        <pt x="171" y="703" on="0"/>
        <pt x="198" y="703" on="1"/>
        <pt x="222" y="703" on="1"/>
        <pt x="222" y="699" on="1"/>
        <pt x="215" y="222" on="1"/>
        <pt x="215" y="143" on="0"/>
        <pt x="221" y="5" on="1"/>
        <pt x="218" y="-6" on="0"/>
        <pt x="161" y="-6" on="1"/>
        <pt x="58" y="-3" on="1"/>
        <pt x="43" y="-3" on="0"/>
        <pt x="39" y="-4" on="1"/>
        <pt x="44" y="61" on="0"/>
        <pt x="44" y="167" on="1"/>
        <pt x="39" y="512" on="1"/>
        <pt x="39" y="640" on="0"/>
        <pt x="47" y="706" on="1"/>
        <pt x="47" y="708" on="1"/>
        <pt x="49" y="708" on="0"/>
      </contour>
    </TTGlyph>
    <TTGlyph name="Idieresis" xMin="-1" yMin="-6" xMax="284" yMax="867">
      <contour>
        <pt x="47" y="708" on="1"/>
        <pt x="88" y="706" on="1"/>
        <pt x="171" y="703" on="0"/>
        <pt x="198" y="703" on="1"/>
        <pt x="222" y="703" on="1"/>
        <pt x="222" y="699" on="1"/>
        <pt x="215" y="222" on="1"/>
        <pt x="215" y="143" on="0"/>
        <pt x="221" y="5" on="1"/>
        <pt x="218" y="-6" on="0"/>
        <pt x="161" y="-6" on="1"/>
        <pt x="58" y="-3" on="1"/>
        <pt x="43" y="-3" on="0"/>
        <pt x="39" y="-4" on="1"/>
        <pt x="44" y="61" on="0"/>
        <pt x="44" y="167" on="1"/>
        <pt x="39" y="512" on="1"/>
        <pt x="39" y="640" on="0"/>
        <pt x="47" y="706" on="1"/>
      </contour>
      <contour>
        <pt x="2" y="759" on="1"/>
        <pt x="-1" y="775" on="0"/>
        <pt x="-1" y="805" on="1"/>
        <pt x="1" y="860" on="1"/>
        <pt x="22" y="867" on="0"/>
        <pt x="97" y="867" on="0"/>
        <pt x="110" y="861" on="1"/>
        <pt x="108" y="839" on="1"/>
        <pt x="104" y="773" on="0"/>
        <pt x="104" y="760" on="1"/>
        <pt x="104" y="758" on="1"/>
        <pt x="102" y="758" on="1"/>
        <pt x="5" y="759" on="1"/>
      </contour>
      <contour>
        <pt x="176" y="759" on="1"/>
        <pt x="173" y="775" on="0"/>
        <pt x="173" y="805" on="1"/>
        <pt x="175" y="860" on="1"/>
        <pt x="196" y="867" on="0"/>
        <pt x="271" y="867" on="0"/>
        <pt x="284" y="861" on="1"/>
        <pt x="282" y="839" on="1"/>
        <pt x="278" y="773" on="0"/>
        <pt x="278" y="760" on="1"/>
        <pt x="278" y="758" on="1"/>
        <pt x="276" y="758" on="1"/>
        <pt x="179" y="759" on="1"/>
      </contour>
    </TTGlyph>
    <TTGlyph name="Igrave" xMin="-16" yMin="-6" xMax="222" yMax="917">
      <contour>
        <pt x="220" y="754" on="1"/>
        <pt x="196" y="748" on="0"/>
        <pt x="108" y="748" on="0"/>
        <pt x="86" y="750" on="1"/>
        <pt x="78" y="762" on="0"/>
        <pt x="-9" y="840" on="0"/>
        <pt x="-16" y="847" on="1"/>
        <pt x="53" y="917" on="1"/>
        <pt x="80" y="896" on="0"/>
        <pt x="207" y="766" on="0"/>
      </contour>
      <contour>
        <pt x="52" y="708" on="1"/>
        <pt x="88" y="706" on="1"/>
        <pt x="171" y="703" on="0"/>
        <pt x="198" y="703" on="1"/>
        <pt x="222" y="703" on="1"/>
        <pt x="222" y="699" on="1"/>
        <pt x="215" y="222" on="1"/>
        <pt x="215" y="143" on="0"/>
        <pt x="221" y="5" on="1"/>
        <pt x="218" y="-6" on="0"/>
        <pt x="161" y="-6" on="1"/>
        <pt x="58" y="-3" on="1"/>
        <pt x="43" y="-3" on="0"/>
        <pt x="39" y="-4" on="1"/>
        <pt x="44" y="61" on="0"/>
        <pt x="44" y="167" on="1"/>
        <pt x="39" y="512" on="1"/>
        <pt x="39" y="640" on="0"/>
        <pt x="47" y="706" on="1"/>
        <pt x="47" y="708" on="1"/>
        <pt x="49" y="708" on="0"/>
      </contour>
    </TTGlyph>
    <TTGlyph name="J" xMin="3" yMin="-9" xMax="430" yMax="712">
      <contour>
        <pt x="159" y="286" on="1"/>
        <pt x="159" y="280" on="1"/>
        <pt x="167" y="169" on="0"/>
        <pt x="219" y="166" on="1"/>
        <pt x="225" y="165" on="0"/>
        <pt x="231" y="165" on="1"/>
        <pt x="250" y="165" on="0"/>
        <pt x="277" y="203" on="0"/>
        <pt x="280" y="236" on="1"/>
        <pt x="277" y="402" on="0"/>
        <pt x="277" y="629" on="0"/>
        <pt x="279" y="703" on="1"/>
        <pt x="279" y="710" on="1"/>
        <pt x="425" y="712" on="1"/>
        <pt x="425" y="698" on="0"/>
        <pt x="425" y="681" on="1"/>
        <pt x="430" y="385" on="1"/>
        <pt x="430" y="353" on="0"/>
        <pt x="428" y="317" on="0"/>
        <pt x="427" y="245" on="0"/>
        <pt x="424" y="208" on="0"/>
        <pt x="417" y="143" on="0"/>
        <pt x="401" y="103" on="0"/>
        <pt x="390" y="80" on="1"/>
        <pt x="368" y="37" on="0"/>
        <pt x="313" y="16" on="1"/>
        <pt x="263" y="-9" on="0"/>
        <pt x="166" y="-9" on="0"/>
        <pt x="126" y="0" on="1"/>
        <pt x="87" y="11" on="0"/>
        <pt x="60" y="43" on="1"/>
        <pt x="3" y="112" on="0"/>
        <pt x="3" y="260" on="1"/>
        <pt x="3" y="274" on="0"/>
        <pt x="4" y="288" on="1"/>
        <pt x="32" y="295" on="0"/>
        <pt x="109" y="295" on="0"/>
      </contour>
    </TTGlyph>
    <TTGlyph name="K" xMin="38" yMin="-2" xMax="463" yMax="700">
      <contour>
        <pt x="463" y="4" on="1"/>
        <pt x="440" y="-1" on="0"/>
        <pt x="405" y="-1" on="1"/>
        <pt x="324" y="2" on="1"/>
        <pt x="291" y="40" on="0"/>
        <pt x="194" y="248" on="0"/>
        <pt x="186" y="263" on="1"/>
        <pt x="185" y="243" on="0"/>
        <pt x="185" y="214" on="1"/>
        <pt x="189" y="5" on="1"/>
        <pt x="162" y="-2" on="0"/>
        <pt x="140" y="-2" on="1"/>
        <pt x="73" y="-2" on="0"/>
        <pt x="43" y="5" on="1"/>
        <pt x="38" y="39" on="0"/>
        <pt x="38" y="162" on="1"/>
        <pt x="45" y="699" on="1"/>
        <pt x="55" y="699" on="0"/>
        <pt x="68" y="699" on="1"/>
        <pt x="179" y="697" on="1"/>
        <pt x="180" y="659" on="0"/>
        <pt x="180" y="495" on="0"/>
        <pt x="181" y="457" on="1"/>
        <pt x="181" y="458" on="0"/>
        <pt x="215" y="501" on="0"/>
        <pt x="300" y="661" on="0"/>
        <pt x="326" y="698" on="1"/>
        <pt x="334" y="698" on="0"/>
        <pt x="351" y="698" on="1"/>
        <pt x="413" y="698" on="1"/>
        <pt x="449" y="698" on="0"/>
        <pt x="462" y="695" on="1"/>
        <pt x="444" y="632" on="0"/>
        <pt x="310" y="402" on="0"/>
        <pt x="292" y="359" on="1"/>
      </contour>
    </TTGlyph>
    <TTGlyph name="L" xMin="36" yMin="-3" xMax="460" yMax="712">
      <contour>
        <pt x="457" y="101" on="1"/>
        <pt x="460" y="33" on="1"/>
        <pt x="460" y="20" on="0"/>
        <pt x="453" y="2" on="0"/>
        <pt x="446" y="0" on="0"/>
        <pt x="439" y="0" on="1"/>
        <pt x="439" y="0" on="0"/>
        <pt x="431" y="0" on="1"/>
        <pt x="426" y="0" on="0"/>
        <pt x="416" y="0" on="1"/>
        <pt x="214" y="-3" on="1"/>
        <pt x="143" y="-3" on="0"/>
        <pt x="36" y="-1" on="1"/>
        <pt x="36" y="17" on="1"/>
        <pt x="44" y="324" on="0"/>
        <pt x="44" y="363" on="1"/>
        <pt x="39" y="703" on="1"/>
        <pt x="57" y="712" on="0"/>
        <pt x="171" y="712" on="0"/>
        <pt x="199" y="700" on="1"/>
        <pt x="197" y="657" on="0"/>
        <pt x="197" y="580" on="1"/>
        <pt x="200" y="213" on="1"/>
        <pt x="200" y="181" on="0"/>
        <pt x="200" y="159" on="1"/>
        <pt x="200" y="158" on="1"/>
        <pt x="206" y="160" on="0"/>
        <pt x="228" y="160" on="1"/>
        <pt x="446" y="152" on="1"/>
        <pt x="456" y="152" on="0"/>
        <pt x="459" y="152" on="1"/>
      </contour>
    </TTGlyph>
    <TTGlyph name="M" xMin="41" yMin="-2" xMax="462" yMax="697">
      <contour>
        <pt x="456" y="-1" on="1"/>
        <pt x="432" y="2" on="0"/>
        <pt x="397" y="2" on="1"/>
        <pt x="324" y="0" on="1"/>
        <pt x="323" y="18" on="0"/>
        <pt x="318" y="323" on="0"/>
        <pt x="310" y="389" on="1"/>
        <pt x="303" y="378" on="0"/>
        <pt x="290" y="340" on="1"/>
        <pt x="254" y="243" on="0"/>
        <pt x="240" y="243" on="0"/>
        <pt x="220" y="284" on="0"/>
        <pt x="209" y="314" on="0"/>
        <pt x="198" y="343" on="0"/>
        <pt x="190" y="368" on="0"/>
        <pt x="185" y="382" on="1"/>
        <pt x="180" y="319" on="0"/>
        <pt x="180" y="135" on="0"/>
        <pt x="188" y="3" on="1"/>
        <pt x="160" y="-2" on="0"/>
        <pt x="120" y="-2" on="1"/>
        <pt x="48" y="0" on="1"/>
        <pt x="46" y="0" on="0"/>
        <pt x="42" y="14" on="0"/>
        <pt x="42" y="385" on="0"/>
        <pt x="44" y="686" on="1"/>
        <pt x="48" y="692" on="0"/>
        <pt x="90" y="692" on="1"/>
        <pt x="163" y="691" on="1"/>
        <pt x="176" y="691" on="0"/>
        <pt x="180" y="691" on="1"/>
        <pt x="181" y="691" on="1"/>
        <pt x="195" y="676" on="0"/>
        <pt x="238" y="554" on="0"/>
        <pt x="247" y="540" on="1"/>
        <pt x="250" y="537" on="0"/>
        <pt x="255" y="536" on="0"/>
        <pt x="264" y="562" on="0"/>
        <pt x="276" y="602" on="0"/>
        <pt x="283" y="624" on="1"/>
        <pt x="301" y="679" on="0"/>
        <pt x="312" y="693" on="1"/>
        <pt x="320" y="692" on="0"/>
        <pt x="329" y="692" on="1"/>
        <pt x="460" y="697" on="1"/>
        <pt x="459" y="670" on="0"/>
        <pt x="459" y="630" on="1"/>
        <pt x="461" y="418" on="1"/>
        <pt x="461" y="355" on="0"/>
        <pt x="459" y="318" on="1"/>
      </contour>
    </TTGlyph>
    <TTGlyph name="N" xMin="39" yMin="-5" xMax="457" yMax="710">
      <contour>
        <pt x="456" y="100" on="1"/>
        <pt x="457" y="20" on="1"/>
        <pt x="457" y="0" on="1"/>
        <pt x="442" y="-5" on="0"/>
        <pt x="424" y="-5" on="1"/>
        <pt x="332" y="0" on="1"/>
        <pt x="240" y="198" on="0"/>
        <pt x="211" y="277" on="1"/>
        <pt x="201" y="307" on="1"/>
        <pt x="191" y="337" on="0"/>
        <pt x="188" y="337" on="1"/>
        <pt x="181" y="337" on="0"/>
        <pt x="181" y="23" on="0"/>
        <pt x="182" y="0" on="1"/>
        <pt x="163" y="-5" on="0"/>
        <pt x="138" y="-5" on="1"/>
        <pt x="42" y="1" on="1"/>
        <pt x="42" y="71" on="1"/>
        <pt x="39" y="432" on="1"/>
        <pt x="39" y="591" on="0"/>
        <pt x="48" y="700" on="1"/>
        <pt x="65" y="704" on="0"/>
        <pt x="112" y="704" on="0"/>
        <pt x="176" y="698" on="0"/>
        <pt x="176" y="694" on="1"/>
        <pt x="186" y="668" on="0"/>
        <pt x="217" y="608" on="0"/>
        <pt x="235" y="565" on="0"/>
        <pt x="310" y="415" on="0"/>
        <pt x="312" y="415" on="1"/>
        <pt x="319" y="420" on="0"/>
        <pt x="319" y="470" on="1"/>
        <pt x="316" y="615" on="1"/>
        <pt x="316" y="638" on="0"/>
        <pt x="318" y="704" on="1"/>
        <pt x="352" y="710" on="0"/>
        <pt x="428" y="710" on="0"/>
        <pt x="456" y="704" on="1"/>
        <pt x="456" y="382" on="1"/>
        <pt x="457" y="326" on="0"/>
        <pt x="457" y="211" on="1"/>
      </contour>
    </TTGlyph>
    <TTGlyph name="Ntilde" xMin="38" yMin="-8" xMax="476" yMax="920">
      <contour>
        <pt x="318" y="699" on="1"/>
        <pt x="358" y="706" on="0"/>
        <pt x="453" y="706" on="0"/>
        <pt x="474" y="702" on="1"/>
        <pt x="473" y="382" on="1"/>
        <pt x="474" y="326" on="0"/>
        <pt x="474" y="72" on="0"/>
        <pt x="476" y="17" on="1"/>
        <pt x="475" y="3" on="1"/>
        <pt x="471" y="-8" on="0"/>
        <pt x="434" y="-8" on="1"/>
        <pt x="355" y="-3" on="1"/>
        <pt x="340" y="-3" on="0"/>
        <pt x="328" y="-5" on="1"/>
        <pt x="327" y="-5" on="1"/>
        <pt x="288" y="80" on="0"/>
        <pt x="207" y="294" on="1"/>
        <pt x="200" y="197" on="0"/>
        <pt x="200" y="51" on="0"/>
        <pt x="202" y="-1" on="0"/>
        <pt x="201" y="-1" on="1"/>
        <pt x="192" y="-5" on="0"/>
        <pt x="169" y="-5" on="1"/>
        <pt x="65" y="2" on="1"/>
        <pt x="51" y="2" on="0"/>
        <pt x="42" y="0" on="0"/>
        <pt x="42" y="1" on="1"/>
        <pt x="42" y="24" on="0"/>
        <pt x="42" y="51" on="1"/>
        <pt x="39" y="408" on="1"/>
        <pt x="39" y="580" on="0"/>
        <pt x="48" y="695" on="1"/>
        <pt x="70" y="701" on="0"/>
        <pt x="148" y="701" on="0"/>
        <pt x="194" y="688" on="1"/>
        <pt x="194" y="687" on="1"/>
        <pt x="197" y="668" on="0"/>
        <pt x="307" y="489" on="0"/>
        <pt x="316" y="474" on="1"/>
        <pt x="319" y="487" on="0"/>
        <pt x="319" y="515" on="1"/>
        <pt x="315" y="638" on="1"/>
        <pt x="315" y="672" on="0"/>
        <pt x="318" y="696" on="1"/>
      </contour>
      <contour>
        <pt x="176" y="752" on="1"/>
        <pt x="159" y="756" on="0"/>
        <pt x="76" y="756" on="0"/>
        <pt x="59" y="755" on="1"/>
        <pt x="84" y="844" on="0"/>
        <pt x="119" y="884" on="1"/>
        <pt x="154" y="919" on="0"/>
        <pt x="200" y="919" on="1"/>
        <pt x="247" y="919" on="0"/>
        <pt x="279" y="878" on="1"/>
        <pt x="293" y="860" on="0"/>
        <pt x="301" y="855" on="1"/>
        <pt x="314" y="844" on="0"/>
        <pt x="337" y="844" on="0"/>
        <pt x="368" y="878" on="0"/>
        <pt x="378" y="908" on="1"/>
        <pt x="379" y="908" on="0"/>
        <pt x="460" y="911" on="1"/>
        <pt x="461" y="910" on="1"/>
        <pt x="461" y="909" on="0"/>
        <pt x="464" y="898" on="0"/>
        <pt x="464" y="886" on="1"/>
        <pt x="464" y="838" on="0"/>
        <pt x="426" y="782" on="1"/>
        <pt x="408" y="761" on="0"/>
        <pt x="370" y="747" on="0"/>
        <pt x="335" y="747" on="0"/>
        <pt x="316" y="752" on="1"/>
        <pt x="278" y="764" on="0"/>
        <pt x="265" y="798" on="1"/>
        <pt x="251" y="821" on="0"/>
        <pt x="226" y="821" on="1"/>
        <pt x="214" y="821" on="0"/>
        <pt x="191" y="812" on="1"/>
        <pt x="173" y="799" on="0"/>
        <pt x="173" y="774" on="1"/>
        <pt x="173" y="764" on="0"/>
        <pt x="176" y="753" on="1"/>
      </contour>
    </TTGlyph>
    <TTGlyph name="O" xMin="28" yMin="-15" xMax="456" yMax="701">
      <contour>
        <pt x="456" y="468" on="1"/>
        <pt x="453" y="330" on="1"/>
        <pt x="453" y="262" on="0"/>
        <pt x="450" y="226" on="1"/>
        <pt x="447" y="193" on="1"/>
        <pt x="442" y="111" on="0"/>
        <pt x="409" y="58" on="1"/>
        <pt x="379" y="17" on="0"/>
        <pt x="306" y="-3" on="1"/>
        <pt x="268" y="-14" on="0"/>
        <pt x="208" y="-14" on="0"/>
        <pt x="143" y="-9" on="0"/>
        <pt x="76" y="21" on="0"/>
        <pt x="60" y="57" on="1"/>
        <pt x="38" y="95" on="0"/>
        <pt x="36" y="168" on="1"/>
        <pt x="28" y="321" on="0"/>
        <pt x="28" y="354" on="1"/>
        <pt x="28" y="433" on="0"/>
        <pt x="31" y="482" on="1"/>
        <pt x="33" y="594" on="0"/>
        <pt x="84" y="653" on="1"/>
        <pt x="96" y="665" on="0"/>
        <pt x="107" y="671" on="1"/>
        <pt x="165" y="700" on="0"/>
        <pt x="238" y="700" on="1"/>
        <pt x="334" y="700" on="0"/>
        <pt x="396" y="653" on="1"/>
        <pt x="425" y="627" on="0"/>
        <pt x="437" y="592" on="1"/>
        <pt x="447" y="569" on="0"/>
        <pt x="456" y="503" on="0"/>
      </contour>
      <contour>
        <pt x="328" y="248" on="1"/>
        <pt x="330" y="300" on="1"/>
        <pt x="330" y="348" on="1"/>
        <pt x="328" y="416" on="1"/>
        <pt x="324" y="454" on="0"/>
        <pt x="324" y="473" on="1"/>
        <pt x="319" y="535" on="0"/>
        <pt x="272" y="558" on="1"/>
        <pt x="258" y="564" on="0"/>
        <pt x="245" y="564" on="1"/>
        <pt x="194" y="544" on="1"/>
        <pt x="159" y="516" on="0"/>
        <pt x="147" y="475" on="1"/>
        <pt x="137" y="426" on="0"/>
        <pt x="137" y="337" on="0"/>
        <pt x="138" y="319" on="1"/>
        <pt x="145" y="208" on="0"/>
        <pt x="157" y="170" on="1"/>
        <pt x="178" y="126" on="0"/>
        <pt x="237" y="126" on="1"/>
        <pt x="280" y="126" on="0"/>
        <pt x="308" y="157" on="1"/>
        <pt x="324" y="179" on="0"/>
        <pt x="326" y="198" on="0"/>
        <pt x="327" y="232" on="0"/>
      </contour>
    </TTGlyph>
    <TTGlyph name="OE" xMin="26" yMin="-14" xMax="814" yMax="701">
      <contour>
        <pt x="556" y="142" on="1"/>
        <pt x="812" y="137" on="1"/>
        <pt x="812" y="135" on="1"/>
        <pt x="814" y="110" on="0"/>
        <pt x="814" y="35" on="0"/>
        <pt x="803" y="3" on="1"/>
        <pt x="802" y="3" on="1"/>
        <pt x="775" y="2" on="0"/>
        <pt x="703" y="2" on="1"/>
        <pt x="594" y="3" on="1"/>
        <pt x="473" y="3" on="0"/>
        <pt x="435" y="-2" on="1"/>
        <pt x="402" y="-3" on="0"/>
        <pt x="348" y="-8" on="1"/>
        <pt x="287" y="-14" on="0"/>
        <pt x="237" y="-14" on="0"/>
        <pt x="185" y="-10" on="1"/>
        <pt x="80" y="1" on="0"/>
        <pt x="41" y="109" on="1"/>
        <pt x="28" y="167" on="0"/>
        <pt x="26" y="242" on="0"/>
        <pt x="26" y="311" on="0"/>
        <pt x="36" y="474" on="0"/>
        <pt x="37" y="504" on="1"/>
        <pt x="38" y="561" on="0"/>
        <pt x="93" y="656" on="0"/>
        <pt x="141" y="681" on="1"/>
        <pt x="174" y="700" on="0"/>
        <pt x="224" y="700" on="1"/>
        <pt x="303" y="697" on="1"/>
        <pt x="309" y="697" on="0"/>
        <pt x="413" y="695" on="0"/>
        <pt x="461" y="695" on="1"/>
        <pt x="554" y="695" on="0"/>
        <pt x="712" y="697" on="1"/>
        <pt x="811" y="698" on="1"/>
        <pt x="812" y="673" on="0"/>
        <pt x="812" y="592" on="0"/>
        <pt x="808" y="551" on="1"/>
        <pt x="768" y="544" on="0"/>
        <pt x="694" y="544" on="1"/>
        <pt x="653" y="544" on="1"/>
        <pt x="549" y="544" on="0"/>
        <pt x="542" y="537" on="1"/>
        <pt x="542" y="533" on="0"/>
        <pt x="542" y="527" on="1"/>
        <pt x="539" y="464" on="1"/>
        <pt x="539" y="437" on="0"/>
        <pt x="547" y="422" on="1"/>
        <pt x="565" y="420" on="0"/>
        <pt x="648" y="420" on="0"/>
        <pt x="669" y="417" on="1"/>
        <pt x="669" y="416" on="0"/>
        <pt x="672" y="414" on="0"/>
        <pt x="672" y="383" on="1"/>
        <pt x="670" y="274" on="1"/>
        <pt x="670" y="273" on="1"/>
        <pt x="669" y="273" on="1"/>
        <pt x="662" y="274" on="0"/>
        <pt x="637" y="274" on="1"/>
        <pt x="553" y="273" on="1"/>
        <pt x="552" y="273" on="1"/>
        <pt x="544" y="267" on="0"/>
        <pt x="544" y="159" on="0"/>
        <pt x="554" y="142" on="1"/>
      </contour>
      <contour>
        <pt x="159" y="361" on="1"/>
        <pt x="158" y="276" on="1"/>
        <pt x="158" y="175" on="0"/>
        <pt x="200" y="135" on="1"/>
        <pt x="216" y="122" on="0"/>
        <pt x="237" y="122" on="0"/>
        <pt x="262" y="126" on="0"/>
        <pt x="282" y="141" on="1"/>
        <pt x="306" y="162" on="0"/>
        <pt x="325" y="216" on="0"/>
        <pt x="332" y="258" on="1"/>
        <pt x="343" y="360" on="0"/>
        <pt x="343" y="400" on="1"/>
        <pt x="343" y="472" on="0"/>
        <pt x="334" y="498" on="1"/>
        <pt x="332" y="500" on="0"/>
        <pt x="329" y="510" on="0"/>
        <pt x="327" y="513" on="1"/>
        <pt x="301" y="564" on="0"/>
        <pt x="240" y="564" on="1"/>
        <pt x="212" y="564" on="0"/>
        <pt x="192" y="551" on="1"/>
        <pt x="166" y="530" on="0"/>
        <pt x="159" y="484" on="1"/>
        <pt x="157" y="466" on="0"/>
        <pt x="157" y="412" on="1"/>
        <pt x="159" y="392" on="0"/>
      </contour>
    </TTGlyph>
    <TTGlyph name="Oacute" xMin="29" yMin="-10" xMax="457" yMax="917">
      <contour>
        <pt x="457" y="473" on="1"/>
        <pt x="454" y="335" on="1"/>
        <pt x="454" y="267" on="0"/>
        <pt x="451" y="231" on="1"/>
        <pt x="448" y="198" on="1"/>
        <pt x="443" y="116" on="0"/>
        <pt x="410" y="63" on="1"/>
        <pt x="380" y="22" on="0"/>
        <pt x="307" y="2" on="1"/>
        <pt x="270" y="-9" on="0"/>
        <pt x="209" y="-9" on="0"/>
        <pt x="144" y="-4" on="0"/>
        <pt x="77" y="26" on="0"/>
        <pt x="61" y="62" on="1"/>
        <pt x="39" y="100" on="0"/>
        <pt x="37" y="173" on="1"/>
        <pt x="29" y="326" on="0"/>
        <pt x="29" y="358" on="1"/>
        <pt x="29" y="438" on="0"/>
        <pt x="32" y="487" on="1"/>
        <pt x="34" y="599" on="0"/>
        <pt x="85" y="658" on="1"/>
        <pt x="97" y="670" on="0"/>
        <pt x="108" y="676" on="1"/>
        <pt x="166" y="705" on="0"/>
        <pt x="239" y="705" on="1"/>
        <pt x="335" y="705" on="0"/>
        <pt x="397" y="658" on="1"/>
        <pt x="426" y="632" on="0"/>
        <pt x="438" y="597" on="1"/>
        <pt x="448" y="574" on="0"/>
        <pt x="457" y="508" on="0"/>
      </contour>
      <contour>
        <pt x="329" y="253" on="1"/>
        <pt x="331" y="305" on="1"/>
        <pt x="331" y="353" on="1"/>
        <pt x="329" y="421" on="1"/>
        <pt x="325" y="459" on="0"/>
        <pt x="325" y="478" on="1"/>
        <pt x="320" y="540" on="0"/>
        <pt x="273" y="563" on="1"/>
        <pt x="259" y="569" on="0"/>
        <pt x="246" y="569" on="1"/>
        <pt x="195" y="549" on="1"/>
        <pt x="160" y="521" on="0"/>
        <pt x="148" y="480" on="1"/>
        <pt x="138" y="431" on="0"/>
        <pt x="138" y="342" on="0"/>
        <pt x="139" y="324" on="1"/>
        <pt x="146" y="213" on="0"/>
        <pt x="158" y="175" on="1"/>
        <pt x="179" y="131" on="0"/>
        <pt x="238" y="131" on="1"/>
        <pt x="281" y="131" on="0"/>
        <pt x="309" y="162" on="1"/>
        <pt x="325" y="184" on="0"/>
        <pt x="327" y="203" on="0"/>
        <pt x="328" y="237" on="0"/>
      </contour>
      <contour>
        <pt x="300" y="750" on="1"/>
        <pt x="278" y="748" on="0"/>
        <pt x="258" y="748" on="1"/>
        <pt x="188" y="748" on="0"/>
        <pt x="166" y="754" on="1"/>
        <pt x="179" y="766" on="0"/>
        <pt x="306" y="896" on="0"/>
        <pt x="333" y="917" on="1"/>
        <pt x="402" y="847" on="1"/>
        <pt x="395" y="840" on="0"/>
        <pt x="370" y="819" on="1"/>
        <pt x="306" y="764" on="0"/>
      </contour>
    </TTGlyph>
    <TTGlyph name="Ocircumflex" xMin="28" yMin="-10" xMax="456" yMax="918">
      <contour>
        <pt x="410" y="756" on="1"/>
        <pt x="332" y="749" on="1"/>
        <pt x="315" y="749" on="0"/>
        <pt x="295" y="751" on="1"/>
        <pt x="289" y="751" on="0"/>
        <pt x="249" y="797" on="0"/>
        <pt x="244" y="800" on="1"/>
        <pt x="239" y="798" on="0"/>
        <pt x="197" y="753" on="0"/>
        <pt x="190" y="751" on="0"/>
        <pt x="165" y="751" on="0"/>
        <pt x="85" y="755" on="1"/>
        <pt x="117" y="797" on="0"/>
        <pt x="174" y="852" on="0"/>
        <pt x="235" y="907" on="0"/>
        <pt x="247" y="918" on="1"/>
      </contour>
      <contour>
        <pt x="456" y="473" on="1"/>
        <pt x="453" y="335" on="1"/>
        <pt x="453" y="267" on="0"/>
        <pt x="450" y="231" on="1"/>
        <pt x="447" y="198" on="1"/>
        <pt x="442" y="116" on="0"/>
        <pt x="409" y="63" on="1"/>
        <pt x="379" y="22" on="0"/>
        <pt x="306" y="2" on="1"/>
        <pt x="268" y="-9" on="0"/>
        <pt x="208" y="-9" on="0"/>
        <pt x="143" y="-4" on="0"/>
        <pt x="76" y="26" on="0"/>
        <pt x="60" y="62" on="1"/>
        <pt x="38" y="100" on="0"/>
        <pt x="36" y="173" on="1"/>
        <pt x="28" y="326" on="0"/>
        <pt x="28" y="358" on="1"/>
        <pt x="28" y="438" on="0"/>
        <pt x="31" y="487" on="1"/>
        <pt x="33" y="599" on="0"/>
        <pt x="84" y="658" on="1"/>
        <pt x="96" y="670" on="0"/>
        <pt x="107" y="676" on="1"/>
        <pt x="165" y="705" on="0"/>
        <pt x="238" y="705" on="1"/>
        <pt x="334" y="705" on="0"/>
        <pt x="396" y="658" on="1"/>
        <pt x="425" y="632" on="0"/>
        <pt x="437" y="597" on="1"/>
        <pt x="447" y="574" on="0"/>
        <pt x="456" y="508" on="0"/>
      </contour>
      <contour>
        <pt x="328" y="253" on="1"/>
        <pt x="330" y="305" on="1"/>
        <pt x="330" y="353" on="1"/>
        <pt x="328" y="421" on="1"/>
        <pt x="324" y="459" on="0"/>
        <pt x="324" y="478" on="1"/>
        <pt x="319" y="540" on="0"/>
        <pt x="272" y="563" on="1"/>
        <pt x="258" y="569" on="0"/>
        <pt x="245" y="569" on="1"/>
        <pt x="194" y="549" on="1"/>
        <pt x="159" y="521" on="0"/>
        <pt x="147" y="480" on="1"/>
        <pt x="137" y="431" on="0"/>
        <pt x="137" y="342" on="0"/>
        <pt x="138" y="324" on="1"/>
        <pt x="145" y="213" on="0"/>
        <pt x="157" y="175" on="1"/>
        <pt x="178" y="131" on="0"/>
        <pt x="237" y="131" on="1"/>
        <pt x="280" y="131" on="0"/>
        <pt x="308" y="162" on="1"/>
        <pt x="324" y="184" on="0"/>
        <pt x="326" y="203" on="0"/>
        <pt x="327" y="237" on="0"/>
      </contour>
    </TTGlyph>
    <TTGlyph name="Odieresis" xMin="28" yMin="-10" xMax="456" yMax="867">
      <contour>
        <pt x="456" y="473" on="1"/>
        <pt x="453" y="335" on="1"/>
        <pt x="453" y="267" on="0"/>
        <pt x="450" y="231" on="1"/>
        <pt x="447" y="198" on="1"/>
        <pt x="442" y="116" on="0"/>
        <pt x="409" y="63" on="1"/>
        <pt x="379" y="22" on="0"/>
        <pt x="306" y="2" on="1"/>
        <pt x="268" y="-9" on="0"/>
        <pt x="208" y="-9" on="0"/>
        <pt x="143" y="-4" on="0"/>
        <pt x="76" y="26" on="0"/>
        <pt x="60" y="62" on="1"/>
        <pt x="38" y="100" on="0"/>
        <pt x="36" y="173" on="1"/>
        <pt x="28" y="326" on="0"/>
        <pt x="28" y="358" on="1"/>
        <pt x="28" y="438" on="0"/>
        <pt x="31" y="487" on="1"/>
        <pt x="33" y="599" on="0"/>
        <pt x="84" y="658" on="1"/>
        <pt x="96" y="670" on="0"/>
        <pt x="107" y="676" on="1"/>
        <pt x="165" y="705" on="0"/>
        <pt x="238" y="705" on="1"/>
        <pt x="334" y="705" on="0"/>
        <pt x="396" y="658" on="1"/>
        <pt x="425" y="632" on="0"/>
        <pt x="437" y="597" on="1"/>
        <pt x="447" y="574" on="0"/>
        <pt x="456" y="508" on="0"/>
      </contour>
      <contour>
        <pt x="328" y="253" on="1"/>
        <pt x="330" y="305" on="1"/>
        <pt x="330" y="353" on="1"/>
        <pt x="328" y="421" on="1"/>
        <pt x="324" y="459" on="0"/>
        <pt x="324" y="478" on="1"/>
        <pt x="319" y="540" on="0"/>
        <pt x="272" y="563" on="1"/>
        <pt x="258" y="569" on="0"/>
        <pt x="245" y="569" on="1"/>
        <pt x="194" y="549" on="1"/>
        <pt x="159" y="521" on="0"/>
        <pt x="147" y="480" on="1"/>
        <pt x="137" y="431" on="0"/>
        <pt x="137" y="342" on="0"/>
        <pt x="138" y="324" on="1"/>
        <pt x="145" y="213" on="0"/>
        <pt x="157" y="175" on="1"/>
        <pt x="178" y="131" on="0"/>
        <pt x="237" y="131" on="1"/>
        <pt x="280" y="131" on="0"/>
        <pt x="308" y="162" on="1"/>
        <pt x="324" y="184" on="0"/>
        <pt x="326" y="203" on="0"/>
        <pt x="327" y="237" on="0"/>
      </contour>
      <contour>
        <pt x="106" y="759" on="1"/>
        <pt x="103" y="775" on="0"/>
        <pt x="103" y="805" on="1"/>
        <pt x="105" y="860" on="1"/>
        <pt x="126" y="867" on="0"/>
        <pt x="201" y="867" on="0"/>
        <pt x="214" y="861" on="1"/>
        <pt x="212" y="839" on="1"/>
        <pt x="208" y="773" on="0"/>
        <pt x="208" y="760" on="1"/>
        <pt x="208" y="758" on="1"/>
        <pt x="206" y="758" on="1"/>
        <pt x="109" y="759" on="1"/>
      </contour>
      <contour>
        <pt x="280" y="759" on="1"/>
        <pt x="277" y="775" on="0"/>
        <pt x="277" y="805" on="1"/>
        <pt x="279" y="860" on="1"/>
        <pt x="300" y="867" on="0"/>
        <pt x="375" y="867" on="0"/>
        <pt x="388" y="861" on="1"/>
        <pt x="386" y="839" on="1"/>
        <pt x="382" y="773" on="0"/>
        <pt x="382" y="760" on="1"/>
        <pt x="382" y="758" on="1"/>
        <pt x="380" y="758" on="1"/>
        <pt x="283" y="759" on="1"/>
      </contour>
    </TTGlyph>
    <TTGlyph name="Ograve" xMin="29" yMin="-10" xMax="457" yMax="917">
      <contour>
        <pt x="302" y="754" on="1"/>
        <pt x="278" y="748" on="0"/>
        <pt x="190" y="748" on="0"/>
        <pt x="168" y="750" on="1"/>
        <pt x="160" y="762" on="0"/>
        <pt x="73" y="840" on="0"/>
        <pt x="66" y="847" on="1"/>
        <pt x="135" y="917" on="1"/>
        <pt x="162" y="896" on="0"/>
        <pt x="289" y="766" on="0"/>
      </contour>
      <contour>
        <pt x="457" y="473" on="1"/>
        <pt x="454" y="335" on="1"/>
        <pt x="454" y="267" on="0"/>
        <pt x="451" y="231" on="1"/>
        <pt x="448" y="198" on="1"/>
        <pt x="443" y="116" on="0"/>
        <pt x="410" y="63" on="1"/>
        <pt x="380" y="22" on="0"/>
        <pt x="307" y="2" on="1"/>
        <pt x="270" y="-9" on="0"/>
        <pt x="209" y="-9" on="0"/>
        <pt x="144" y="-4" on="0"/>
        <pt x="77" y="26" on="0"/>
        <pt x="61" y="62" on="1"/>
        <pt x="39" y="100" on="0"/>
        <pt x="37" y="173" on="1"/>
        <pt x="29" y="326" on="0"/>
        <pt x="29" y="358" on="1"/>
        <pt x="29" y="438" on="0"/>
        <pt x="32" y="487" on="1"/>
        <pt x="34" y="599" on="0"/>
        <pt x="85" y="658" on="1"/>
        <pt x="97" y="670" on="0"/>
        <pt x="108" y="676" on="1"/>
        <pt x="166" y="705" on="0"/>
        <pt x="239" y="705" on="1"/>
        <pt x="335" y="705" on="0"/>
        <pt x="397" y="658" on="1"/>
        <pt x="426" y="632" on="0"/>
        <pt x="438" y="597" on="1"/>
        <pt x="448" y="574" on="0"/>
        <pt x="457" y="508" on="0"/>
      </contour>
      <contour>
        <pt x="329" y="253" on="1"/>
        <pt x="331" y="305" on="1"/>
        <pt x="331" y="353" on="1"/>
        <pt x="329" y="421" on="1"/>
        <pt x="325" y="459" on="0"/>
        <pt x="325" y="478" on="1"/>
        <pt x="320" y="540" on="0"/>
        <pt x="273" y="563" on="1"/>
        <pt x="259" y="569" on="0"/>
        <pt x="246" y="569" on="1"/>
        <pt x="195" y="549" on="1"/>
        <pt x="160" y="521" on="0"/>
        <pt x="148" y="480" on="1"/>
        <pt x="138" y="431" on="0"/>
        <pt x="138" y="342" on="0"/>
        <pt x="139" y="324" on="1"/>
        <pt x="146" y="213" on="0"/>
        <pt x="158" y="175" on="1"/>
        <pt x="179" y="131" on="0"/>
        <pt x="238" y="131" on="1"/>
        <pt x="281" y="131" on="0"/>
        <pt x="309" y="162" on="1"/>
        <pt x="325" y="184" on="0"/>
        <pt x="327" y="203" on="0"/>
        <pt x="328" y="237" on="0"/>
      </contour>
    </TTGlyph>
    <TTGlyph name="Oslash" xMin="29" yMin="-21" xMax="453" yMax="724">
      <contour>
        <pt x="378" y="724" on="1"/>
        <pt x="413" y="724" on="0"/>
        <pt x="424" y="716" on="1"/>
        <pt x="424" y="703" on="0"/>
        <pt x="404" y="657" on="0"/>
        <pt x="406" y="645" on="1"/>
        <pt x="440" y="606" on="0"/>
        <pt x="453" y="523" on="0"/>
        <pt x="453" y="461" on="0"/>
        <pt x="451" y="422" on="0"/>
        <pt x="451" y="328" on="0"/>
        <pt x="449" y="290" on="0"/>
        <pt x="448" y="254" on="1"/>
        <pt x="445" y="195" on="0"/>
        <pt x="434" y="131" on="1"/>
        <pt x="422" y="77" on="0"/>
        <pt x="345" y="8" on="0"/>
        <pt x="290" y="3" on="1"/>
        <pt x="272" y="1" on="0"/>
        <pt x="196" y="0" on="0"/>
        <pt x="180" y="-2" on="1"/>
        <pt x="178" y="-2" on="1"/>
        <pt x="178" y="-8" on="0"/>
        <pt x="165" y="-17" on="1"/>
        <pt x="164" y="-18" on="1"/>
        <pt x="152" y="-20" on="0"/>
        <pt x="117" y="-21" on="1"/>
        <pt x="76" y="-20" on="1"/>
        <pt x="50" y="-20" on="0"/>
        <pt x="33" y="-21" on="1"/>
        <pt x="29" y="-15" on="0"/>
        <pt x="59" y="67" on="1"/>
        <pt x="59" y="68" on="0"/>
        <pt x="60" y="68" on="0"/>
        <pt x="60" y="70" on="0"/>
        <pt x="59" y="70" on="0"/>
        <pt x="59" y="71" on="1"/>
        <pt x="29" y="189" on="0"/>
        <pt x="29" y="348" on="1"/>
        <pt x="29" y="404" on="0"/>
        <pt x="34" y="477" on="0"/>
        <pt x="36" y="510" on="1"/>
        <pt x="38" y="576" on="0"/>
        <pt x="72" y="645" on="0"/>
        <pt x="98" y="671" on="1"/>
        <pt x="140" y="703" on="0"/>
        <pt x="228" y="703" on="1"/>
        <pt x="251" y="703" on="0"/>
        <pt x="278" y="701" on="1"/>
        <pt x="280" y="702" on="0"/>
        <pt x="282" y="723" on="0"/>
        <pt x="288" y="723" on="1"/>
        <pt x="289" y="723" on="1"/>
        <pt x="303" y="721" on="0"/>
        <pt x="318" y="721" on="1"/>
      </contour>
      <contour>
        <pt x="141" y="279" on="1"/>
        <pt x="234" y="562" on="1"/>
        <pt x="234" y="563" on="1"/>
        <pt x="226" y="563" on="1"/>
        <pt x="206" y="561" on="0"/>
        <pt x="166" y="530" on="0"/>
        <pt x="158" y="510" on="1"/>
        <pt x="154" y="489" on="0"/>
        <pt x="149" y="405" on="0"/>
        <pt x="146" y="383" on="1"/>
        <pt x="143" y="360" on="1"/>
        <pt x="138" y="325" on="0"/>
        <pt x="138" y="287" on="0"/>
      </contour>
      <contour>
        <pt x="322" y="391" on="1"/>
        <pt x="322" y="395" on="1"/>
        <pt x="311" y="365" on="0"/>
        <pt x="229" y="131" on="1"/>
        <pt x="230" y="131" on="0"/>
        <pt x="230" y="130" on="0"/>
        <pt x="258" y="135" on="0"/>
        <pt x="311" y="164" on="0"/>
        <pt x="318" y="187" on="1"/>
        <pt x="328" y="231" on="0"/>
        <pt x="328" y="313" on="0"/>
        <pt x="322" y="381" on="0"/>
      </contour>
    </TTGlyph>
    <TTGlyph name="Otilde" xMin="28" yMin="-10" xMax="456" yMax="911">
      <contour>
        <pt x="456" y="473" on="1"/>
        <pt x="453" y="335" on="1"/>
        <pt x="453" y="267" on="0"/>
        <pt x="450" y="231" on="1"/>
        <pt x="447" y="198" on="1"/>
        <pt x="442" y="116" on="0"/>
        <pt x="409" y="63" on="1"/>
        <pt x="379" y="22" on="0"/>
        <pt x="306" y="2" on="1"/>
        <pt x="268" y="-9" on="0"/>
        <pt x="208" y="-9" on="0"/>
        <pt x="143" y="-4" on="0"/>
        <pt x="76" y="26" on="0"/>
        <pt x="60" y="62" on="1"/>
        <pt x="38" y="100" on="0"/>
        <pt x="36" y="173" on="1"/>
        <pt x="28" y="326" on="0"/>
        <pt x="28" y="358" on="1"/>
        <pt x="28" y="438" on="0"/>
        <pt x="31" y="487" on="1"/>
        <pt x="33" y="599" on="0"/>
        <pt x="84" y="658" on="1"/>
        <pt x="96" y="670" on="0"/>
        <pt x="107" y="676" on="1"/>
        <pt x="165" y="705" on="0"/>
        <pt x="238" y="705" on="1"/>
        <pt x="334" y="705" on="0"/>
        <pt x="396" y="658" on="1"/>
        <pt x="425" y="632" on="0"/>
        <pt x="437" y="597" on="1"/>
        <pt x="447" y="574" on="0"/>
        <pt x="456" y="508" on="0"/>
      </contour>
      <contour>
        <pt x="328" y="253" on="1"/>
        <pt x="330" y="305" on="1"/>
        <pt x="330" y="353" on="1"/>
        <pt x="328" y="421" on="1"/>
        <pt x="324" y="459" on="0"/>
        <pt x="324" y="478" on="1"/>
        <pt x="319" y="540" on="0"/>
        <pt x="272" y="563" on="1"/>
        <pt x="258" y="569" on="0"/>
        <pt x="245" y="569" on="1"/>
        <pt x="194" y="549" on="1"/>
        <pt x="159" y="521" on="0"/>
        <pt x="147" y="480" on="1"/>
        <pt x="137" y="431" on="0"/>
        <pt x="137" y="342" on="0"/>
        <pt x="138" y="324" on="1"/>
        <pt x="145" y="213" on="0"/>
        <pt x="157" y="175" on="1"/>
        <pt x="178" y="131" on="0"/>
        <pt x="237" y="131" on="1"/>
        <pt x="280" y="131" on="0"/>
        <pt x="308" y="162" on="1"/>
        <pt x="324" y="184" on="0"/>
        <pt x="326" y="203" on="0"/>
        <pt x="327" y="237" on="0"/>
      </contour>
      <contour>
        <pt x="156" y="743" on="1"/>
        <pt x="139" y="747" on="0"/>
        <pt x="56" y="747" on="0"/>
        <pt x="39" y="746" on="1"/>
        <pt x="64" y="835" on="0"/>
        <pt x="99" y="875" on="1"/>
        <pt x="134" y="910" on="0"/>
        <pt x="180" y="910" on="1"/>
        <pt x="227" y="910" on="0"/>
        <pt x="259" y="869" on="1"/>
        <pt x="273" y="851" on="0"/>
        <pt x="281" y="846" on="1"/>
        <pt x="294" y="835" on="0"/>
        <pt x="317" y="835" on="0"/>
        <pt x="348" y="869" on="0"/>
        <pt x="358" y="899" on="1"/>
        <pt x="359" y="899" on="0"/>
        <pt x="440" y="902" on="1"/>
        <pt x="441" y="901" on="1"/>
        <pt x="441" y="900" on="0"/>
        <pt x="444" y="889" on="0"/>
        <pt x="444" y="877" on="1"/>
        <pt x="444" y="829" on="0"/>
        <pt x="406" y="773" on="1"/>
        <pt x="388" y="752" on="0"/>
        <pt x="350" y="738" on="0"/>
        <pt x="315" y="738" on="0"/>
        <pt x="296" y="744" on="1"/>
        <pt x="258" y="755" on="0"/>
        <pt x="245" y="789" on="1"/>
        <pt x="231" y="812" on="0"/>
        <pt x="206" y="812" on="1"/>
        <pt x="194" y="812" on="0"/>
        <pt x="171" y="803" on="1"/>
        <pt x="153" y="790" on="0"/>
        <pt x="153" y="764" on="1"/>
        <pt x="153" y="754" on="0"/>
        <pt x="156" y="744" on="1"/>
      </contour>
    </TTGlyph>
    <TTGlyph name="P" xMin="37" yMin="2" xMax="484" yMax="713">
      <contour>
        <pt x="40" y="289" on="1"/>
        <pt x="41" y="391" on="1"/>
        <pt x="41" y="590" on="0"/>
        <pt x="37" y="695" on="1"/>
        <pt x="103" y="713" on="0"/>
        <pt x="248" y="713" on="0"/>
        <pt x="386" y="677" on="0"/>
        <pt x="480" y="572" on="0"/>
        <pt x="484" y="491" on="1"/>
        <pt x="484" y="490" on="1"/>
        <pt x="484" y="379" on="0"/>
        <pt x="388" y="308" on="1"/>
        <pt x="322" y="260" on="0"/>
        <pt x="249" y="260" on="1"/>
        <pt x="230" y="260" on="0"/>
        <pt x="210" y="263" on="1"/>
        <pt x="211" y="248" on="0"/>
        <pt x="211" y="135" on="0"/>
        <pt x="214" y="12" on="1"/>
        <pt x="214" y="11" on="1"/>
        <pt x="212" y="10" on="0"/>
        <pt x="211" y="10" on="1"/>
        <pt x="183" y="2" on="0"/>
        <pt x="72" y="2" on="0"/>
        <pt x="44" y="6" on="1"/>
        <pt x="40" y="92" on="0"/>
      </contour>
      <contour>
        <pt x="184" y="483" on="1"/>
        <pt x="184" y="430" on="0"/>
        <pt x="192" y="405" on="1"/>
        <pt x="195" y="405" on="1"/>
        <pt x="265" y="405" on="0"/>
        <pt x="316" y="423" on="0"/>
        <pt x="327" y="434" on="1"/>
        <pt x="340" y="451" on="0"/>
        <pt x="340" y="466" on="1"/>
        <pt x="340" y="515" on="0"/>
        <pt x="309" y="533" on="1"/>
        <pt x="274" y="561" on="0"/>
        <pt x="228" y="561" on="1"/>
        <pt x="208" y="561" on="0"/>
        <pt x="184" y="556" on="0"/>
        <pt x="183" y="555" on="1"/>
        <pt x="184" y="537" on="0"/>
        <pt x="184" y="520" on="1"/>
      </contour>
    </TTGlyph>
    <TTGlyph name="Q" xMin="30" yMin="-8" xMax="468" yMax="714">
      <contour>
        <pt x="428" y="78" on="1"/>
        <pt x="447" y="55" on="0"/>
        <pt x="447" y="39" on="0"/>
        <pt x="438" y="24" on="0"/>
        <pt x="430" y="18" on="0"/>
        <pt x="420" y="10" on="1"/>
        <pt x="392" y="-8" on="0"/>
        <pt x="382" y="-8" on="1"/>
        <pt x="362" y="-8" on="0"/>
        <pt x="340" y="24" on="1"/>
        <pt x="328" y="10" on="0"/>
        <pt x="268" y="-6" on="0"/>
        <pt x="252" y="-6" on="1"/>
        <pt x="153" y="-6" on="0"/>
        <pt x="90" y="54" on="1"/>
        <pt x="68" y="74" on="0"/>
        <pt x="49" y="115" on="0"/>
        <pt x="40" y="136" on="0"/>
        <pt x="35" y="172" on="0"/>
        <pt x="31" y="191" on="0"/>
        <pt x="30" y="234" on="0"/>
        <pt x="30" y="242" on="1"/>
        <pt x="30" y="409" on="1"/>
        <pt x="30" y="534" on="0"/>
        <pt x="52" y="618" on="1"/>
        <pt x="66" y="660" on="0"/>
        <pt x="177" y="714" on="0"/>
        <pt x="332" y="714" on="0"/>
        <pt x="408" y="676" on="0"/>
        <pt x="439" y="602" on="1"/>
        <pt x="468" y="511" on="0"/>
        <pt x="468" y="368" on="1"/>
        <pt x="468" y="304" on="0"/>
        <pt x="464" y="253" on="0"/>
        <pt x="464" y="232" on="1"/>
        <pt x="462" y="187" on="0"/>
        <pt x="456" y="165" on="1"/>
        <pt x="454" y="147" on="0"/>
        <pt x="446" y="119" on="0"/>
      </contour>
      <contour>
        <pt x="153" y="343" on="1"/>
        <pt x="152" y="257" on="1"/>
        <pt x="152" y="196" on="0"/>
        <pt x="161" y="171" on="1"/>
        <pt x="182" y="115" on="0"/>
        <pt x="251" y="115" on="1"/>
        <pt x="262" y="115" on="0"/>
        <pt x="269" y="116" on="1"/>
        <pt x="247" y="139" on="1"/>
        <pt x="226" y="164" on="0"/>
        <pt x="226" y="188" on="0"/>
        <pt x="234" y="197" on="0"/>
        <pt x="255" y="208" on="0"/>
        <pt x="262" y="213" on="0"/>
        <pt x="275" y="225" on="0"/>
        <pt x="287" y="232" on="0"/>
        <pt x="301" y="232" on="0"/>
        <pt x="314" y="215" on="0"/>
        <pt x="327" y="189" on="0"/>
        <pt x="334" y="182" on="1"/>
        <pt x="336" y="188" on="0"/>
        <pt x="340" y="239" on="0"/>
        <pt x="343" y="255" on="0"/>
        <pt x="343" y="417" on="0"/>
        <pt x="333" y="523" on="0"/>
        <pt x="294" y="565" on="0"/>
        <pt x="193" y="565" on="0"/>
        <pt x="178" y="552" on="1"/>
        <pt x="153" y="529" on="0"/>
      </contour>
    </TTGlyph>
    <TTGlyph name="R" xMin="33" yMin="-1" xMax="516" yMax="717">
      <contour>
        <pt x="516" y="3" on="1"/>
        <pt x="386" y="-1" on="1"/>
        <pt x="361" y="-1" on="0"/>
        <pt x="351" y="1" on="1"/>
        <pt x="350" y="1" on="1"/>
        <pt x="278" y="169" on="0"/>
        <pt x="211" y="252" on="1"/>
        <pt x="209" y="255" on="1"/>
        <pt x="207" y="238" on="0"/>
        <pt x="207" y="137" on="0"/>
        <pt x="214" y="11" on="1"/>
        <pt x="186" y="0" on="0"/>
        <pt x="103" y="0" on="1"/>
        <pt x="52" y="0" on="1"/>
        <pt x="42" y="0" on="0"/>
        <pt x="40" y="0" on="1"/>
        <pt x="44" y="0" on="0"/>
        <pt x="44" y="631" on="0"/>
        <pt x="33" y="699" on="1"/>
        <pt x="150" y="716" on="0"/>
        <pt x="267" y="716" on="0"/>
        <pt x="296" y="713" on="1"/>
        <pt x="354" y="710" on="0"/>
        <pt x="402" y="679" on="1"/>
        <pt x="495" y="619" on="0"/>
        <pt x="502" y="500" on="1"/>
        <pt x="503" y="495" on="0"/>
        <pt x="503" y="490" on="1"/>
        <pt x="503" y="440" on="0"/>
        <pt x="473" y="393" on="1"/>
        <pt x="431" y="311" on="0"/>
        <pt x="343" y="306" on="1"/>
        <pt x="338" y="306" on="1"/>
        <pt x="338" y="305" on="1"/>
        <pt x="348" y="287" on="0"/>
        <pt x="492" y="68" on="0"/>
      </contour>
      <contour>
        <pt x="216" y="433" on="0"/>
        <pt x="266" y="433" on="0"/>
        <pt x="286" y="436" on="1"/>
        <pt x="329" y="445" on="0"/>
        <pt x="329" y="502" on="1"/>
        <pt x="329" y="538" on="0"/>
        <pt x="304" y="556" on="1"/>
        <pt x="283" y="575" on="0"/>
        <pt x="220" y="575" on="0"/>
        <pt x="179" y="559" on="1"/>
        <pt x="180" y="545" on="0"/>
        <pt x="181" y="453" on="0"/>
        <pt x="184" y="436" on="1"/>
        <pt x="185" y="436" on="1"/>
      </contour>
    </TTGlyph>
    <TTGlyph name="S" xMin="11" yMin="-6" xMax="469" yMax="700">
      <contour>
        <pt x="55" y="210" on="1"/>
        <pt x="165" y="207" on="1"/>
        <pt x="168" y="163" on="0"/>
        <pt x="212" y="148" on="1"/>
        <pt x="227" y="142" on="0"/>
        <pt x="265" y="142" on="0"/>
        <pt x="301" y="173" on="0"/>
        <pt x="301" y="199" on="1"/>
        <pt x="301" y="232" on="0"/>
        <pt x="285" y="248" on="1"/>
        <pt x="265" y="268" on="0"/>
        <pt x="231" y="281" on="0"/>
        <pt x="203" y="288" on="0"/>
        <pt x="198" y="289" on="1"/>
        <pt x="161" y="296" on="0"/>
        <pt x="157" y="297" on="1"/>
        <pt x="122" y="304" on="0"/>
        <pt x="89" y="331" on="1"/>
        <pt x="22" y="395" on="0"/>
        <pt x="22" y="485" on="1"/>
        <pt x="22" y="558" on="0"/>
        <pt x="74" y="622" on="1"/>
        <pt x="108" y="663" on="0"/>
        <pt x="155" y="683" on="1"/>
        <pt x="198" y="699" on="0"/>
        <pt x="248" y="699" on="1"/>
        <pt x="318" y="699" on="0"/>
        <pt x="377" y="672" on="1"/>
        <pt x="428" y="646" on="0"/>
        <pt x="452" y="596" on="1"/>
        <pt x="468" y="563" on="0"/>
        <pt x="468" y="500" on="0"/>
        <pt x="463" y="474" on="1"/>
        <pt x="462" y="474" on="1"/>
        <pt x="418" y="467" on="0"/>
        <pt x="342" y="467" on="0"/>
        <pt x="312" y="475" on="1"/>
        <pt x="314" y="482" on="0"/>
        <pt x="314" y="489" on="1"/>
        <pt x="314" y="513" on="0"/>
        <pt x="269" y="545" on="0"/>
        <pt x="253" y="545" on="1"/>
        <pt x="180" y="545" on="0"/>
        <pt x="187" y="473" on="1"/>
        <pt x="199" y="438" on="0"/>
        <pt x="252" y="430" on="1"/>
        <pt x="305" y="424" on="0"/>
        <pt x="395" y="368" on="0"/>
        <pt x="425" y="325" on="1"/>
        <pt x="463" y="276" on="0"/>
        <pt x="463" y="154" on="0"/>
        <pt x="441" y="110" on="1"/>
        <pt x="418" y="51" on="0"/>
        <pt x="316" y="-5" on="0"/>
        <pt x="256" y="-5" on="1"/>
        <pt x="193" y="-5" on="0"/>
        <pt x="79" y="44" on="0"/>
        <pt x="12" y="135" on="0"/>
        <pt x="12" y="188" on="1"/>
        <pt x="12" y="194" on="0"/>
        <pt x="12" y="200" on="1"/>
        <pt x="12" y="206" on="1"/>
        <pt x="18" y="210" on="0"/>
      </contour>
    </TTGlyph>
    <TTGlyph name="Scaron" xMin="-36" yMin="-6" xMax="422" yMax="918">
      <contour>
        <pt x="87" y="911" on="1"/>
        <pt x="167" y="915" on="0"/>
        <pt x="192" y="915" on="0"/>
        <pt x="199" y="913" on="0"/>
        <pt x="241" y="868" on="0"/>
        <pt x="246" y="866" on="1"/>
        <pt x="251" y="869" on="0"/>
        <pt x="291" y="915" on="0"/>
        <pt x="297" y="915" on="1"/>
        <pt x="317" y="917" on="0"/>
        <pt x="345" y="917" on="0"/>
        <pt x="379" y="914" on="0"/>
        <pt x="411" y="909" on="0"/>
        <pt x="412" y="910" on="1"/>
        <pt x="249" y="748" on="1"/>
        <pt x="237" y="759" on="0"/>
        <pt x="176" y="814" on="0"/>
        <pt x="161" y="828" on="1"/>
        <pt x="119" y="869" on="0"/>
      </contour>
      <contour>
        <pt x="-35" y="206" on="1"/>
        <pt x="-29" y="210" on="0"/>
        <pt x="8" y="210" on="1"/>
        <pt x="118" y="207" on="1"/>
        <pt x="120" y="176" on="0"/>
        <pt x="167" y="142" on="0"/>
        <pt x="204" y="142" on="0"/>
        <pt x="218" y="148" on="1"/>
        <pt x="254" y="161" on="0"/>
        <pt x="254" y="232" on="0"/>
        <pt x="238" y="248" on="1"/>
        <pt x="231" y="255" on="0"/>
        <pt x="219" y="266" on="0"/>
        <pt x="197" y="276" on="0"/>
        <pt x="184" y="281" on="0"/>
        <pt x="156" y="288" on="0"/>
        <pt x="114" y="296" on="0"/>
        <pt x="110" y="297" on="1"/>
        <pt x="75" y="304" on="0"/>
        <pt x="42" y="331" on="1"/>
        <pt x="-25" y="395" on="0"/>
        <pt x="-25" y="485" on="1"/>
        <pt x="-25" y="558" on="0"/>
        <pt x="27" y="622" on="1"/>
        <pt x="61" y="663" on="0"/>
        <pt x="108" y="683" on="1"/>
        <pt x="151" y="699" on="0"/>
        <pt x="271" y="699" on="0"/>
        <pt x="330" y="672" on="1"/>
        <pt x="381" y="646" on="0"/>
        <pt x="406" y="596" on="1"/>
        <pt x="421" y="563" on="0"/>
        <pt x="421" y="500" on="0"/>
        <pt x="416" y="474" on="1"/>
        <pt x="415" y="474" on="1"/>
        <pt x="371" y="467" on="0"/>
        <pt x="295" y="467" on="0"/>
        <pt x="265" y="475" on="1"/>
        <pt x="267" y="482" on="0"/>
        <pt x="267" y="489" on="1"/>
        <pt x="267" y="513" on="0"/>
        <pt x="222" y="545" on="0"/>
        <pt x="189" y="545" on="0"/>
        <pt x="180" y="543" on="1"/>
        <pt x="134" y="532" on="0"/>
        <pt x="140" y="473" on="1"/>
        <pt x="152" y="438" on="0"/>
        <pt x="205" y="430" on="1"/>
        <pt x="258" y="424" on="0"/>
        <pt x="348" y="368" on="0"/>
        <pt x="378" y="325" on="1"/>
        <pt x="416" y="276" on="0"/>
        <pt x="416" y="206" on="1"/>
        <pt x="416" y="154" on="0"/>
        <pt x="394" y="110" on="1"/>
        <pt x="371" y="51" on="0"/>
        <pt x="269" y="-5" on="0"/>
        <pt x="146" y="-5" on="0"/>
        <pt x="86" y="20" on="1"/>
        <pt x="32" y="44" on="0"/>
        <pt x="-35" y="135" on="0"/>
        <pt x="-35" y="188" on="1"/>
        <pt x="-35" y="194" on="0"/>
        <pt x="-35" y="200" on="1"/>
      </contour>
    </TTGlyph>
    <TTGlyph name="T" xMin="9" yMin="-1" xMax="435" yMax="706">
      <contour>
        <pt x="143" y="9" on="1"/>
        <pt x="144" y="144" on="1"/>
        <pt x="144" y="336" on="0"/>
        <pt x="136" y="532" on="1"/>
        <pt x="135" y="533" on="1"/>
        <pt x="117" y="542" on="0"/>
        <pt x="18" y="544" on="0"/>
        <pt x="15" y="545" on="1"/>
        <pt x="9" y="557" on="0"/>
        <pt x="9" y="670" on="0"/>
        <pt x="11" y="702" on="1"/>
        <pt x="10" y="704" on="1"/>
        <pt x="80" y="706" on="0"/>
        <pt x="196" y="706" on="0"/>
        <pt x="344" y="705" on="0"/>
        <pt x="432" y="695" on="1"/>
        <pt x="434" y="662" on="0"/>
        <pt x="434" y="582" on="0"/>
        <pt x="428" y="540" on="1"/>
        <pt x="416" y="542" on="0"/>
        <pt x="356" y="542" on="0"/>
        <pt x="306" y="540" on="1"/>
        <pt x="303" y="540" on="1"/>
        <pt x="301" y="536" on="0"/>
        <pt x="301" y="360" on="0"/>
        <pt x="307" y="8" on="1"/>
        <pt x="307" y="6" on="1"/>
        <pt x="285" y="2" on="0"/>
        <pt x="237" y="2" on="1"/>
        <pt x="212" y="3" on="1"/>
        <pt x="164" y="3" on="0"/>
        <pt x="143" y="-1" on="1"/>
        <pt x="143" y="0" on="0"/>
      </contour>
    </TTGlyph>
    <TTGlyph name="Thorn" xMin="37" yMin="-5" xMax="458" yMax="730">
      <contour>
        <pt x="44" y="242" on="1"/>
        <pt x="41" y="551" on="1"/>
        <pt x="41" y="656" on="0"/>
        <pt x="44" y="730" on="1"/>
        <pt x="180" y="727" on="1"/>
        <pt x="180" y="707" on="0"/>
        <pt x="182" y="652" on="0"/>
        <pt x="182" y="586" on="1"/>
        <pt x="191" y="608" on="0"/>
        <pt x="228" y="629" on="0"/>
        <pt x="259" y="632" on="0"/>
        <pt x="290" y="632" on="1"/>
        <pt x="361" y="630" on="0"/>
        <pt x="458" y="500" on="0"/>
        <pt x="458" y="401" on="1"/>
        <pt x="458" y="263" on="0"/>
        <pt x="394" y="179" on="1"/>
        <pt x="359" y="133" on="0"/>
        <pt x="311" y="133" on="1"/>
        <pt x="278" y="133" on="0"/>
        <pt x="207" y="163" on="0"/>
        <pt x="183" y="187" on="1"/>
        <pt x="183" y="92" on="0"/>
        <pt x="180" y="42" on="0"/>
        <pt x="180" y="30" on="1"/>
        <pt x="179" y="15" on="0"/>
        <pt x="181" y="4" on="1"/>
        <pt x="174" y="-4" on="0"/>
        <pt x="122" y="-4" on="1"/>
        <pt x="61" y="-4" on="1"/>
        <pt x="42" y="-4" on="0"/>
        <pt x="37" y="-4" on="1"/>
        <pt x="44" y="102" on="0"/>
      </contour>
      <contour>
        <pt x="275" y="498" on="0"/>
        <pt x="197" y="498" on="0"/>
        <pt x="184" y="468" on="0"/>
        <pt x="184" y="390" on="0"/>
        <pt x="184" y="356" on="0"/>
        <pt x="185" y="332" on="0"/>
        <pt x="191" y="298" on="0"/>
        <pt x="198" y="291" on="1"/>
        <pt x="214" y="273" on="0"/>
        <pt x="287" y="273" on="0"/>
        <pt x="335" y="335" on="0"/>
        <pt x="335" y="414" on="0"/>
        <pt x="323" y="461" on="0"/>
      </contour>
    </TTGlyph>
    <TTGlyph name="U" xMin="37" yMin="-16" xMax="474" yMax="682">
      <contour>
        <pt x="323" y="672" on="1"/>
        <pt x="410" y="679" on="1"/>
        <pt x="453" y="679" on="0"/>
        <pt x="469" y="669" on="1"/>
        <pt x="473" y="570" on="0"/>
        <pt x="473" y="302" on="0"/>
        <pt x="457" y="151" on="1"/>
        <pt x="448" y="83" on="0"/>
        <pt x="406" y="38" on="1"/>
        <pt x="355" y="-16" on="0"/>
        <pt x="259" y="-16" on="1"/>
        <pt x="146" y="-16" on="0"/>
        <pt x="80" y="49" on="1"/>
        <pt x="39" y="89" on="0"/>
        <pt x="37" y="147" on="1"/>
        <pt x="42" y="586" on="1"/>
        <pt x="42" y="678" on="0"/>
        <pt x="40" y="680" on="1"/>
        <pt x="41" y="680" on="1"/>
        <pt x="115" y="682" on="1"/>
        <pt x="159" y="682" on="0"/>
        <pt x="182" y="675" on="1"/>
        <pt x="182" y="674" on="1"/>
        <pt x="178" y="588" on="0"/>
        <pt x="178" y="344" on="0"/>
        <pt x="191" y="183" on="1"/>
        <pt x="204" y="138" on="0"/>
        <pt x="251" y="138" on="1"/>
        <pt x="266" y="138" on="0"/>
        <pt x="282" y="146" on="1"/>
        <pt x="308" y="159" on="0"/>
        <pt x="314" y="188" on="1"/>
        <pt x="318" y="279" on="0"/>
        <pt x="322" y="619" on="0"/>
      </contour>
    </TTGlyph>
    <TTGlyph name="Uacute" xMin="37" yMin="-16" xMax="474" yMax="917">
      <contour>
        <pt x="367" y="677" on="0"/>
        <pt x="395" y="679" on="0"/>
        <pt x="417" y="680" on="0"/>
        <pt x="452" y="680" on="0"/>
        <pt x="469" y="670" on="1"/>
        <pt x="469" y="669" on="1"/>
        <pt x="473" y="570" on="0"/>
        <pt x="473" y="302" on="0"/>
        <pt x="457" y="151" on="1"/>
        <pt x="448" y="83" on="0"/>
        <pt x="406" y="38" on="1"/>
        <pt x="355" y="-16" on="0"/>
        <pt x="259" y="-16" on="1"/>
        <pt x="146" y="-16" on="0"/>
        <pt x="80" y="49" on="1"/>
        <pt x="39" y="89" on="0"/>
        <pt x="37" y="147" on="1"/>
        <pt x="42" y="586" on="1"/>
        <pt x="42" y="678" on="0"/>
        <pt x="40" y="680" on="1"/>
        <pt x="41" y="680" on="1"/>
        <pt x="115" y="682" on="1"/>
        <pt x="159" y="682" on="0"/>
        <pt x="182" y="675" on="1"/>
        <pt x="182" y="674" on="1"/>
        <pt x="178" y="588" on="0"/>
        <pt x="178" y="344" on="0"/>
        <pt x="191" y="183" on="1"/>
        <pt x="204" y="138" on="0"/>
        <pt x="251" y="138" on="1"/>
        <pt x="266" y="138" on="0"/>
        <pt x="282" y="146" on="1"/>
        <pt x="308" y="159" on="0"/>
        <pt x="314" y="188" on="1"/>
        <pt x="318" y="279" on="0"/>
        <pt x="322" y="619" on="0"/>
        <pt x="323" y="672" on="1"/>
        <pt x="328" y="672" on="0"/>
      </contour>
      <contour>
        <pt x="317" y="750" on="1"/>
        <pt x="295" y="748" on="0"/>
        <pt x="275" y="748" on="1"/>
        <pt x="205" y="748" on="0"/>
        <pt x="183" y="754" on="1"/>
        <pt x="196" y="766" on="0"/>
        <pt x="323" y="896" on="0"/>
        <pt x="350" y="917" on="1"/>
        <pt x="419" y="847" on="1"/>
        <pt x="412" y="840" on="0"/>
        <pt x="388" y="819" on="1"/>
        <pt x="323" y="764" on="0"/>
      </contour>
    </TTGlyph>
    <TTGlyph name="Ucircumflex" xMin="37" yMin="-16" xMax="474" yMax="918">
      <contour>
        <pt x="411" y="756" on="1"/>
        <pt x="333" y="749" on="1"/>
        <pt x="316" y="749" on="0"/>
        <pt x="296" y="751" on="1"/>
        <pt x="290" y="751" on="0"/>
        <pt x="250" y="797" on="0"/>
        <pt x="245" y="800" on="1"/>
        <pt x="240" y="798" on="0"/>
        <pt x="198" y="753" on="0"/>
        <pt x="191" y="751" on="0"/>
        <pt x="166" y="751" on="0"/>
        <pt x="86" y="755" on="1"/>
        <pt x="118" y="797" on="0"/>
        <pt x="175" y="852" on="0"/>
        <pt x="236" y="907" on="0"/>
        <pt x="248" y="918" on="1"/>
      </contour>
      <contour>
        <pt x="367" y="677" on="0"/>
        <pt x="395" y="679" on="0"/>
        <pt x="417" y="680" on="0"/>
        <pt x="452" y="680" on="0"/>
        <pt x="469" y="670" on="1"/>
        <pt x="469" y="669" on="1"/>
        <pt x="473" y="570" on="0"/>
        <pt x="473" y="302" on="0"/>
        <pt x="457" y="151" on="1"/>
        <pt x="448" y="83" on="0"/>
        <pt x="406" y="38" on="1"/>
        <pt x="355" y="-16" on="0"/>
        <pt x="259" y="-16" on="1"/>
        <pt x="146" y="-16" on="0"/>
        <pt x="80" y="49" on="1"/>
        <pt x="39" y="89" on="0"/>
        <pt x="37" y="147" on="1"/>
        <pt x="42" y="586" on="1"/>
        <pt x="42" y="678" on="0"/>
        <pt x="40" y="680" on="1"/>
        <pt x="41" y="680" on="1"/>
        <pt x="115" y="682" on="1"/>
        <pt x="159" y="682" on="0"/>
        <pt x="182" y="675" on="1"/>
        <pt x="182" y="674" on="1"/>
        <pt x="178" y="588" on="0"/>
        <pt x="178" y="344" on="0"/>
        <pt x="191" y="183" on="1"/>
        <pt x="204" y="138" on="0"/>
        <pt x="251" y="138" on="1"/>
        <pt x="266" y="138" on="0"/>
        <pt x="282" y="146" on="1"/>
        <pt x="308" y="159" on="0"/>
        <pt x="314" y="188" on="1"/>
        <pt x="318" y="279" on="0"/>
        <pt x="322" y="619" on="0"/>
        <pt x="323" y="672" on="1"/>
        <pt x="328" y="672" on="0"/>
      </contour>
    </TTGlyph>
    <TTGlyph name="Udieresis" xMin="37" yMin="-16" xMax="474" yMax="867">
      <contour>
        <pt x="112" y="759" on="1"/>
        <pt x="109" y="775" on="0"/>
        <pt x="109" y="805" on="1"/>
        <pt x="111" y="860" on="1"/>
        <pt x="132" y="867" on="0"/>
        <pt x="207" y="867" on="0"/>
        <pt x="220" y="861" on="1"/>
        <pt x="218" y="839" on="1"/>
        <pt x="214" y="773" on="0"/>
        <pt x="214" y="760" on="1"/>
        <pt x="214" y="758" on="1"/>
        <pt x="212" y="758" on="1"/>
        <pt x="115" y="759" on="1"/>
      </contour>
      <contour>
        <pt x="286" y="759" on="1"/>
        <pt x="283" y="775" on="0"/>
        <pt x="283" y="805" on="1"/>
        <pt x="285" y="860" on="1"/>
        <pt x="306" y="867" on="0"/>
        <pt x="381" y="867" on="0"/>
        <pt x="394" y="861" on="1"/>
        <pt x="392" y="839" on="1"/>
        <pt x="388" y="773" on="0"/>
        <pt x="388" y="760" on="1"/>
        <pt x="388" y="758" on="1"/>
        <pt x="386" y="758" on="1"/>
        <pt x="289" y="759" on="1"/>
      </contour>
      <contour>
        <pt x="367" y="677" on="0"/>
        <pt x="395" y="679" on="0"/>
        <pt x="417" y="680" on="0"/>
        <pt x="452" y="680" on="0"/>
        <pt x="469" y="670" on="1"/>
        <pt x="469" y="669" on="1"/>
        <pt x="473" y="570" on="0"/>
        <pt x="473" y="302" on="0"/>
        <pt x="457" y="151" on="1"/>
        <pt x="448" y="83" on="0"/>
        <pt x="406" y="38" on="1"/>
        <pt x="355" y="-16" on="0"/>
        <pt x="259" y="-16" on="1"/>
        <pt x="146" y="-16" on="0"/>
        <pt x="80" y="49" on="1"/>
        <pt x="39" y="89" on="0"/>
        <pt x="37" y="147" on="1"/>
        <pt x="37" y="147" on="0"/>
        <pt x="42" y="586" on="1"/>
        <pt x="42" y="678" on="0"/>
        <pt x="40" y="680" on="1"/>
        <pt x="41" y="680" on="1"/>
        <pt x="41" y="680" on="0"/>
        <pt x="115" y="682" on="1"/>
        <pt x="159" y="682" on="0"/>
        <pt x="182" y="675" on="1"/>
        <pt x="182" y="674" on="1"/>
        <pt x="178" y="588" on="0"/>
        <pt x="178" y="344" on="0"/>
        <pt x="191" y="183" on="1"/>
        <pt x="204" y="138" on="0"/>
        <pt x="251" y="138" on="1"/>
        <pt x="266" y="138" on="0"/>
        <pt x="282" y="146" on="1"/>
        <pt x="308" y="159" on="0"/>
        <pt x="314" y="188" on="1"/>
        <pt x="318" y="279" on="0"/>
        <pt x="322" y="619" on="0"/>
        <pt x="323" y="672" on="1"/>
        <pt x="328" y="672" on="0"/>
      </contour>
    </TTGlyph>
    <TTGlyph name="Ugrave" xMin="37" yMin="-16" xMax="474" yMax="917">
      <contour>
        <pt x="331" y="754" on="1"/>
        <pt x="307" y="748" on="0"/>
        <pt x="219" y="748" on="0"/>
        <pt x="197" y="750" on="1"/>
        <pt x="189" y="762" on="0"/>
        <pt x="102" y="840" on="0"/>
        <pt x="95" y="847" on="1"/>
        <pt x="164" y="917" on="1"/>
        <pt x="191" y="896" on="0"/>
        <pt x="318" y="766" on="0"/>
      </contour>
      <contour>
        <pt x="367" y="677" on="0"/>
        <pt x="395" y="679" on="0"/>
        <pt x="417" y="680" on="0"/>
        <pt x="452" y="680" on="0"/>
        <pt x="469" y="670" on="1"/>
        <pt x="469" y="669" on="1"/>
        <pt x="473" y="570" on="0"/>
        <pt x="473" y="302" on="0"/>
        <pt x="457" y="151" on="1"/>
        <pt x="448" y="83" on="0"/>
        <pt x="406" y="38" on="1"/>
        <pt x="355" y="-16" on="0"/>
        <pt x="259" y="-16" on="1"/>
        <pt x="146" y="-16" on="0"/>
        <pt x="80" y="49" on="1"/>
        <pt x="39" y="89" on="0"/>
        <pt x="37" y="147" on="1"/>
        <pt x="42" y="586" on="1"/>
        <pt x="42" y="678" on="0"/>
        <pt x="40" y="680" on="1"/>
        <pt x="41" y="680" on="1"/>
        <pt x="115" y="682" on="1"/>
        <pt x="159" y="682" on="0"/>
        <pt x="182" y="675" on="1"/>
        <pt x="182" y="674" on="1"/>
        <pt x="178" y="588" on="0"/>
        <pt x="178" y="344" on="0"/>
        <pt x="191" y="183" on="1"/>
        <pt x="204" y="138" on="0"/>
        <pt x="251" y="138" on="1"/>
        <pt x="266" y="138" on="0"/>
        <pt x="282" y="146" on="1"/>
        <pt x="308" y="159" on="0"/>
        <pt x="314" y="188" on="1"/>
        <pt x="318" y="279" on="0"/>
        <pt x="322" y="619" on="0"/>
        <pt x="323" y="672" on="1"/>
        <pt x="328" y="672" on="0"/>
      </contour>
    </TTGlyph>
    <TTGlyph name="V" xMin="16" yMin="-3" xMax="445" yMax="696">
      <contour>
        <pt x="279" y="1" on="1"/>
        <pt x="216" y="-3" on="1"/>
        <pt x="157" y="-3" on="0"/>
        <pt x="133" y="5" on="1"/>
        <pt x="46" y="319" on="0"/>
        <pt x="16" y="681" on="1"/>
        <pt x="16" y="682" on="1"/>
        <pt x="28" y="696" on="0"/>
        <pt x="147" y="696" on="0"/>
        <pt x="158" y="692" on="1"/>
        <pt x="161" y="677" on="0"/>
        <pt x="164" y="602" on="1"/>
        <pt x="171" y="390" on="0"/>
        <pt x="211" y="223" on="1"/>
        <pt x="239" y="340" on="0"/>
        <pt x="286" y="642" on="0"/>
        <pt x="299" y="691" on="1"/>
        <pt x="299" y="693" on="0"/>
        <pt x="301" y="693" on="1"/>
        <pt x="325" y="688" on="0"/>
        <pt x="423" y="688" on="0"/>
        <pt x="445" y="684" on="1"/>
        <pt x="396" y="423" on="0"/>
      </contour>
    </TTGlyph>
    <TTGlyph name="W" xMin="23" yMin="2" xMax="446" yMax="701">
      <contour>
        <pt x="307" y="694" on="1"/>
        <pt x="335" y="700" on="0"/>
        <pt x="442" y="700" on="0"/>
        <pt x="446" y="696" on="1"/>
        <pt x="437" y="590" on="0"/>
        <pt x="390" y="128" on="0"/>
        <pt x="380" y="5" on="1"/>
        <pt x="374" y="3" on="0"/>
        <pt x="346" y="3" on="1"/>
        <pt x="298" y="3" on="1"/>
        <pt x="286" y="19" on="0"/>
        <pt x="251" y="155" on="0"/>
        <pt x="239" y="173" on="1"/>
        <pt x="238" y="173" on="1"/>
        <pt x="225" y="160" on="0"/>
        <pt x="193" y="22" on="0"/>
        <pt x="184" y="7" on="1"/>
        <pt x="156" y="2" on="0"/>
        <pt x="120" y="2" on="0"/>
        <pt x="97" y="5" on="1"/>
        <pt x="96" y="5" on="1"/>
        <pt x="94" y="21" on="0"/>
        <pt x="80" y="116" on="1"/>
        <pt x="63" y="238" on="1"/>
        <pt x="27" y="493" on="0"/>
        <pt x="23" y="695" on="1"/>
        <pt x="23" y="696" on="1"/>
        <pt x="56" y="701" on="0"/>
        <pt x="94" y="701" on="0"/>
        <pt x="166" y="698" on="1"/>
        <pt x="169" y="664" on="0"/>
        <pt x="170" y="348" on="0"/>
        <pt x="187" y="281" on="1"/>
        <pt x="234" y="453" on="0"/>
        <pt x="234" y="463" on="1"/>
        <pt x="239" y="459" on="0"/>
        <pt x="283" y="284" on="0"/>
        <pt x="289" y="268" on="1"/>
        <pt x="295" y="326" on="0"/>
        <pt x="302" y="635" on="0"/>
        <pt x="307" y="693" on="1"/>
      </contour>
    </TTGlyph>
    <TTGlyph name="X" xMin="-1" yMin="0" xMax="440" yMax="700">
      <contour>
        <pt x="398" y="3" on="1"/>
        <pt x="334" y="1" on="1"/>
        <pt x="307" y="1" on="0"/>
        <pt x="290" y="5" on="1"/>
        <pt x="289" y="6" on="1"/>
        <pt x="275" y="36" on="0"/>
        <pt x="238" y="197" on="0"/>
        <pt x="221" y="230" on="1"/>
        <pt x="220" y="231" on="1"/>
        <pt x="203" y="193" on="0"/>
        <pt x="161" y="36" on="0"/>
        <pt x="145" y="2" on="1"/>
        <pt x="115" y="0" on="0"/>
        <pt x="34" y="0" on="0"/>
        <pt x="9" y="9" on="1"/>
        <pt x="19" y="44" on="0"/>
        <pt x="99" y="284" on="0"/>
        <pt x="113" y="347" on="1"/>
        <pt x="93" y="440" on="0"/>
        <pt x="48" y="563" on="0"/>
        <pt x="44" y="574" on="1"/>
        <pt x="11" y="666" on="0"/>
        <pt x="-1" y="689" on="1"/>
        <pt x="56" y="693" on="0"/>
        <pt x="80" y="693" on="1"/>
        <pt x="110" y="693" on="0"/>
        <pt x="143" y="693" on="0"/>
        <pt x="146" y="692" on="1"/>
        <pt x="150" y="690" on="0"/>
        <pt x="151" y="688" on="1"/>
        <pt x="205" y="500" on="0"/>
        <pt x="217" y="467" on="1"/>
        <pt x="231" y="499" on="0"/>
        <pt x="282" y="683" on="0"/>
        <pt x="286" y="695" on="1"/>
        <pt x="286" y="696" on="1"/>
        <pt x="333" y="700" on="0"/>
        <pt x="439" y="700" on="1"/>
        <pt x="440" y="700" on="1"/>
        <pt x="402" y="590" on="1"/>
        <pt x="346" y="436" on="0"/>
        <pt x="331" y="341" on="1"/>
        <pt x="342" y="277" on="0"/>
        <pt x="415" y="39" on="0"/>
        <pt x="424" y="2" on="1"/>
        <pt x="415" y="3" on="0"/>
      </contour>
    </TTGlyph>
    <TTGlyph name="Y" xMin="11" yMin="-2" xMax="450" yMax="698">
      <contour>
        <pt x="16" y="692" on="1"/>
        <pt x="102" y="698" on="1"/>
        <pt x="132" y="698" on="0"/>
        <pt x="149" y="690" on="1"/>
        <pt x="158" y="647" on="0"/>
        <pt x="207" y="510" on="0"/>
        <pt x="226" y="471" on="1"/>
        <pt x="241" y="498" on="0"/>
        <pt x="298" y="667" on="0"/>
        <pt x="307" y="688" on="1"/>
        <pt x="341" y="695" on="0"/>
        <pt x="434" y="695" on="0"/>
        <pt x="450" y="693" on="1"/>
        <pt x="450" y="692" on="1"/>
        <pt x="411" y="567" on="0"/>
        <pt x="194" y="110" on="0"/>
        <pt x="156" y="0" on="1"/>
        <pt x="148" y="1" on="0"/>
        <pt x="131" y="1" on="1"/>
        <pt x="37" y="-2" on="1"/>
        <pt x="21" y="-2" on="0"/>
        <pt x="13" y="-1" on="1"/>
        <pt x="11" y="-1" on="1"/>
        <pt x="44" y="102" on="0"/>
        <pt x="142" y="345" on="1"/>
        <pt x="142" y="347" on="1"/>
        <pt x="128" y="405" on="0"/>
        <pt x="30" y="635" on="0"/>
      </contour>
    </TTGlyph>
    <TTGlyph name="Yacute" xMin="11" yMin="-3" xMax="448" yMax="917">
      <contour>
        <pt x="16" y="688" on="1"/>
        <pt x="115" y="694" on="1"/>
        <pt x="149" y="694" on="0"/>
        <pt x="168" y="686" on="1"/>
        <pt x="195" y="579" on="0"/>
        <pt x="227" y="513" on="1"/>
        <pt x="256" y="565" on="0"/>
        <pt x="306" y="684" on="1"/>
        <pt x="307" y="684" on="0"/>
        <pt x="365" y="693" on="0"/>
        <pt x="430" y="693" on="0"/>
        <pt x="448" y="689" on="1"/>
        <pt x="448" y="688" on="1"/>
        <pt x="409" y="564" on="0"/>
        <pt x="193" y="110" on="0"/>
        <pt x="155" y="-1" on="1"/>
        <pt x="146" y="0" on="0"/>
        <pt x="129" y="0" on="1"/>
        <pt x="31" y="-2" on="1"/>
        <pt x="21" y="-2" on="0"/>
        <pt x="13" y="-2" on="1"/>
        <pt x="11" y="-2" on="1"/>
        <pt x="28" y="52" on="0"/>
        <pt x="141" y="342" on="1"/>
        <pt x="141" y="344" on="1"/>
        <pt x="127" y="402" on="0"/>
        <pt x="30" y="631" on="0"/>
      </contour>
      <contour>
        <pt x="283" y="750" on="1"/>
        <pt x="261" y="748" on="0"/>
        <pt x="241" y="748" on="1"/>
        <pt x="172" y="748" on="0"/>
        <pt x="149" y="754" on="1"/>
        <pt x="162" y="766" on="0"/>
        <pt x="289" y="896" on="0"/>
        <pt x="316" y="917" on="1"/>
        <pt x="385" y="847" on="1"/>
        <pt x="378" y="840" on="0"/>
        <pt x="354" y="819" on="1"/>
        <pt x="289" y="764" on="0"/>
      </contour>
    </TTGlyph>
    <TTGlyph name="Ydieresis" xMin="11" yMin="-3" xMax="448" yMax="867">
      <contour>
        <pt x="16" y="688" on="1"/>
        <pt x="115" y="694" on="1"/>
        <pt x="149" y="694" on="0"/>
        <pt x="168" y="686" on="1"/>
        <pt x="195" y="579" on="0"/>
        <pt x="227" y="513" on="1"/>
        <pt x="256" y="565" on="0"/>
        <pt x="306" y="684" on="1"/>
        <pt x="307" y="684" on="0"/>
        <pt x="365" y="693" on="0"/>
        <pt x="430" y="693" on="0"/>
        <pt x="448" y="689" on="1"/>
        <pt x="448" y="688" on="1"/>
        <pt x="409" y="564" on="0"/>
        <pt x="193" y="110" on="0"/>
        <pt x="155" y="-1" on="1"/>
        <pt x="146" y="0" on="0"/>
        <pt x="129" y="0" on="1"/>
        <pt x="31" y="-2" on="1"/>
        <pt x="21" y="-2" on="0"/>
        <pt x="13" y="-2" on="1"/>
        <pt x="11" y="-2" on="1"/>
        <pt x="28" y="52" on="0"/>
        <pt x="141" y="342" on="1"/>
        <pt x="141" y="344" on="1"/>
        <pt x="127" y="402" on="0"/>
        <pt x="30" y="631" on="0"/>
      </contour>
      <contour>
        <pt x="90" y="759" on="1"/>
        <pt x="87" y="775" on="0"/>
        <pt x="87" y="805" on="1"/>
        <pt x="89" y="860" on="1"/>
        <pt x="110" y="867" on="0"/>
        <pt x="185" y="867" on="0"/>
        <pt x="198" y="861" on="1"/>
        <pt x="196" y="839" on="1"/>
        <pt x="192" y="773" on="0"/>
        <pt x="192" y="760" on="1"/>
        <pt x="192" y="758" on="1"/>
        <pt x="190" y="758" on="1"/>
        <pt x="93" y="759" on="1"/>
      </contour>
      <contour>
        <pt x="264" y="759" on="1"/>
        <pt x="261" y="775" on="0"/>
        <pt x="261" y="805" on="1"/>
        <pt x="263" y="860" on="1"/>
        <pt x="284" y="867" on="0"/>
        <pt x="359" y="867" on="0"/>
        <pt x="372" y="861" on="1"/>
        <pt x="370" y="839" on="1"/>
        <pt x="366" y="773" on="0"/>
        <pt x="366" y="760" on="1"/>
        <pt x="366" y="758" on="1"/>
        <pt x="364" y="758" on="1"/>
        <pt x="267" y="759" on="1"/>
      </contour>
    </TTGlyph>
    <TTGlyph name="Z" xMin="13" yMin="-2" xMax="455" yMax="698">
      <contour>
        <pt x="454" y="653" on="1"/>
        <pt x="451" y="535" on="1"/>
        <pt x="451" y="534" on="1"/>
        <pt x="407" y="459" on="0"/>
        <pt x="221" y="193" on="0"/>
        <pt x="194" y="151" on="1"/>
        <pt x="193" y="150" on="1"/>
        <pt x="270" y="160" on="0"/>
        <pt x="407" y="161" on="0"/>
        <pt x="445" y="163" on="1"/>
        <pt x="445" y="160" on="1"/>
        <pt x="448" y="138" on="0"/>
        <pt x="448" y="61" on="0"/>
        <pt x="443" y="0" on="1"/>
        <pt x="443" y="-2" on="1"/>
        <pt x="331" y="4" on="0"/>
        <pt x="127" y="4" on="0"/>
        <pt x="34" y="-1" on="1"/>
        <pt x="25" y="25" on="0"/>
        <pt x="25" y="71" on="1"/>
        <pt x="26" y="107" on="1"/>
        <pt x="26" y="137" on="0"/>
        <pt x="25" y="159" on="1"/>
        <pt x="63" y="245" on="0"/>
        <pt x="138" y="351" on="1"/>
        <pt x="162" y="386" on="0"/>
        <pt x="257" y="517" on="0"/>
        <pt x="270" y="535" on="1"/>
        <pt x="172" y="548" on="0"/>
        <pt x="29" y="548" on="1"/>
        <pt x="21" y="562" on="0"/>
        <pt x="21" y="660" on="0"/>
        <pt x="15" y="685" on="1"/>
        <pt x="15" y="686" on="1"/>
        <pt x="15" y="688" on="0"/>
        <pt x="13" y="690" on="1"/>
        <pt x="86" y="698" on="0"/>
        <pt x="200" y="698" on="1"/>
        <pt x="451" y="694" on="1"/>
        <pt x="454" y="685" on="0"/>
      </contour>
    </TTGlyph>
    <TTGlyph name="Zcaron" xMin="-2" yMin="-2" xMax="440" yMax="918">
      <contour>
        <pt x="83" y="911" on="1"/>
        <pt x="163" y="915" on="0"/>
        <pt x="188" y="915" on="0"/>
        <pt x="195" y="913" on="0"/>
        <pt x="237" y="868" on="0"/>
        <pt x="242" y="866" on="1"/>
        <pt x="247" y="869" on="0"/>
        <pt x="287" y="915" on="0"/>
        <pt x="293" y="915" on="1"/>
        <pt x="313" y="917" on="0"/>
        <pt x="341" y="917" on="0"/>
        <pt x="375" y="914" on="0"/>
        <pt x="407" y="909" on="0"/>
        <pt x="408" y="910" on="1"/>
        <pt x="245" y="748" on="1"/>
        <pt x="233" y="759" on="0"/>
        <pt x="172" y="814" on="0"/>
        <pt x="157" y="828" on="1"/>
        <pt x="115" y="869" on="0"/>
      </contour>
      <contour>
        <pt x="10" y="74" on="1"/>
        <pt x="12" y="124" on="1"/>
        <pt x="12" y="140" on="0"/>
        <pt x="10" y="159" on="1"/>
        <pt x="48" y="245" on="0"/>
        <pt x="122" y="351" on="1"/>
        <pt x="147" y="386" on="0"/>
        <pt x="242" y="517" on="0"/>
        <pt x="255" y="535" on="1"/>
        <pt x="158" y="548" on="0"/>
        <pt x="14" y="548" on="1"/>
        <pt x="6" y="557" on="0"/>
        <pt x="6" y="665" on="0"/>
        <pt x="0" y="685" on="1"/>
        <pt x="0" y="686" on="1"/>
        <pt x="0" y="688" on="0"/>
        <pt x="-2" y="690" on="1"/>
        <pt x="71" y="698" on="0"/>
        <pt x="185" y="698" on="1"/>
        <pt x="436" y="694" on="1"/>
        <pt x="439" y="685" on="0"/>
        <pt x="439" y="653" on="1"/>
        <pt x="436" y="535" on="1"/>
        <pt x="436" y="534" on="1"/>
        <pt x="392" y="459" on="0"/>
        <pt x="206" y="193" on="0"/>
        <pt x="179" y="151" on="1"/>
        <pt x="178" y="150" on="1"/>
        <pt x="255" y="160" on="0"/>
        <pt x="343" y="160" on="1"/>
        <pt x="392" y="161" on="0"/>
        <pt x="430" y="163" on="1"/>
        <pt x="430" y="163" on="0"/>
        <pt x="430" y="160" on="1"/>
        <pt x="433" y="138" on="0"/>
        <pt x="433" y="61" on="0"/>
        <pt x="428" y="0" on="1"/>
        <pt x="428" y="-2" on="1"/>
        <pt x="316" y="4" on="0"/>
        <pt x="112" y="4" on="0"/>
        <pt x="19" y="-1" on="1"/>
        <pt x="10" y="26" on="0"/>
      </contour>
    </TTGlyph>
    <TTGlyph name="a" xMin="19" yMin="-2" xMax="443" yMax="503">
      <contour>
        <pt x="349" y="2" on="1"/>
        <pt x="306" y="-1" on="1"/>
        <pt x="294" y="3" on="0"/>
        <pt x="294" y="29" on="0"/>
        <pt x="298" y="50" on="0"/>
        <pt x="298" y="56" on="1"/>
        <pt x="273" y="31" on="0"/>
        <pt x="200" y="-2" on="0"/>
        <pt x="166" y="-2" on="1"/>
        <pt x="118" y="-2" on="0"/>
        <pt x="83" y="44" on="1"/>
        <pt x="19" y="128" on="0"/>
        <pt x="19" y="266" on="1"/>
        <pt x="19" y="365" on="0"/>
        <pt x="116" y="495" on="0"/>
        <pt x="187" y="497" on="1"/>
        <pt x="218" y="497" on="0"/>
        <pt x="247" y="494" on="0"/>
        <pt x="280" y="473" on="0"/>
        <pt x="289" y="451" on="1"/>
        <pt x="288" y="463" on="0"/>
        <pt x="293" y="496" on="0"/>
        <pt x="293" y="502" on="1"/>
        <pt x="293" y="503" on="0"/>
        <pt x="341" y="503" on="1"/>
        <pt x="411" y="500" on="0"/>
        <pt x="439" y="498" on="1"/>
        <pt x="441" y="482" on="0"/>
        <pt x="441" y="474" on="1"/>
        <pt x="441" y="464" on="1"/>
        <pt x="440" y="438" on="0"/>
        <pt x="440" y="393" on="1"/>
        <pt x="442" y="159" on="1"/>
        <pt x="442" y="78" on="0"/>
        <pt x="439" y="31" on="0"/>
        <pt x="439" y="3" on="0"/>
        <pt x="426" y="-1" on="1"/>
        <pt x="414" y="-1" on="1"/>
      </contour>
      <contour>
        <pt x="202" y="363" on="0"/>
        <pt x="154" y="326" on="0"/>
        <pt x="142" y="279" on="0"/>
        <pt x="142" y="200" on="0"/>
        <pt x="190" y="138" on="0"/>
        <pt x="231" y="138" on="1"/>
        <pt x="263" y="138" on="0"/>
        <pt x="280" y="156" on="1"/>
        <pt x="291" y="168" on="0"/>
        <pt x="293" y="220" on="0"/>
        <pt x="293" y="238" on="1"/>
        <pt x="293" y="259" on="1"/>
        <pt x="293" y="335" on="0"/>
        <pt x="278" y="363" on="0"/>
      </contour>
    </TTGlyph>
    <TTGlyph name="aacute" xMin="19" yMin="-2" xMax="443" yMax="754">
      <contour>
        <pt x="349" y="2" on="1"/>
        <pt x="306" y="-1" on="1"/>
        <pt x="294" y="3" on="0"/>
        <pt x="294" y="29" on="0"/>
        <pt x="298" y="50" on="0"/>
        <pt x="298" y="56" on="1"/>
        <pt x="273" y="31" on="0"/>
        <pt x="200" y="-2" on="0"/>
        <pt x="166" y="-2" on="1"/>
        <pt x="118" y="-2" on="0"/>
        <pt x="83" y="44" on="1"/>
        <pt x="19" y="128" on="0"/>
        <pt x="19" y="266" on="1"/>
        <pt x="19" y="365" on="0"/>
        <pt x="116" y="495" on="0"/>
        <pt x="187" y="497" on="1"/>
        <pt x="218" y="497" on="0"/>
        <pt x="247" y="494" on="0"/>
        <pt x="280" y="473" on="0"/>
        <pt x="289" y="451" on="1"/>
        <pt x="288" y="463" on="0"/>
        <pt x="293" y="496" on="0"/>
        <pt x="293" y="502" on="1"/>
        <pt x="293" y="503" on="0"/>
        <pt x="341" y="503" on="1"/>
        <pt x="411" y="500" on="0"/>
        <pt x="439" y="498" on="1"/>
        <pt x="441" y="482" on="0"/>
        <pt x="441" y="474" on="1"/>
        <pt x="441" y="464" on="1"/>
        <pt x="440" y="438" on="0"/>
        <pt x="440" y="393" on="1"/>
        <pt x="442" y="159" on="1"/>
        <pt x="442" y="78" on="0"/>
        <pt x="439" y="31" on="0"/>
        <pt x="439" y="3" on="0"/>
        <pt x="426" y="-1" on="1"/>
        <pt x="414" y="-1" on="1"/>
      </contour>
      <contour>
        <pt x="202" y="363" on="0"/>
        <pt x="154" y="326" on="0"/>
        <pt x="142" y="279" on="0"/>
        <pt x="142" y="200" on="0"/>
        <pt x="190" y="138" on="0"/>
        <pt x="231" y="138" on="1"/>
        <pt x="263" y="138" on="0"/>
        <pt x="280" y="156" on="1"/>
        <pt x="291" y="168" on="0"/>
        <pt x="293" y="220" on="0"/>
        <pt x="293" y="238" on="1"/>
        <pt x="293" y="259" on="1"/>
        <pt x="293" y="335" on="0"/>
        <pt x="278" y="363" on="0"/>
      </contour>
      <contour>
        <pt x="293" y="587" on="1"/>
        <pt x="271" y="585" on="0"/>
        <pt x="251" y="585" on="1"/>
        <pt x="181" y="585" on="0"/>
        <pt x="159" y="591" on="1"/>
        <pt x="172" y="603" on="0"/>
        <pt x="299" y="733" on="0"/>
        <pt x="326" y="754" on="1"/>
        <pt x="395" y="684" on="1"/>
        <pt x="388" y="677" on="0"/>
        <pt x="364" y="656" on="1"/>
        <pt x="299" y="601" on="0"/>
      </contour>
    </TTGlyph>
    <TTGlyph name="acircumflex" xMin="19" yMin="-2" xMax="443" yMax="757">
      <contour>
        <pt x="415" y="595" on="1"/>
        <pt x="337" y="588" on="1"/>
        <pt x="320" y="588" on="0"/>
        <pt x="300" y="590" on="1"/>
        <pt x="294" y="590" on="0"/>
        <pt x="254" y="636" on="0"/>
        <pt x="249" y="639" on="1"/>
        <pt x="244" y="637" on="0"/>
        <pt x="202" y="592" on="0"/>
        <pt x="195" y="590" on="0"/>
        <pt x="170" y="590" on="0"/>
        <pt x="90" y="594" on="1"/>
        <pt x="122" y="636" on="0"/>
        <pt x="179" y="691" on="0"/>
        <pt x="240" y="746" on="0"/>
        <pt x="252" y="757" on="1"/>
      </contour>
      <contour>
        <pt x="349" y="2" on="1"/>
        <pt x="306" y="-1" on="1"/>
        <pt x="294" y="3" on="0"/>
        <pt x="294" y="29" on="0"/>
        <pt x="298" y="50" on="0"/>
        <pt x="298" y="56" on="1"/>
        <pt x="273" y="31" on="0"/>
        <pt x="200" y="-2" on="0"/>
        <pt x="166" y="-2" on="1"/>
        <pt x="118" y="-2" on="0"/>
        <pt x="83" y="44" on="1"/>
        <pt x="19" y="128" on="0"/>
        <pt x="19" y="266" on="1"/>
        <pt x="19" y="365" on="0"/>
        <pt x="116" y="495" on="0"/>
        <pt x="187" y="497" on="1"/>
        <pt x="218" y="497" on="0"/>
        <pt x="247" y="494" on="0"/>
        <pt x="280" y="473" on="0"/>
        <pt x="289" y="451" on="1"/>
        <pt x="288" y="463" on="0"/>
        <pt x="293" y="496" on="0"/>
        <pt x="293" y="502" on="1"/>
        <pt x="293" y="503" on="0"/>
        <pt x="341" y="503" on="1"/>
        <pt x="411" y="500" on="0"/>
        <pt x="439" y="498" on="1"/>
        <pt x="441" y="482" on="0"/>
        <pt x="441" y="474" on="1"/>
        <pt x="441" y="464" on="1"/>
        <pt x="440" y="438" on="0"/>
        <pt x="440" y="393" on="1"/>
        <pt x="442" y="159" on="1"/>
        <pt x="442" y="78" on="0"/>
        <pt x="439" y="31" on="0"/>
        <pt x="439" y="3" on="0"/>
        <pt x="426" y="-1" on="1"/>
        <pt x="414" y="-1" on="1"/>
      </contour>
      <contour>
        <pt x="202" y="363" on="0"/>
        <pt x="154" y="326" on="0"/>
        <pt x="142" y="279" on="0"/>
        <pt x="142" y="200" on="0"/>
        <pt x="190" y="138" on="0"/>
        <pt x="231" y="138" on="1"/>
        <pt x="263" y="138" on="0"/>
        <pt x="280" y="156" on="1"/>
        <pt x="291" y="168" on="0"/>
        <pt x="293" y="220" on="0"/>
        <pt x="293" y="238" on="1"/>
        <pt x="293" y="259" on="1"/>
        <pt x="293" y="335" on="0"/>
        <pt x="278" y="363" on="0"/>
      </contour>
    </TTGlyph>
    <TTGlyph name="acute" xMin="6" yMin="523" xMax="242" yMax="692">
      <contour>
        <pt x="140" y="525" on="1"/>
        <pt x="118" y="523" on="0"/>
        <pt x="98" y="523" on="1"/>
        <pt x="29" y="523" on="0"/>
        <pt x="6" y="529" on="1"/>
        <pt x="19" y="541" on="0"/>
        <pt x="146" y="671" on="0"/>
        <pt x="173" y="692" on="1"/>
        <pt x="242" y="622" on="1"/>
        <pt x="235" y="615" on="0"/>
        <pt x="210" y="594" on="1"/>
        <pt x="146" y="539" on="0"/>
      </contour>
    </TTGlyph>
    <TTGlyph name="adieresis" xMin="19" yMin="-2" xMax="443" yMax="760">
      <contour>
        <pt x="349" y="2" on="1"/>
        <pt x="306" y="-1" on="1"/>
        <pt x="294" y="3" on="0"/>
        <pt x="294" y="29" on="0"/>
        <pt x="298" y="50" on="0"/>
        <pt x="298" y="56" on="1"/>
        <pt x="273" y="31" on="0"/>
        <pt x="200" y="-2" on="0"/>
        <pt x="166" y="-2" on="1"/>
        <pt x="118" y="-2" on="0"/>
        <pt x="83" y="44" on="1"/>
        <pt x="19" y="128" on="0"/>
        <pt x="19" y="266" on="1"/>
        <pt x="19" y="365" on="0"/>
        <pt x="116" y="495" on="0"/>
        <pt x="187" y="497" on="1"/>
        <pt x="218" y="497" on="0"/>
        <pt x="247" y="494" on="0"/>
        <pt x="280" y="473" on="0"/>
        <pt x="289" y="451" on="1"/>
        <pt x="288" y="463" on="0"/>
        <pt x="293" y="496" on="0"/>
        <pt x="293" y="502" on="1"/>
        <pt x="293" y="503" on="0"/>
        <pt x="341" y="503" on="1"/>
        <pt x="411" y="500" on="0"/>
        <pt x="439" y="498" on="1"/>
        <pt x="441" y="482" on="0"/>
        <pt x="441" y="474" on="1"/>
        <pt x="441" y="464" on="1"/>
        <pt x="440" y="438" on="0"/>
        <pt x="440" y="393" on="1"/>
        <pt x="442" y="159" on="1"/>
        <pt x="442" y="78" on="0"/>
        <pt x="439" y="31" on="0"/>
        <pt x="439" y="3" on="0"/>
        <pt x="426" y="-1" on="1"/>
        <pt x="414" y="-1" on="1"/>
      </contour>
      <contour>
        <pt x="202" y="363" on="0"/>
        <pt x="154" y="326" on="0"/>
        <pt x="142" y="279" on="0"/>
        <pt x="142" y="200" on="0"/>
        <pt x="190" y="138" on="0"/>
        <pt x="231" y="138" on="1"/>
        <pt x="263" y="138" on="0"/>
        <pt x="280" y="156" on="1"/>
        <pt x="291" y="168" on="0"/>
        <pt x="293" y="220" on="0"/>
        <pt x="293" y="238" on="1"/>
        <pt x="293" y="259" on="1"/>
        <pt x="293" y="335" on="0"/>
        <pt x="278" y="363" on="0"/>
      </contour>
      <contour>
        <pt x="254" y="629" on="1"/>
        <pt x="248" y="620" on="0"/>
        <pt x="212" y="620" on="1"/>
        <pt x="133" y="622" on="1"/>
        <pt x="125" y="622" on="0"/>
        <pt x="119" y="622" on="1"/>
        <pt x="115" y="740" on="1"/>
        <pt x="115" y="750" on="0"/>
        <pt x="115" y="760" on="1"/>
        <pt x="251" y="757" on="1"/>
      </contour>
      <contour>
        <pt x="438" y="629" on="1"/>
        <pt x="432" y="620" on="0"/>
        <pt x="396" y="620" on="1"/>
        <pt x="317" y="622" on="1"/>
        <pt x="309" y="622" on="0"/>
        <pt x="303" y="622" on="1"/>
        <pt x="299" y="740" on="1"/>
        <pt x="299" y="750" on="0"/>
        <pt x="299" y="760" on="1"/>
        <pt x="435" y="757" on="1"/>
      </contour>
    </TTGlyph>
    <TTGlyph name="ae" xMin="9" yMin="-9" xMax="685" yMax="498">
      <contour>
        <pt x="354" y="451" on="1"/>
        <pt x="408" y="498" on="0"/>
        <pt x="494" y="498" on="1"/>
        <pt x="526" y="498" on="0"/>
        <pt x="557" y="490" on="1"/>
        <pt x="685" y="468" on="0"/>
        <pt x="685" y="297" on="1"/>
        <pt x="685" y="278" on="0"/>
        <pt x="683" y="257" on="1"/>
        <pt x="662" y="251" on="0"/>
        <pt x="521" y="245" on="0"/>
        <pt x="449" y="245" on="0"/>
        <pt x="430" y="249" on="1"/>
        <pt x="430" y="220" on="1"/>
        <pt x="431" y="199" on="1"/>
        <pt x="431" y="192" on="0"/>
        <pt x="432" y="187" on="0"/>
        <pt x="434" y="175" on="0"/>
        <pt x="436" y="170" on="0"/>
        <pt x="439" y="161" on="0"/>
        <pt x="443" y="154" on="0"/>
        <pt x="445" y="150" on="1"/>
        <pt x="461" y="122" on="0"/>
        <pt x="490" y="113" on="1"/>
        <pt x="499" y="110" on="0"/>
        <pt x="526" y="110" on="0"/>
        <pt x="563" y="143" on="0"/>
        <pt x="563" y="185" on="1"/>
        <pt x="563" y="189" on="0"/>
        <pt x="563" y="193" on="1"/>
        <pt x="566" y="193" on="0"/>
        <pt x="574" y="193" on="1"/>
        <pt x="647" y="195" on="1"/>
        <pt x="675" y="195" on="0"/>
        <pt x="681" y="191" on="1"/>
        <pt x="680" y="184" on="0"/>
        <pt x="678" y="155" on="0"/>
        <pt x="677" y="141" on="0"/>
        <pt x="675" y="115" on="0"/>
        <pt x="673" y="100" on="0"/>
        <pt x="670" y="80" on="0"/>
        <pt x="667" y="68" on="0"/>
        <pt x="665" y="61" on="1"/>
        <pt x="662" y="50" on="0"/>
        <pt x="655" y="43" on="1"/>
        <pt x="640" y="22" on="0"/>
        <pt x="610" y="12" on="1"/>
        <pt x="575" y="0" on="0"/>
        <pt x="537" y="0" on="1"/>
        <pt x="438" y="3" on="1"/>
        <pt x="382" y="13" on="0"/>
        <pt x="349" y="59" on="1"/>
        <pt x="317" y="33" on="0"/>
        <pt x="297" y="21" on="1"/>
        <pt x="246" y="-8" on="0"/>
        <pt x="195" y="-8" on="1"/>
        <pt x="98" y="-8" on="0"/>
        <pt x="39" y="58" on="1"/>
        <pt x="9" y="91" on="0"/>
        <pt x="9" y="182" on="0"/>
        <pt x="37" y="233" on="1"/>
        <pt x="75" y="291" on="0"/>
        <pt x="185" y="291" on="1"/>
        <pt x="243" y="291" on="0"/>
        <pt x="280" y="268" on="1"/>
        <pt x="279" y="287" on="0"/>
        <pt x="279" y="307" on="0"/>
        <pt x="279" y="317" on="1"/>
        <pt x="281" y="339" on="0"/>
        <pt x="277" y="351" on="1"/>
        <pt x="269" y="385" on="0"/>
        <pt x="240" y="395" on="1"/>
        <pt x="229" y="399" on="0"/>
        <pt x="200" y="399" on="0"/>
        <pt x="183" y="388" on="1"/>
        <pt x="156" y="371" on="0"/>
        <pt x="156" y="339" on="1"/>
        <pt x="111" y="332" on="0"/>
        <pt x="48" y="332" on="0"/>
        <pt x="32" y="340" on="1"/>
        <pt x="31" y="349" on="0"/>
        <pt x="31" y="357" on="1"/>
        <pt x="31" y="402" on="0"/>
        <pt x="66" y="436" on="1"/>
        <pt x="120" y="488" on="0"/>
        <pt x="314" y="488" on="0"/>
      </contour>
      <contour>
        <pt x="136" y="193" on="1"/>
        <pt x="115" y="172" on="0"/>
        <pt x="115" y="142" on="1"/>
        <pt x="115" y="126" on="0"/>
        <pt x="151" y="94" on="0"/>
        <pt x="211" y="94" on="1"/>
        <pt x="235" y="94" on="0"/>
        <pt x="274" y="129" on="0"/>
        <pt x="274" y="152" on="1"/>
        <pt x="274" y="186" on="0"/>
        <pt x="251" y="200" on="1"/>
        <pt x="219" y="215" on="0"/>
        <pt x="161" y="215" on="0"/>
      </contour>
      <contour>
        <pt x="522" y="322" on="1"/>
        <pt x="575" y="320" on="1"/>
        <pt x="579" y="320" on="0"/>
        <pt x="581" y="321" on="0"/>
        <pt x="581" y="326" on="1"/>
        <pt x="581" y="333" on="1"/>
        <pt x="581" y="378" on="0"/>
        <pt x="545" y="395" on="1"/>
        <pt x="525" y="404" on="0"/>
        <pt x="512" y="404" on="1"/>
        <pt x="471" y="404" on="0"/>
        <pt x="438" y="372" on="0"/>
        <pt x="433" y="343" on="1"/>
        <pt x="432" y="337" on="0"/>
        <pt x="432" y="325" on="0"/>
        <pt x="440" y="322" on="0"/>
        <pt x="518" y="322" on="0"/>
      </contour>
    </TTGlyph>
    <TTGlyph name="agrave" xMin="19" yMin="-2" xMax="443" yMax="754">
      <contour>
        <pt x="349" y="2" on="1"/>
        <pt x="306" y="-1" on="1"/>
        <pt x="294" y="3" on="0"/>
        <pt x="294" y="29" on="0"/>
        <pt x="298" y="50" on="0"/>
        <pt x="298" y="56" on="1"/>
        <pt x="273" y="31" on="0"/>
        <pt x="200" y="-2" on="0"/>
        <pt x="166" y="-2" on="1"/>
        <pt x="118" y="-2" on="0"/>
        <pt x="83" y="44" on="1"/>
        <pt x="19" y="128" on="0"/>
        <pt x="19" y="266" on="1"/>
        <pt x="19" y="365" on="0"/>
        <pt x="116" y="495" on="0"/>
        <pt x="187" y="497" on="1"/>
        <pt x="218" y="497" on="0"/>
        <pt x="247" y="494" on="0"/>
        <pt x="280" y="473" on="0"/>
        <pt x="289" y="451" on="1"/>
        <pt x="288" y="463" on="0"/>
        <pt x="293" y="496" on="0"/>
        <pt x="293" y="502" on="1"/>
        <pt x="293" y="503" on="0"/>
        <pt x="341" y="503" on="1"/>
        <pt x="411" y="500" on="0"/>
        <pt x="439" y="498" on="1"/>
        <pt x="441" y="482" on="0"/>
        <pt x="441" y="474" on="1"/>
        <pt x="441" y="464" on="1"/>
        <pt x="440" y="438" on="0"/>
        <pt x="440" y="393" on="1"/>
        <pt x="442" y="159" on="1"/>
        <pt x="442" y="78" on="0"/>
        <pt x="439" y="31" on="0"/>
        <pt x="439" y="3" on="0"/>
        <pt x="426" y="-1" on="1"/>
        <pt x="414" y="-1" on="1"/>
      </contour>
      <contour>
        <pt x="202" y="363" on="0"/>
        <pt x="154" y="326" on="0"/>
        <pt x="142" y="279" on="0"/>
        <pt x="142" y="200" on="0"/>
        <pt x="190" y="138" on="0"/>
        <pt x="231" y="138" on="1"/>
        <pt x="263" y="138" on="0"/>
        <pt x="280" y="156" on="1"/>
        <pt x="291" y="168" on="0"/>
        <pt x="293" y="220" on="0"/>
        <pt x="293" y="238" on="1"/>
        <pt x="293" y="259" on="1"/>
        <pt x="293" y="335" on="0"/>
        <pt x="278" y="363" on="0"/>
      </contour>
      <contour>
        <pt x="350" y="591" on="1"/>
        <pt x="326" y="585" on="0"/>
        <pt x="238" y="585" on="0"/>
        <pt x="216" y="587" on="1"/>
        <pt x="208" y="599" on="0"/>
        <pt x="121" y="677" on="0"/>
        <pt x="114" y="684" on="1"/>
        <pt x="183" y="754" on="1"/>
        <pt x="210" y="733" on="0"/>
        <pt x="337" y="603" on="0"/>
      </contour>
    </TTGlyph>
    <TTGlyph name="ampersand" xMin="18" yMin="-1" xMax="553" yMax="731">
      <contour>
        <pt x="476" y="-1" on="1"/>
        <pt x="471" y="-1" on="1"/>
        <pt x="431" y="-1" on="0"/>
        <pt x="389" y="12" on="0"/>
        <pt x="362" y="38" on="1"/>
        <pt x="312" y="4" on="0"/>
        <pt x="219" y="-1" on="1"/>
        <pt x="126" y="-1" on="0"/>
        <pt x="18" y="133" on="0"/>
        <pt x="18" y="316" on="0"/>
        <pt x="118" y="410" on="1"/>
        <pt x="41" y="513" on="0"/>
        <pt x="41" y="642" on="0"/>
        <pt x="160" y="731" on="0"/>
        <pt x="309" y="731" on="0"/>
        <pt x="406" y="641" on="0"/>
        <pt x="406" y="579" on="1"/>
        <pt x="406" y="547" on="0"/>
        <pt x="387" y="509" on="0"/>
        <pt x="384" y="501" on="0"/>
        <pt x="372" y="481" on="0"/>
        <pt x="370" y="478" on="1"/>
        <pt x="360" y="466" on="0"/>
        <pt x="353" y="452" on="1"/>
        <pt x="323" y="408" on="0"/>
        <pt x="323" y="404" on="1"/>
        <pt x="322" y="396" on="0"/>
        <pt x="323" y="389" on="0"/>
        <pt x="324" y="376" on="0"/>
        <pt x="330" y="360" on="0"/>
        <pt x="334" y="350" on="1"/>
        <pt x="343" y="333" on="0"/>
        <pt x="365" y="302" on="1"/>
        <pt x="375" y="318" on="0"/>
        <pt x="375" y="342" on="1"/>
        <pt x="381" y="388" on="0"/>
        <pt x="433" y="388" on="1"/>
        <pt x="504" y="388" on="1"/>
        <pt x="523" y="388" on="0"/>
        <pt x="541" y="373" on="0"/>
        <pt x="541" y="312" on="0"/>
        <pt x="512" y="245" on="1"/>
        <pt x="504" y="224" on="1"/>
        <pt x="502" y="222" on="0"/>
        <pt x="496" y="208" on="0"/>
        <pt x="477" y="169" on="0"/>
        <pt x="477" y="161" on="0"/>
        <pt x="484" y="151" on="0"/>
        <pt x="499" y="133" on="0"/>
        <pt x="503" y="128" on="1"/>
        <pt x="503" y="129" on="1"/>
        <pt x="547" y="74" on="0"/>
        <pt x="553" y="43" on="1"/>
        <pt x="553" y="34" on="1"/>
        <pt x="552" y="29" on="1"/>
        <pt x="544" y="-1" on="0"/>
      </contour>
      <contour>
        <pt x="234" y="618" on="1"/>
        <pt x="191" y="618" on="0"/>
        <pt x="191" y="577" on="1"/>
        <pt x="191" y="556" on="0"/>
        <pt x="212" y="502" on="0"/>
        <pt x="221" y="502" on="1"/>
        <pt x="221" y="502" on="0"/>
        <pt x="222" y="502" on="1"/>
        <pt x="222" y="501" on="1"/>
        <pt x="254" y="506" on="0"/>
        <pt x="254" y="597" on="1"/>
        <pt x="254" y="618" on="0"/>
      </contour>
      <contour>
        <pt x="292" y="207" on="1"/>
        <pt x="292" y="288" on="0"/>
        <pt x="226" y="288" on="1"/>
        <pt x="217" y="288" on="0"/>
        <pt x="208" y="287" on="1"/>
        <pt x="190" y="285" on="0"/>
        <pt x="169" y="232" on="0"/>
        <pt x="169" y="206" on="0"/>
        <pt x="170" y="200" on="1"/>
        <pt x="177" y="139" on="0"/>
        <pt x="235" y="139" on="1"/>
        <pt x="241" y="139" on="0"/>
        <pt x="262" y="142" on="1"/>
        <pt x="287" y="151" on="0"/>
        <pt x="287" y="154" on="1"/>
      </contour>
    </TTGlyph>
    <TTGlyph name="aring" xMin="19" yMin="-2" xMax="443" yMax="753">
      <contour>
        <pt x="267" y="570" on="1"/>
        <pt x="256" y="568" on="0"/>
        <pt x="226" y="568" on="0"/>
        <pt x="211" y="569" on="1"/>
        <pt x="177" y="571" on="0"/>
        <pt x="166" y="598" on="1"/>
        <pt x="159" y="633" on="0"/>
        <pt x="159" y="661" on="1"/>
        <pt x="159" y="710" on="0"/>
        <pt x="176" y="732" on="1"/>
        <pt x="199" y="753" on="0"/>
        <pt x="238" y="753" on="1"/>
        <pt x="246" y="753" on="0"/>
        <pt x="254" y="752" on="1"/>
        <pt x="314" y="750" on="0"/>
        <pt x="333" y="723" on="1"/>
        <pt x="341" y="694" on="0"/>
        <pt x="341" y="630" on="0"/>
        <pt x="327" y="594" on="1"/>
        <pt x="313" y="572" on="0"/>
      </contour>
      <contour>
        <pt x="204" y="665" on="1"/>
        <pt x="204" y="631" on="0"/>
        <pt x="214" y="621" on="1"/>
        <pt x="225" y="612" on="0"/>
        <pt x="239" y="612" on="1"/>
        <pt x="249" y="612" on="1"/>
        <pt x="286" y="614" on="0"/>
        <pt x="292" y="627" on="1"/>
        <pt x="297" y="650" on="0"/>
        <pt x="297" y="660" on="1"/>
        <pt x="297" y="683" on="0"/>
        <pt x="290" y="694" on="1"/>
        <pt x="276" y="708" on="0"/>
        <pt x="234" y="708" on="0"/>
        <pt x="221" y="702" on="1"/>
        <pt x="209" y="694" on="0"/>
        <pt x="204" y="668" on="0"/>
      </contour>
      <contour>
        <pt x="349" y="2" on="1"/>
        <pt x="306" y="-1" on="1"/>
        <pt x="294" y="3" on="0"/>
        <pt x="294" y="29" on="0"/>
        <pt x="298" y="50" on="0"/>
        <pt x="298" y="56" on="1"/>
        <pt x="273" y="31" on="0"/>
        <pt x="200" y="-2" on="0"/>
        <pt x="166" y="-2" on="1"/>
        <pt x="118" y="-2" on="0"/>
        <pt x="83" y="44" on="1"/>
        <pt x="19" y="128" on="0"/>
        <pt x="19" y="266" on="1"/>
        <pt x="19" y="365" on="0"/>
        <pt x="116" y="495" on="0"/>
        <pt x="187" y="497" on="1"/>
        <pt x="218" y="497" on="0"/>
        <pt x="247" y="494" on="0"/>
        <pt x="280" y="473" on="0"/>
        <pt x="289" y="451" on="1"/>
        <pt x="288" y="463" on="0"/>
        <pt x="293" y="496" on="0"/>
        <pt x="293" y="502" on="1"/>
        <pt x="293" y="503" on="0"/>
        <pt x="341" y="503" on="1"/>
        <pt x="411" y="500" on="0"/>
        <pt x="439" y="498" on="1"/>
        <pt x="441" y="482" on="0"/>
        <pt x="441" y="474" on="1"/>
        <pt x="441" y="464" on="1"/>
        <pt x="440" y="438" on="0"/>
        <pt x="440" y="393" on="1"/>
        <pt x="442" y="159" on="1"/>
        <pt x="442" y="78" on="0"/>
        <pt x="439" y="31" on="0"/>
        <pt x="439" y="3" on="0"/>
        <pt x="426" y="-1" on="1"/>
        <pt x="414" y="-1" on="1"/>
      </contour>
      <contour>
        <pt x="202" y="363" on="0"/>
        <pt x="154" y="326" on="0"/>
        <pt x="142" y="279" on="0"/>
        <pt x="142" y="200" on="0"/>
        <pt x="190" y="138" on="0"/>
        <pt x="231" y="138" on="1"/>
        <pt x="263" y="138" on="0"/>
        <pt x="280" y="156" on="1"/>
        <pt x="291" y="168" on="0"/>
        <pt x="293" y="220" on="0"/>
        <pt x="293" y="238" on="1"/>
        <pt x="293" y="259" on="1"/>
        <pt x="293" y="335" on="0"/>
        <pt x="278" y="363" on="0"/>
      </contour>
    </TTGlyph>
    <TTGlyph name="asciicircum" xMin="11" yMin="469" xMax="430" yMax="689">
      <contour>
        <pt x="429" y="480" on="0"/>
        <pt x="387" y="473" on="0"/>
        <pt x="346" y="470" on="0"/>
        <pt x="312" y="470" on="0"/>
        <pt x="283" y="473" on="1"/>
        <pt x="276" y="473" on="0"/>
        <pt x="224" y="531" on="0"/>
        <pt x="217" y="535" on="1"/>
        <pt x="209" y="532" on="0"/>
        <pt x="155" y="474" on="0"/>
        <pt x="148" y="473" on="0"/>
        <pt x="123" y="473" on="0"/>
        <pt x="11" y="478" on="1"/>
        <pt x="44" y="524" on="0"/>
        <pt x="126" y="604" on="0"/>
        <pt x="204" y="674" on="0"/>
        <pt x="220" y="689" on="1"/>
        <pt x="430" y="479" on="1"/>
      </contour>
    </TTGlyph>
    <TTGlyph name="asciitilde" xMin="17" yMin="125" xMax="547" yMax="351">
      <contour>
        <pt x="541" y="340" on="1"/>
        <pt x="547" y="334" on="0"/>
        <pt x="547" y="308" on="1"/>
        <pt x="547" y="245" on="0"/>
        <pt x="496" y="172" on="1"/>
        <pt x="474" y="145" on="0"/>
        <pt x="421" y="125" on="0"/>
        <pt x="375" y="125" on="0"/>
        <pt x="353" y="133" on="1"/>
        <pt x="306" y="149" on="0"/>
        <pt x="286" y="193" on="1"/>
        <pt x="266" y="222" on="0"/>
        <pt x="237" y="222" on="1"/>
        <pt x="236" y="222" on="0"/>
        <pt x="214" y="222" on="0"/>
        <pt x="190" y="210" on="1"/>
        <pt x="174" y="200" on="0"/>
        <pt x="165" y="176" on="0"/>
        <pt x="165" y="150" on="0"/>
        <pt x="169" y="134" on="1"/>
        <pt x="169" y="133" on="1"/>
        <pt x="153" y="137" on="0"/>
        <pt x="40" y="137" on="0"/>
        <pt x="17" y="136" on="1"/>
        <pt x="26" y="173" on="0"/>
        <pt x="72" y="280" on="0"/>
        <pt x="95" y="306" on="1"/>
        <pt x="140" y="351" on="0"/>
        <pt x="202" y="351" on="1"/>
        <pt x="239" y="351" on="0"/>
        <pt x="272" y="331" on="1"/>
        <pt x="286" y="321" on="0"/>
        <pt x="323" y="274" on="0"/>
        <pt x="333" y="267" on="1"/>
        <pt x="349" y="253" on="0"/>
        <pt x="380" y="253" on="0"/>
        <pt x="424" y="300" on="0"/>
        <pt x="433" y="336" on="1"/>
        <pt x="450" y="337" on="0"/>
      </contour>
    </TTGlyph>
    <TTGlyph name="asterisk" xMin="19" yMin="361" xMax="348" yMax="697">
      <contour>
        <pt x="319" y="414" on="1"/>
        <pt x="254" y="362" on="1"/>
        <pt x="253" y="361" on="0"/>
        <pt x="252" y="361" on="1"/>
        <pt x="251" y="362" on="1"/>
        <pt x="238" y="379" on="0"/>
        <pt x="232" y="381" on="1"/>
        <pt x="186" y="427" on="0"/>
        <pt x="179" y="430" on="1"/>
        <pt x="173" y="427" on="0"/>
        <pt x="122" y="377" on="0"/>
        <pt x="109" y="367" on="0"/>
        <pt x="106" y="367" on="1"/>
        <pt x="38" y="431" on="0"/>
        <pt x="20" y="446" on="1"/>
        <pt x="28" y="458" on="0"/>
        <pt x="81" y="514" on="0"/>
        <pt x="90" y="524" on="0"/>
        <pt x="84" y="536" on="0"/>
        <pt x="21" y="607" on="0"/>
        <pt x="19" y="613" on="1"/>
        <pt x="24" y="615" on="0"/>
        <pt x="61" y="652" on="1"/>
        <pt x="107" y="697" on="1"/>
        <pt x="111" y="696" on="0"/>
        <pt x="182" y="630" on="0"/>
        <pt x="186" y="627" on="1"/>
        <pt x="260" y="695" on="1"/>
        <pt x="344" y="611" on="1"/>
        <pt x="342" y="598" on="0"/>
        <pt x="282" y="539" on="0"/>
        <pt x="278" y="529" on="1"/>
        <pt x="281" y="529" on="0"/>
        <pt x="346" y="451" on="0"/>
        <pt x="348" y="450" on="1"/>
        <pt x="350" y="442" on="0"/>
        <pt x="320" y="416" on="0"/>
      </contour>
    </TTGlyph>
    <TTGlyph name="at" xMin="33" yMin="-23" xMax="533" yMax="659">
      <contour>
        <pt x="193" y="88" on="1"/>
        <pt x="225" y="69" on="0"/>
        <pt x="382" y="69" on="0"/>
        <pt x="493" y="124" on="1"/>
        <pt x="531" y="42" on="1"/>
        <pt x="502" y="24" on="0"/>
        <pt x="419" y="-11" on="0"/>
        <pt x="392" y="-15" on="1"/>
        <pt x="357" y="-23" on="0"/>
        <pt x="257" y="-23" on="0"/>
        <pt x="224" y="-20" on="1"/>
        <pt x="136" y="-8" on="0"/>
        <pt x="90" y="53" on="1"/>
        <pt x="72" y="79" on="0"/>
        <pt x="42" y="165" on="0"/>
        <pt x="40" y="195" on="1"/>
        <pt x="33" y="314" on="0"/>
        <pt x="33" y="376" on="1"/>
        <pt x="33" y="406" on="1"/>
        <pt x="35" y="528" on="0"/>
        <pt x="83" y="590" on="1"/>
        <pt x="125" y="643" on="0"/>
        <pt x="229" y="656" on="1"/>
        <pt x="244" y="659" on="0"/>
        <pt x="316" y="659" on="0"/>
        <pt x="425" y="644" on="0"/>
        <pt x="470" y="602" on="1"/>
        <pt x="498" y="577" on="0"/>
        <pt x="528" y="491" on="0"/>
        <pt x="533" y="429" on="0"/>
        <pt x="533" y="380" on="1"/>
        <pt x="533" y="326" on="1"/>
        <pt x="533" y="273" on="0"/>
        <pt x="520" y="198" on="0"/>
        <pt x="461" y="155" on="0"/>
        <pt x="418" y="154" on="1"/>
        <pt x="399" y="154" on="0"/>
        <pt x="377" y="167" on="1"/>
        <pt x="366" y="178" on="0"/>
        <pt x="359" y="187" on="1"/>
        <pt x="326" y="160" on="0"/>
        <pt x="226" y="160" on="0"/>
        <pt x="164" y="230" on="0"/>
        <pt x="164" y="305" on="1"/>
        <pt x="164" y="378" on="0"/>
        <pt x="206" y="426" on="1"/>
        <pt x="222" y="447" on="0"/>
        <pt x="295" y="479" on="0"/>
        <pt x="332" y="479" on="1"/>
        <pt x="370" y="479" on="0"/>
        <pt x="395" y="462" on="1"/>
        <pt x="405" y="450" on="0"/>
        <pt x="405" y="431" on="1"/>
        <pt x="404" y="399" on="1"/>
        <pt x="403" y="382" on="0"/>
        <pt x="403" y="341" on="1"/>
        <pt x="403" y="241" on="0"/>
        <pt x="424" y="237" on="1"/>
        <pt x="431" y="242" on="0"/>
        <pt x="436" y="271" on="1"/>
        <pt x="440" y="302" on="0"/>
        <pt x="440" y="355" on="0"/>
        <pt x="439" y="380" on="1"/>
        <pt x="439" y="408" on="1"/>
        <pt x="433" y="519" on="0"/>
        <pt x="368" y="555" on="1"/>
        <pt x="346" y="566" on="0"/>
        <pt x="281" y="574" on="0"/>
        <pt x="270" y="574" on="1"/>
        <pt x="170" y="574" on="0"/>
        <pt x="143" y="487" on="1"/>
        <pt x="133" y="455" on="0"/>
        <pt x="131" y="434" on="1"/>
        <pt x="126" y="380" on="0"/>
        <pt x="126" y="260" on="0"/>
        <pt x="136" y="201" on="1"/>
        <pt x="149" y="116" on="0"/>
      </contour>
      <contour>
        <pt x="249" y="289" on="1"/>
        <pt x="249" y="286" on="1"/>
        <pt x="249" y="268" on="0"/>
        <pt x="269" y="254" on="0"/>
        <pt x="284" y="254" on="0"/>
        <pt x="292" y="258" on="1"/>
        <pt x="319" y="269" on="0"/>
        <pt x="319" y="382" on="0"/>
        <pt x="324" y="382" on="1"/>
        <pt x="317" y="383" on="0"/>
        <pt x="311" y="383" on="1"/>
        <pt x="275" y="383" on="0"/>
        <pt x="263" y="359" on="1"/>
        <pt x="249" y="337" on="0"/>
      </contour>
    </TTGlyph>
    <TTGlyph name="atilde" xMin="19" yMin="-2" xMax="452" yMax="757">
      <contour>
        <pt x="349" y="2" on="1"/>
        <pt x="306" y="-1" on="1"/>
        <pt x="294" y="3" on="0"/>
        <pt x="294" y="29" on="0"/>
        <pt x="298" y="50" on="0"/>
        <pt x="298" y="56" on="1"/>
        <pt x="273" y="31" on="0"/>
        <pt x="200" y="-2" on="0"/>
        <pt x="166" y="-2" on="1"/>
        <pt x="118" y="-2" on="0"/>
        <pt x="83" y="44" on="1"/>
        <pt x="19" y="128" on="0"/>
        <pt x="19" y="266" on="1"/>
        <pt x="19" y="365" on="0"/>
        <pt x="116" y="495" on="0"/>
        <pt x="187" y="497" on="1"/>
        <pt x="218" y="497" on="0"/>
        <pt x="247" y="494" on="0"/>
        <pt x="280" y="473" on="0"/>
        <pt x="289" y="451" on="1"/>
        <pt x="288" y="463" on="0"/>
        <pt x="293" y="496" on="0"/>
        <pt x="293" y="502" on="1"/>
        <pt x="293" y="503" on="0"/>
        <pt x="341" y="503" on="1"/>
        <pt x="411" y="500" on="0"/>
        <pt x="439" y="498" on="1"/>
        <pt x="441" y="482" on="0"/>
        <pt x="441" y="474" on="1"/>
        <pt x="441" y="464" on="1"/>
        <pt x="440" y="438" on="0"/>
        <pt x="440" y="393" on="1"/>
        <pt x="442" y="159" on="1"/>
        <pt x="442" y="78" on="0"/>
        <pt x="439" y="31" on="0"/>
        <pt x="439" y="3" on="0"/>
        <pt x="426" y="-1" on="1"/>
        <pt x="414" y="-1" on="1"/>
      </contour>
      <contour>
        <pt x="202" y="363" on="0"/>
        <pt x="154" y="326" on="0"/>
        <pt x="142" y="279" on="0"/>
        <pt x="142" y="200" on="0"/>
        <pt x="190" y="138" on="0"/>
        <pt x="231" y="138" on="1"/>
        <pt x="263" y="138" on="0"/>
        <pt x="280" y="156" on="1"/>
        <pt x="291" y="168" on="0"/>
        <pt x="293" y="220" on="0"/>
        <pt x="293" y="238" on="1"/>
        <pt x="293" y="259" on="1"/>
        <pt x="293" y="335" on="0"/>
        <pt x="278" y="363" on="0"/>
      </contour>
      <contour>
        <pt x="218" y="658" on="1"/>
        <pt x="161" y="658" on="0"/>
        <pt x="161" y="610" on="1"/>
        <pt x="161" y="600" on="0"/>
        <pt x="164" y="590" on="1"/>
        <pt x="164" y="589" on="1"/>
        <pt x="147" y="593" on="0"/>
        <pt x="64" y="593" on="0"/>
        <pt x="47" y="592" on="1"/>
        <pt x="72" y="681" on="0"/>
        <pt x="107" y="721" on="1"/>
        <pt x="142" y="756" on="0"/>
        <pt x="188" y="756" on="1"/>
        <pt x="235" y="756" on="0"/>
        <pt x="267" y="715" on="1"/>
        <pt x="281" y="697" on="0"/>
        <pt x="289" y="692" on="1"/>
        <pt x="302" y="681" on="0"/>
        <pt x="325" y="681" on="0"/>
        <pt x="356" y="715" on="0"/>
        <pt x="366" y="745" on="1"/>
        <pt x="367" y="745" on="0"/>
        <pt x="448" y="748" on="1"/>
        <pt x="449" y="747" on="1"/>
        <pt x="449" y="746" on="0"/>
        <pt x="450" y="746" on="1"/>
        <pt x="450" y="745" on="1"/>
        <pt x="451" y="734" on="0"/>
        <pt x="451" y="724" on="1"/>
        <pt x="451" y="684" on="0"/>
        <pt x="430" y="644" on="1"/>
        <pt x="399" y="584" on="0"/>
        <pt x="335" y="584" on="1"/>
        <pt x="313" y="584" on="0"/>
        <pt x="265" y="606" on="0"/>
        <pt x="253" y="635" on="1"/>
        <pt x="240" y="657" on="0"/>
      </contour>
    </TTGlyph>
    <TTGlyph name="b" xMin="33" yMin="-1" xMax="443" yMax="708">
      <contour>
        <pt x="41" y="704" on="1"/>
        <pt x="61" y="708" on="0"/>
        <pt x="167" y="708" on="0"/>
        <pt x="167" y="703" on="1"/>
        <pt x="167" y="692" on="1"/>
        <pt x="172" y="607" on="1"/>
        <pt x="172" y="596" on="0"/>
        <pt x="171" y="570" on="1"/>
        <pt x="170" y="475" on="1"/>
        <pt x="174" y="494" on="0"/>
        <pt x="241" y="500" on="1"/>
        <pt x="258" y="502" on="0"/>
        <pt x="322" y="502" on="0"/>
        <pt x="404" y="473" on="0"/>
        <pt x="443" y="361" on="0"/>
        <pt x="442" y="250" on="0"/>
        <pt x="439" y="205" on="0"/>
        <pt x="430" y="141" on="0"/>
        <pt x="416" y="100" on="0"/>
        <pt x="391" y="54" on="0"/>
        <pt x="374" y="40" on="1"/>
        <pt x="327" y="2" on="0"/>
        <pt x="256" y="2" on="1"/>
        <pt x="204" y="2" on="0"/>
        <pt x="182" y="46" on="1"/>
        <pt x="178" y="55" on="0"/>
        <pt x="172" y="42" on="1"/>
        <pt x="171" y="9" on="1"/>
        <pt x="171" y="3" on="0"/>
        <pt x="170" y="2" on="1"/>
        <pt x="146" y="-1" on="0"/>
        <pt x="113" y="-1" on="1"/>
        <pt x="35" y="1" on="1"/>
        <pt x="34" y="44" on="0"/>
        <pt x="34" y="106" on="1"/>
        <pt x="41" y="638" on="1"/>
      </contour>
      <contour>
        <pt x="227" y="386" on="1"/>
        <pt x="185" y="386" on="0"/>
        <pt x="166" y="349" on="0"/>
        <pt x="166" y="233" on="0"/>
        <pt x="170" y="190" on="0"/>
        <pt x="176" y="168" on="1"/>
        <pt x="189" y="126" on="0"/>
        <pt x="279" y="126" on="0"/>
        <pt x="329" y="204" on="0"/>
        <pt x="329" y="296" on="0"/>
        <pt x="322" y="315" on="1"/>
        <pt x="311" y="386" on="0"/>
      </contour>
    </TTGlyph>
    <TTGlyph name="backslash" xMin="19" yMin="-1" xMax="393" yMax="709">
      <contour>
        <pt x="389" y="-1" on="1"/>
        <pt x="313" y="1" on="0"/>
        <pt x="270" y="1" on="0"/>
        <pt x="264" y="2" on="1"/>
        <pt x="262" y="4" on="0"/>
        <pt x="261" y="7" on="1"/>
        <pt x="204" y="151" on="1"/>
        <pt x="174" y="226" on="0"/>
        <pt x="117" y="403" on="0"/>
        <pt x="101" y="449" on="0"/>
        <pt x="86" y="488" on="1"/>
        <pt x="54" y="578" on="0"/>
        <pt x="39" y="633" on="1"/>
        <pt x="22" y="696" on="0"/>
        <pt x="19" y="701" on="1"/>
        <pt x="34" y="708" on="0"/>
        <pt x="67" y="708" on="1"/>
        <pt x="116" y="707" on="1"/>
        <pt x="138" y="707" on="0"/>
        <pt x="151" y="709" on="1"/>
        <pt x="170" y="637" on="0"/>
        <pt x="198" y="557" on="0"/>
        <pt x="203" y="546" on="0"/>
        <pt x="229" y="461" on="0"/>
        <pt x="325" y="203" on="0"/>
        <pt x="332" y="178" on="1"/>
        <pt x="347" y="144" on="0"/>
        <pt x="365" y="87" on="0"/>
        <pt x="374" y="63" on="1"/>
        <pt x="392" y="14" on="0"/>
        <pt x="392" y="-1" on="0"/>
        <pt x="390" y="-1" on="1"/>
      </contour>
    </TTGlyph>
    <TTGlyph name="bar" xMin="45" yMin="-28" xMax="157" yMax="729">
      <contour>
        <pt x="155" y="728" on="1"/>
        <pt x="157" y="-28" on="1"/>
        <pt x="148" y="-28" on="1"/>
        <pt x="45" y="-25" on="1"/>
        <pt x="45" y="726" on="1"/>
        <pt x="108" y="724" on="1"/>
        <pt x="126" y="724" on="0"/>
        <pt x="155" y="729" on="1"/>
      </contour>
    </TTGlyph>
    <TTGlyph name="braceleft" xMin="9" yMin="-1" xMax="293" yMax="680">
      <contour>
        <pt x="236" y="228" on="1"/>
        <pt x="235" y="193" on="1"/>
        <pt x="235" y="108" on="0"/>
        <pt x="293" y="103" on="1"/>
        <pt x="293" y="11" on="0"/>
        <pt x="292" y="1" on="1"/>
        <pt x="275" y="-1" on="0"/>
        <pt x="260" y="-1" on="1"/>
        <pt x="204" y="-1" on="0"/>
        <pt x="121" y="59" on="0"/>
        <pt x="123" y="108" on="1"/>
        <pt x="127" y="128" on="0"/>
        <pt x="127" y="159" on="0"/>
        <pt x="126" y="181" on="1"/>
        <pt x="120" y="249" on="0"/>
        <pt x="82" y="278" on="1"/>
        <pt x="60" y="294" on="0"/>
        <pt x="28" y="294" on="1"/>
        <pt x="25" y="294" on="0"/>
        <pt x="14" y="294" on="0"/>
        <pt x="13" y="295" on="1"/>
        <pt x="9" y="311" on="0"/>
        <pt x="9" y="359" on="0"/>
        <pt x="15" y="393" on="1"/>
        <pt x="23" y="392" on="0"/>
        <pt x="58" y="392" on="0"/>
        <pt x="80" y="405" on="1"/>
        <pt x="118" y="425" on="0"/>
        <pt x="127" y="500" on="1"/>
        <pt x="129" y="514" on="0"/>
        <pt x="129" y="527" on="1"/>
        <pt x="124" y="586" on="1"/>
        <pt x="124" y="613" on="0"/>
        <pt x="136" y="636" on="1"/>
        <pt x="155" y="670" on="0"/>
        <pt x="192" y="676" on="1"/>
        <pt x="226" y="680" on="0"/>
        <pt x="273" y="680" on="0"/>
        <pt x="289" y="678" on="1"/>
        <pt x="292" y="656" on="0"/>
        <pt x="292" y="609" on="0"/>
        <pt x="290" y="585" on="1"/>
        <pt x="242" y="569" on="0"/>
        <pt x="238" y="545" on="1"/>
        <pt x="236" y="517" on="0"/>
        <pt x="236" y="485" on="1"/>
        <pt x="237" y="423" on="1"/>
        <pt x="237" y="397" on="0"/>
        <pt x="211" y="352" on="0"/>
        <pt x="183" y="342" on="1"/>
        <pt x="236" y="313" on="0"/>
      </contour>
    </TTGlyph>
    <TTGlyph name="braceright" xMin="25" yMin="-1" xMax="309" yMax="680">
      <contour>
        <pt x="194" y="586" on="1"/>
        <pt x="189" y="527" on="1"/>
        <pt x="189" y="431" on="0"/>
        <pt x="240" y="403" on="1"/>
        <pt x="260" y="392" on="0"/>
        <pt x="295" y="392" on="0"/>
        <pt x="303" y="393" on="1"/>
        <pt x="309" y="359" on="0"/>
        <pt x="309" y="311" on="0"/>
        <pt x="305" y="295" on="1"/>
        <pt x="304" y="294" on="0"/>
        <pt x="293" y="294" on="0"/>
        <pt x="290" y="294" on="1"/>
        <pt x="258" y="294" on="0"/>
        <pt x="211" y="259" on="0"/>
        <pt x="202" y="230" on="1"/>
        <pt x="191" y="191" on="0"/>
        <pt x="191" y="128" on="0"/>
        <pt x="195" y="108" on="1"/>
        <pt x="197" y="59" on="0"/>
        <pt x="114" y="-1" on="0"/>
        <pt x="58" y="-1" on="1"/>
        <pt x="43" y="-1" on="0"/>
        <pt x="26" y="1" on="1"/>
        <pt x="25" y="11" on="0"/>
        <pt x="25" y="103" on="1"/>
        <pt x="83" y="108" on="0"/>
        <pt x="83" y="193" on="1"/>
        <pt x="82" y="228" on="1"/>
        <pt x="82" y="313" on="0"/>
        <pt x="135" y="342" on="1"/>
        <pt x="107" y="352" on="0"/>
        <pt x="81" y="397" on="0"/>
        <pt x="81" y="423" on="1"/>
        <pt x="82" y="485" on="1"/>
        <pt x="82" y="517" on="0"/>
        <pt x="80" y="545" on="1"/>
        <pt x="78" y="557" on="0"/>
        <pt x="68" y="566" on="1"/>
        <pt x="56" y="576" on="0"/>
        <pt x="28" y="585" on="1"/>
        <pt x="26" y="609" on="0"/>
        <pt x="26" y="656" on="0"/>
        <pt x="29" y="678" on="1"/>
        <pt x="45" y="680" on="0"/>
        <pt x="92" y="680" on="0"/>
        <pt x="126" y="676" on="1"/>
        <pt x="163" y="670" on="0"/>
        <pt x="182" y="636" on="1"/>
        <pt x="194" y="613" on="0"/>
      </contour>
    </TTGlyph>
    <TTGlyph name="bracketleft" xMin="42" yMin="-2" xMax="297" yMax="709">
      <contour>
        <pt x="176" y="457" on="1"/>
        <pt x="184" y="143" on="1"/>
        <pt x="184" y="142" on="1"/>
        <pt x="206" y="136" on="0"/>
        <pt x="281" y="133" on="0"/>
        <pt x="291" y="132" on="1"/>
        <pt x="295" y="74" on="0"/>
        <pt x="295" y="16" on="0"/>
        <pt x="294" y="1" on="1"/>
        <pt x="197" y="0" on="1"/>
        <pt x="62" y="0" on="0"/>
        <pt x="43" y="-2" on="1"/>
        <pt x="43" y="2" on="1"/>
        <pt x="44" y="74" on="0"/>
        <pt x="44" y="139" on="1"/>
        <pt x="43" y="329" on="1"/>
        <pt x="43" y="558" on="0"/>
        <pt x="53" y="704" on="1"/>
        <pt x="53" y="705" on="1"/>
        <pt x="77" y="708" on="0"/>
        <pt x="114" y="708" on="1"/>
        <pt x="253" y="704" on="1"/>
        <pt x="280" y="704" on="0"/>
        <pt x="297" y="706" on="1"/>
        <pt x="297" y="607" on="0"/>
        <pt x="291" y="588" on="1"/>
        <pt x="288" y="588" on="1"/>
        <pt x="283" y="588" on="0"/>
        <pt x="277" y="588" on="1"/>
        <pt x="202" y="585" on="1"/>
        <pt x="190" y="585" on="0"/>
        <pt x="182" y="586" on="1"/>
        <pt x="181" y="586" on="1"/>
        <pt x="176" y="509" on="0"/>
      </contour>
    </TTGlyph>
    <TTGlyph name="bracketright" xMin="24" yMin="-2" xMax="278" yMax="709">
      <contour>
        <pt x="68" y="704" on="1"/>
        <pt x="207" y="708" on="1"/>
        <pt x="244" y="708" on="0"/>
        <pt x="268" y="705" on="1"/>
        <pt x="268" y="704" on="1"/>
        <pt x="277" y="571" on="0"/>
        <pt x="277" y="133" on="0"/>
        <pt x="278" y="2" on="1"/>
        <pt x="278" y="-2" on="1"/>
        <pt x="259" y="0" on="0"/>
        <pt x="124" y="0" on="1"/>
        <pt x="27" y="1" on="1"/>
        <pt x="26" y="16" on="0"/>
        <pt x="26" y="74" on="0"/>
        <pt x="30" y="132" on="1"/>
        <pt x="40" y="133" on="0"/>
        <pt x="62" y="134" on="1"/>
        <pt x="115" y="136" on="0"/>
        <pt x="137" y="142" on="1"/>
        <pt x="137" y="143" on="1"/>
        <pt x="145" y="457" on="1"/>
        <pt x="145" y="509" on="0"/>
        <pt x="140" y="586" on="1"/>
        <pt x="139" y="586" on="1"/>
        <pt x="131" y="585" on="0"/>
        <pt x="119" y="585" on="1"/>
        <pt x="44" y="588" on="1"/>
        <pt x="38" y="588" on="0"/>
        <pt x="33" y="588" on="1"/>
        <pt x="30" y="588" on="1"/>
        <pt x="24" y="607" on="0"/>
        <pt x="24" y="706" on="1"/>
        <pt x="41" y="704" on="0"/>
      </contour>
    </TTGlyph>
    <TTGlyph name="bullet" xMin="51" yMin="176" xMax="239" yMax="368">
      <contour>
        <pt x="56" y="331" on="1"/>
        <pt x="65" y="363" on="0"/>
        <pt x="109" y="368" on="1"/>
        <pt x="132" y="368" on="0"/>
        <pt x="183" y="368" on="0"/>
        <pt x="191" y="365" on="1"/>
        <pt x="234" y="352" on="0"/>
        <pt x="238" y="319" on="1"/>
        <pt x="239" y="311" on="0"/>
        <pt x="239" y="273" on="0"/>
        <pt x="235" y="231" on="1"/>
        <pt x="228" y="197" on="0"/>
        <pt x="204" y="187" on="1"/>
        <pt x="193" y="182" on="0"/>
        <pt x="168" y="180" on="1"/>
        <pt x="111" y="177" on="1"/>
        <pt x="110" y="177" on="1"/>
        <pt x="107" y="176" on="0"/>
        <pt x="103" y="176" on="1"/>
        <pt x="80" y="176" on="0"/>
        <pt x="62" y="201" on="1"/>
        <pt x="52" y="218" on="0"/>
        <pt x="52" y="264" on="1"/>
        <pt x="52" y="272" on="0"/>
        <pt x="52" y="310" on="0"/>
      </contour>
    </TTGlyph>
    <TTGlyph name="c" xMin="23" yMin="-13" xMax="423" yMax="512">
      <contour>
        <pt x="305" y="194" on="1"/>
        <pt x="384" y="196" on="1"/>
        <pt x="414" y="196" on="0"/>
        <pt x="421" y="192" on="1"/>
        <pt x="411" y="53" on="0"/>
        <pt x="393" y="35" on="1"/>
        <pt x="377" y="12" on="0"/>
        <pt x="314" y="-10" on="0"/>
        <pt x="282" y="-12" on="0"/>
        <pt x="267" y="-12" on="1"/>
        <pt x="161" y="-9" on="1"/>
        <pt x="110" y="0" on="0"/>
        <pt x="75" y="35" on="1"/>
        <pt x="50" y="57" on="0"/>
        <pt x="26" y="132" on="0"/>
        <pt x="26" y="170" on="1"/>
        <pt x="26" y="276" on="0"/>
        <pt x="23" y="323" on="1"/>
        <pt x="23" y="359" on="0"/>
        <pt x="30" y="404" on="0"/>
        <pt x="45" y="454" on="1"/>
        <pt x="58" y="483" on="0"/>
        <pt x="143" y="512" on="0"/>
        <pt x="204" y="511" on="0"/>
        <pt x="218" y="511" on="1"/>
        <pt x="249" y="512" on="1"/>
        <pt x="340" y="512" on="0"/>
        <pt x="384" y="469" on="1"/>
        <pt x="408" y="453" on="0"/>
        <pt x="415" y="412" on="1"/>
        <pt x="419" y="387" on="0"/>
        <pt x="421" y="352" on="0"/>
        <pt x="422" y="344" on="1"/>
        <pt x="423" y="322" on="0"/>
        <pt x="423" y="289" on="1"/>
        <pt x="409" y="286" on="0"/>
        <pt x="352" y="286" on="0"/>
        <pt x="296" y="294" on="1"/>
        <pt x="291" y="331" on="0"/>
        <pt x="250" y="361" on="0"/>
        <pt x="233" y="361" on="1"/>
        <pt x="190" y="361" on="0"/>
        <pt x="170" y="336" on="1"/>
        <pt x="164" y="331" on="0"/>
        <pt x="158" y="293" on="0"/>
        <pt x="157" y="248" on="1"/>
        <pt x="155" y="181" on="1"/>
        <pt x="155" y="156" on="0"/>
        <pt x="197" y="129" on="0"/>
        <pt x="222" y="129" on="1"/>
        <pt x="252" y="129" on="0"/>
        <pt x="284" y="151" on="0"/>
        <pt x="294" y="194" on="1"/>
        <pt x="297" y="194" on="0"/>
      </contour>
    </TTGlyph>
    <TTGlyph name="ccedilla" xMin="23" yMin="-148" xMax="425" yMax="512">
      <contour>
        <pt x="305" y="194" on="1"/>
        <pt x="384" y="196" on="1"/>
        <pt x="414" y="196" on="0"/>
        <pt x="421" y="192" on="1"/>
        <pt x="411" y="53" on="0"/>
        <pt x="393" y="35" on="1"/>
        <pt x="364" y="-7" on="0"/>
        <pt x="281" y="-12" on="1"/>
        <pt x="277" y="-25" on="0"/>
        <pt x="238" y="-134" on="0"/>
        <pt x="235" y="-147" on="1"/>
        <pt x="235" y="-148" on="1"/>
        <pt x="126" y="-148" on="0"/>
        <pt x="126" y="-147" on="1"/>
        <pt x="150" y="-83" on="0"/>
        <pt x="174" y="-10" on="1"/>
        <pt x="161" y="-9" on="1"/>
        <pt x="110" y="0" on="0"/>
        <pt x="75" y="35" on="1"/>
        <pt x="50" y="57" on="0"/>
        <pt x="26" y="132" on="0"/>
        <pt x="26" y="170" on="1"/>
        <pt x="26" y="276" on="0"/>
        <pt x="23" y="323" on="1"/>
        <pt x="23" y="359" on="0"/>
        <pt x="30" y="404" on="0"/>
        <pt x="45" y="454" on="1"/>
        <pt x="58" y="483" on="0"/>
        <pt x="143" y="512" on="0"/>
        <pt x="204" y="511" on="0"/>
        <pt x="218" y="511" on="1"/>
        <pt x="249" y="512" on="1"/>
        <pt x="340" y="512" on="0"/>
        <pt x="384" y="469" on="1"/>
        <pt x="408" y="453" on="0"/>
        <pt x="415" y="412" on="1"/>
        <pt x="419" y="387" on="0"/>
        <pt x="421" y="352" on="0"/>
        <pt x="422" y="344" on="1"/>
        <pt x="423" y="322" on="0"/>
        <pt x="423" y="289" on="1"/>
        <pt x="409" y="286" on="0"/>
        <pt x="352" y="286" on="0"/>
        <pt x="296" y="294" on="1"/>
        <pt x="291" y="331" on="0"/>
        <pt x="250" y="361" on="0"/>
        <pt x="233" y="361" on="1"/>
        <pt x="190" y="361" on="0"/>
        <pt x="170" y="336" on="1"/>
        <pt x="164" y="331" on="0"/>
        <pt x="158" y="293" on="0"/>
        <pt x="157" y="248" on="1"/>
        <pt x="155" y="181" on="1"/>
        <pt x="155" y="156" on="0"/>
        <pt x="197" y="129" on="0"/>
        <pt x="222" y="129" on="1"/>
        <pt x="252" y="129" on="0"/>
        <pt x="284" y="151" on="0"/>
        <pt x="294" y="194" on="1"/>
        <pt x="297" y="194" on="0"/>
      </contour>
      <contour>
        <pt x="424" y="-89" on="1"/>
        <pt x="425" y="-90" on="1"/>
        <pt x="424" y="-90" on="0"/>
      </contour>
    </TTGlyph>
    <TTGlyph name="cedilla" xMin="17" yMin="-148" xMax="173" yMax="0">
      <contour>
        <pt x="17" y="-147" on="1"/>
        <pt x="68" y="0" on="1"/>
        <pt x="77" y="-2" on="1"/>
        <pt x="87" y="-4" on="1"/>
        <pt x="173" y="-6" on="1"/>
        <pt x="126" y="-147" on="1"/>
        <pt x="126" y="-148" on="1"/>
        <pt x="17" y="-148" on="0"/>
      </contour>
    </TTGlyph>
    <TTGlyph name="cent" xMin="28" yMin="24" xMax="328" yMax="655">
      <contour>
        <pt x="133" y="415" on="1"/>
        <pt x="130" y="336" on="1"/>
        <pt x="130" y="299" on="0"/>
        <pt x="133" y="265" on="1"/>
        <pt x="135" y="220" on="0"/>
        <pt x="161" y="206" on="1"/>
        <pt x="162" y="277" on="0"/>
        <pt x="162" y="419" on="0"/>
        <pt x="160" y="472" on="1"/>
        <pt x="141" y="472" on="0"/>
        <pt x="137" y="453" on="1"/>
        <pt x="133" y="435" on="0"/>
      </contour>
      <contour>
        <pt x="196" y="410" on="1"/>
        <pt x="197" y="206" on="1"/>
        <pt x="198" y="206" on="1"/>
        <pt x="221" y="216" on="0"/>
        <pt x="224" y="243" on="1"/>
        <pt x="225" y="253" on="0"/>
        <pt x="227" y="286" on="0"/>
        <pt x="228" y="293" on="1"/>
        <pt x="232" y="292" on="0"/>
        <pt x="243" y="292" on="1"/>
        <pt x="285" y="293" on="1"/>
        <pt x="312" y="293" on="0"/>
        <pt x="319" y="289" on="1"/>
        <pt x="319" y="288" on="1"/>
        <pt x="324" y="220" on="1"/>
        <pt x="324" y="168" on="0"/>
        <pt x="245" y="100" on="0"/>
        <pt x="199" y="94" on="1"/>
        <pt x="197" y="94" on="1"/>
        <pt x="197" y="93" on="1"/>
        <pt x="196" y="88" on="0"/>
        <pt x="196" y="72" on="0"/>
        <pt x="198" y="38" on="0"/>
        <pt x="196" y="30" on="1"/>
        <pt x="184" y="24" on="0"/>
        <pt x="167" y="24" on="0"/>
        <pt x="163" y="30" on="1"/>
        <pt x="161" y="52" on="0"/>
        <pt x="162" y="79" on="0"/>
        <pt x="161" y="93" on="1"/>
        <pt x="153" y="92" on="0"/>
        <pt x="144" y="92" on="1"/>
        <pt x="112" y="92" on="0"/>
        <pt x="41" y="133" on="0"/>
        <pt x="36" y="176" on="1"/>
        <pt x="29" y="231" on="0"/>
        <pt x="29" y="294" on="1"/>
        <pt x="31" y="442" on="1"/>
        <pt x="30" y="452" on="0"/>
        <pt x="30" y="461" on="1"/>
        <pt x="30" y="512" on="0"/>
        <pt x="89" y="590" on="0"/>
        <pt x="132" y="590" on="1"/>
        <pt x="145" y="590" on="0"/>
        <pt x="160" y="586" on="1"/>
        <pt x="162" y="587" on="0"/>
        <pt x="162" y="614" on="1"/>
        <pt x="162" y="646" on="1"/>
        <pt x="166" y="654" on="0"/>
        <pt x="190" y="654" on="0"/>
        <pt x="197" y="650" on="1"/>
        <pt x="197" y="584" on="1"/>
        <pt x="198" y="584" on="1"/>
        <pt x="266" y="582" on="0"/>
        <pt x="304" y="516" on="1"/>
        <pt x="328" y="474" on="0"/>
        <pt x="328" y="408" on="0"/>
        <pt x="320" y="385" on="1"/>
        <pt x="320" y="384" on="1"/>
        <pt x="299" y="381" on="0"/>
        <pt x="279" y="381" on="1"/>
        <pt x="220" y="387" on="1"/>
        <pt x="218" y="395" on="0"/>
        <pt x="218" y="416" on="1"/>
        <pt x="218" y="461" on="0"/>
        <pt x="197" y="474" on="1"/>
        <pt x="196" y="464" on="0"/>
      </contour>
    </TTGlyph>
    <TTGlyph name="circumflex" xMin="11" yMin="521" xMax="336" yMax="691">
      <contour>
        <pt x="336" y="529" on="1"/>
        <pt x="258" y="522" on="1"/>
        <pt x="241" y="522" on="0"/>
        <pt x="221" y="524" on="1"/>
        <pt x="215" y="524" on="0"/>
        <pt x="175" y="570" on="0"/>
        <pt x="170" y="573" on="1"/>
        <pt x="165" y="571" on="0"/>
        <pt x="123" y="526" on="0"/>
        <pt x="116" y="524" on="0"/>
        <pt x="91" y="524" on="0"/>
        <pt x="11" y="528" on="1"/>
        <pt x="43" y="570" on="0"/>
        <pt x="100" y="625" on="0"/>
        <pt x="161" y="680" on="0"/>
        <pt x="173" y="691" on="1"/>
      </contour>
    </TTGlyph>
    <TTGlyph name="colon" xMin="39" yMin="0" xMax="166" yMax="461">
      <contour>
        <pt x="42" y="1" on="1"/>
        <pt x="39" y="18" on="0"/>
        <pt x="39" y="54" on="1"/>
        <pt x="41" y="117" on="1"/>
        <pt x="60" y="125" on="0"/>
        <pt x="153" y="125" on="0"/>
        <pt x="166" y="119" on="1"/>
        <pt x="164" y="94" on="1"/>
        <pt x="160" y="17" on="0"/>
        <pt x="160" y="2" on="1"/>
        <pt x="160" y="0" on="1"/>
        <pt x="158" y="0" on="1"/>
        <pt x="45" y="1" on="1"/>
      </contour>
      <contour>
        <pt x="42" y="337" on="1"/>
        <pt x="39" y="354" on="0"/>
        <pt x="39" y="390" on="1"/>
        <pt x="41" y="453" on="1"/>
        <pt x="60" y="461" on="0"/>
        <pt x="153" y="461" on="0"/>
        <pt x="166" y="455" on="1"/>
        <pt x="164" y="430" on="1"/>
        <pt x="160" y="353" on="0"/>
        <pt x="160" y="338" on="1"/>
        <pt x="160" y="336" on="1"/>
        <pt x="158" y="336" on="1"/>
        <pt x="45" y="337" on="1"/>
      </contour>
    </TTGlyph>
    <TTGlyph name="comma" xMin="31" yMin="-100" xMax="157" yMax="126">
      <contour>
        <pt x="150" y="1" on="1"/>
        <pt x="130" y="-100" on="1"/>
        <pt x="129" y="-100" on="0"/>
        <pt x="61" y="-98" on="1"/>
        <pt x="59" y="-96" on="0"/>
        <pt x="63" y="-80" on="1"/>
        <pt x="63" y="-80" on="0"/>
        <pt x="73" y="-40" on="1"/>
        <pt x="79" y="-16" on="0"/>
        <pt x="81" y="-1" on="1"/>
        <pt x="34" y="3" on="1"/>
        <pt x="32" y="3" on="0"/>
        <pt x="31" y="4" on="1"/>
        <pt x="31" y="32" on="0"/>
        <pt x="35" y="119" on="1"/>
        <pt x="35" y="120" on="1"/>
        <pt x="36" y="120" on="1"/>
        <pt x="52" y="126" on="0"/>
        <pt x="78" y="126" on="0"/>
        <pt x="156" y="119" on="1"/>
        <pt x="157" y="119" on="1"/>
        <pt x="153" y="4" on="1"/>
        <pt x="151" y="4" on="1"/>
        <pt x="150" y="2" on="0"/>
      </contour>
    </TTGlyph>
    <TTGlyph name="copyright" xMin="36" yMin="113" xMax="519" yMax="599">
      <contour>
        <pt x="147" y="127" on="1"/>
        <pt x="55" y="169" on="0"/>
        <pt x="45" y="247" on="1"/>
        <pt x="36" y="296" on="0"/>
        <pt x="36" y="400" on="0"/>
        <pt x="45" y="494" on="0"/>
        <pt x="77" y="532" on="1"/>
        <pt x="118" y="584" on="0"/>
        <pt x="198" y="596" on="1"/>
        <pt x="245" y="598" on="0"/>
        <pt x="334" y="598" on="0"/>
        <pt x="406" y="585" on="0"/>
        <pt x="444" y="561" on="1"/>
        <pt x="456" y="553" on="1"/>
        <pt x="494" y="527" on="0"/>
        <pt x="512" y="472" on="1"/>
        <pt x="519" y="453" on="0"/>
        <pt x="519" y="380" on="0"/>
        <pt x="517" y="348" on="0"/>
        <pt x="507" y="259" on="0"/>
        <pt x="506" y="249" on="1"/>
        <pt x="494" y="202" on="0"/>
        <pt x="458" y="168" on="1"/>
        <pt x="416" y="126" on="0"/>
        <pt x="328" y="118" on="1"/>
        <pt x="273" y="113" on="0"/>
        <pt x="192" y="113" on="0"/>
      </contour>
      <contour>
        <pt x="198" y="523" on="1"/>
        <pt x="159" y="515" on="0"/>
        <pt x="117" y="471" on="0"/>
        <pt x="110" y="418" on="0"/>
        <pt x="110" y="334" on="0"/>
        <pt x="115" y="263" on="1"/>
        <pt x="115" y="231" on="0"/>
        <pt x="175" y="186" on="0"/>
        <pt x="215" y="184" on="1"/>
        <pt x="224" y="185" on="0"/>
        <pt x="333" y="190" on="0"/>
        <pt x="397" y="201" on="0"/>
        <pt x="438" y="260" on="0"/>
        <pt x="446" y="350" on="0"/>
        <pt x="446" y="398" on="0"/>
        <pt x="446" y="406" on="1"/>
        <pt x="445" y="433" on="1"/>
        <pt x="445" y="503" on="0"/>
        <pt x="346" y="523" on="1"/>
        <pt x="309" y="528" on="0"/>
        <pt x="272" y="528" on="1"/>
      </contour>
      <contour>
        <pt x="244" y="311" on="1"/>
        <pt x="246" y="281" on="0"/>
        <pt x="265" y="275" on="1"/>
        <pt x="267" y="275" on="0"/>
        <pt x="270" y="275" on="1"/>
        <pt x="287" y="275" on="0"/>
        <pt x="295" y="288" on="1"/>
        <pt x="298" y="326" on="1"/>
        <pt x="300" y="326" on="0"/>
        <pt x="348" y="327" on="0"/>
        <pt x="351" y="324" on="1"/>
        <pt x="355" y="310" on="0"/>
        <pt x="355" y="271" on="0"/>
        <pt x="340" y="248" on="1"/>
        <pt x="317" y="212" on="0"/>
        <pt x="275" y="212" on="1"/>
        <pt x="267" y="211" on="0"/>
        <pt x="237" y="211" on="0"/>
        <pt x="190" y="232" on="0"/>
        <pt x="186" y="294" on="0"/>
        <pt x="186" y="394" on="0"/>
        <pt x="185" y="435" on="0"/>
        <pt x="198" y="471" on="0"/>
        <pt x="216" y="486" on="0"/>
        <pt x="232" y="493" on="1"/>
        <pt x="248" y="498" on="0"/>
        <pt x="262" y="498" on="1"/>
        <pt x="297" y="498" on="0"/>
        <pt x="357" y="443" on="0"/>
        <pt x="357" y="409" on="1"/>
        <pt x="357" y="394" on="0"/>
        <pt x="352" y="378" on="1"/>
        <pt x="343" y="377" on="0"/>
        <pt x="317" y="377" on="0"/>
        <pt x="296" y="380" on="1"/>
        <pt x="296" y="422" on="0"/>
        <pt x="280" y="430" on="1"/>
        <pt x="275" y="433" on="0"/>
        <pt x="270" y="432" on="1"/>
        <pt x="253" y="431" on="0"/>
        <pt x="248" y="426" on="1"/>
        <pt x="245" y="420" on="1"/>
        <pt x="244" y="406" on="1"/>
        <pt x="243" y="366" on="0"/>
        <pt x="243" y="323" on="0"/>
      </contour>
    </TTGlyph>
    <TTGlyph name="currency" xMin="18" yMin="24" xMax="589" yMax="666">
      <contour>
        <pt x="217" y="558" on="1"/>
        <pt x="269" y="566" on="1"/>
        <pt x="284" y="567" on="0"/>
        <pt x="344" y="567" on="0"/>
        <pt x="391" y="559" on="1"/>
        <pt x="486" y="666" on="1"/>
        <pt x="589" y="578" on="1"/>
        <pt x="533" y="514" on="0"/>
        <pt x="506" y="484" on="1"/>
        <pt x="520" y="457" on="0"/>
        <pt x="529" y="410" on="0"/>
        <pt x="529" y="254" on="0"/>
        <pt x="500" y="200" on="1"/>
        <pt x="562" y="124" on="0"/>
        <pt x="589" y="111" on="1"/>
        <pt x="570" y="95" on="1"/>
        <pt x="563" y="92" on="0"/>
        <pt x="489" y="25" on="0"/>
        <pt x="477" y="25" on="1"/>
        <pt x="477" y="25" on="0"/>
        <pt x="476" y="25" on="1"/>
        <pt x="453" y="51" on="0"/>
        <pt x="407" y="93" on="0"/>
        <pt x="385" y="119" on="1"/>
        <pt x="334" y="109" on="0"/>
        <pt x="241" y="109" on="0"/>
        <pt x="200" y="118" on="1"/>
        <pt x="131" y="25" on="1"/>
        <pt x="131" y="25" on="0"/>
        <pt x="130" y="25" on="1"/>
        <pt x="119" y="25" on="0"/>
        <pt x="25" y="108" on="0"/>
        <pt x="18" y="111" on="1"/>
        <pt x="50" y="149" on="0"/>
        <pt x="92" y="200" on="1"/>
        <pt x="92" y="201" on="1"/>
        <pt x="77" y="246" on="0"/>
        <pt x="77" y="433" on="0"/>
        <pt x="92" y="491" on="1"/>
        <pt x="67" y="525" on="0"/>
        <pt x="34" y="555" on="0"/>
        <pt x="18" y="578" on="1"/>
        <pt x="121" y="666" on="1"/>
      </contour>
      <contour>
        <pt x="340" y="221" on="1"/>
        <pt x="355" y="223" on="1"/>
        <pt x="357" y="223" on="1"/>
        <pt x="406" y="229" on="0"/>
        <pt x="415" y="291" on="1"/>
        <pt x="417" y="302" on="0"/>
        <pt x="422" y="342" on="0"/>
        <pt x="425" y="360" on="0"/>
        <pt x="425" y="371" on="1"/>
        <pt x="425" y="405" on="0"/>
        <pt x="395" y="444" on="0"/>
        <pt x="345" y="459" on="0"/>
        <pt x="272" y="459" on="0"/>
        <pt x="236" y="452" on="1"/>
        <pt x="195" y="438" on="0"/>
        <pt x="188" y="397" on="1"/>
        <pt x="184" y="376" on="0"/>
        <pt x="184" y="349" on="1"/>
        <pt x="186" y="285" on="1"/>
        <pt x="186" y="260" on="0"/>
        <pt x="215" y="222" on="0"/>
        <pt x="241" y="217" on="1"/>
        <pt x="261" y="215" on="0"/>
        <pt x="313" y="215" on="0"/>
      </contour>
    </TTGlyph>
    <TTGlyph name="d" xMin="21" yMin="-1" xMax="431" yMax="708">
      <contour>
        <pt x="292" y="607" on="1"/>
        <pt x="297" y="692" on="1"/>
        <pt x="297" y="703" on="1"/>
        <pt x="297" y="708" on="0"/>
        <pt x="403" y="708" on="0"/>
        <pt x="423" y="704" on="1"/>
        <pt x="423" y="638" on="1"/>
        <pt x="423" y="638" on="0"/>
        <pt x="430" y="106" on="1"/>
        <pt x="430" y="44" on="0"/>
        <pt x="429" y="1" on="1"/>
        <pt x="351" y="-1" on="1"/>
        <pt x="318" y="-1" on="0"/>
        <pt x="294" y="2" on="1"/>
        <pt x="293" y="3" on="0"/>
        <pt x="293" y="9" on="1"/>
        <pt x="292" y="42" on="1"/>
        <pt x="286" y="55" on="0"/>
        <pt x="282" y="46" on="1"/>
        <pt x="260" y="2" on="0"/>
        <pt x="208" y="2" on="1"/>
        <pt x="199" y="2" on="0"/>
        <pt x="189" y="3" on="1"/>
        <pt x="145" y="6" on="0"/>
        <pt x="83" y="43" on="0"/>
        <pt x="48" y="92" on="0"/>
        <pt x="38" y="132" on="1"/>
        <pt x="23" y="192" on="0"/>
        <pt x="22" y="277" on="1"/>
        <pt x="20" y="459" on="0"/>
        <pt x="102" y="488" on="1"/>
        <pt x="142" y="502" on="0"/>
        <pt x="174" y="502" on="1"/>
        <pt x="288" y="502" on="0"/>
        <pt x="294" y="475" on="1"/>
        <pt x="292" y="578" on="1"/>
        <pt x="292" y="596" on="0"/>
      </contour>
      <contour>
        <pt x="142" y="315" on="1"/>
        <pt x="135" y="296" on="0"/>
        <pt x="135" y="204" on="0"/>
        <pt x="185" y="126" on="0"/>
        <pt x="272" y="126" on="0"/>
        <pt x="298" y="195" on="0"/>
        <pt x="298" y="349" on="0"/>
        <pt x="279" y="386" on="0"/>
        <pt x="237" y="386" on="1"/>
        <pt x="153" y="386" on="0"/>
      </contour>
    </TTGlyph>
    <TTGlyph name="dagger" xMin="18" yMin="239" xMax="252" yMax="698">
      <contour>
        <pt x="168" y="504" on="1"/>
        <pt x="172" y="243" on="1"/>
        <pt x="172" y="242" on="1"/>
        <pt x="122" y="242" on="0"/>
        <pt x="106" y="239" on="1"/>
        <pt x="102" y="267" on="0"/>
        <pt x="102" y="336" on="1"/>
        <pt x="102" y="444" on="1"/>
        <pt x="102" y="478" on="0"/>
        <pt x="102" y="500" on="1"/>
        <pt x="101" y="500" on="0"/>
        <pt x="96" y="500" on="1"/>
        <pt x="48" y="499" on="1"/>
        <pt x="24" y="499" on="0"/>
        <pt x="20" y="505" on="1"/>
        <pt x="18" y="510" on="0"/>
        <pt x="18" y="531" on="1"/>
        <pt x="19" y="581" on="1"/>
        <pt x="28" y="583" on="0"/>
        <pt x="50" y="583" on="1"/>
        <pt x="69" y="582" on="1"/>
        <pt x="95" y="582" on="0"/>
        <pt x="102" y="586" on="1"/>
        <pt x="102" y="649" on="0"/>
        <pt x="106" y="692" on="1"/>
        <pt x="126" y="698" on="0"/>
        <pt x="158" y="698" on="0"/>
        <pt x="171" y="695" on="1"/>
        <pt x="170" y="682" on="0"/>
        <pt x="170" y="663" on="1"/>
        <pt x="170" y="611" on="1"/>
        <pt x="170" y="597" on="0"/>
        <pt x="170" y="586" on="1"/>
        <pt x="170" y="584" on="1"/>
        <pt x="202" y="585" on="0"/>
        <pt x="243" y="585" on="0"/>
        <pt x="251" y="584" on="1"/>
        <pt x="250" y="563" on="0"/>
        <pt x="250" y="522" on="0"/>
        <pt x="252" y="507" on="1"/>
        <pt x="252" y="506" on="1"/>
        <pt x="183" y="504" on="1"/>
        <pt x="175" y="504" on="0"/>
        <pt x="169" y="504" on="1"/>
      </contour>
    </TTGlyph>
    <TTGlyph name="daggerdbl" xMin="26" yMin="242" xMax="260" yMax="699">
      <contour>
        <pt x="27" y="426" on="1"/>
        <pt x="53" y="429" on="0"/>
        <pt x="109" y="429" on="1"/>
        <pt x="110" y="456" on="0"/>
        <pt x="110" y="492" on="0"/>
        <pt x="109" y="502" on="1"/>
        <pt x="109" y="503" on="1"/>
        <pt x="106" y="503" on="0"/>
        <pt x="100" y="503" on="1"/>
        <pt x="58" y="502" on="1"/>
        <pt x="38" y="502" on="0"/>
        <pt x="30" y="506" on="1"/>
        <pt x="26" y="510" on="0"/>
        <pt x="26" y="530" on="1"/>
        <pt x="27" y="574" on="1"/>
        <pt x="27" y="581" on="0"/>
        <pt x="27" y="583" on="1"/>
        <pt x="42" y="585" on="0"/>
        <pt x="98" y="586" on="0"/>
        <pt x="109" y="587" on="1"/>
        <pt x="112" y="692" on="1"/>
        <pt x="112" y="693" on="1"/>
        <pt x="132" y="699" on="0"/>
        <pt x="164" y="699" on="0"/>
        <pt x="177" y="696" on="1"/>
        <pt x="178" y="611" on="1"/>
        <pt x="178" y="597" on="0"/>
        <pt x="178" y="587" on="1"/>
        <pt x="210" y="588" on="0"/>
        <pt x="250" y="588" on="0"/>
        <pt x="258" y="587" on="1"/>
        <pt x="258" y="530" on="0"/>
        <pt x="259" y="509" on="1"/>
        <pt x="257" y="509" on="0"/>
        <pt x="254" y="509" on="1"/>
        <pt x="192" y="505" on="1"/>
        <pt x="184" y="505" on="0"/>
        <pt x="178" y="506" on="1"/>
        <pt x="177" y="506" on="1"/>
        <pt x="175" y="493" on="0"/>
        <pt x="175" y="456" on="0"/>
        <pt x="179" y="430" on="1"/>
        <pt x="205" y="433" on="0"/>
        <pt x="243" y="433" on="0"/>
        <pt x="258" y="431" on="1"/>
        <pt x="258" y="396" on="1"/>
        <pt x="258" y="366" on="0"/>
        <pt x="260" y="354" on="1"/>
        <pt x="260" y="353" on="1"/>
        <pt x="184" y="349" on="0"/>
        <pt x="179" y="349" on="1"/>
        <pt x="177" y="349" on="1"/>
        <pt x="178" y="337" on="0"/>
        <pt x="178" y="269" on="0"/>
        <pt x="179" y="245" on="1"/>
        <pt x="162" y="242" on="0"/>
        <pt x="111" y="242" on="1"/>
        <pt x="110" y="242" on="1"/>
        <pt x="108" y="310" on="1"/>
        <pt x="108" y="326" on="0"/>
        <pt x="109" y="345" on="1"/>
        <pt x="102" y="347" on="0"/>
        <pt x="81" y="347" on="1"/>
        <pt x="64" y="346" on="1"/>
        <pt x="39" y="346" on="0"/>
        <pt x="29" y="350" on="1"/>
        <pt x="27" y="357" on="0"/>
        <pt x="27" y="374" on="1"/>
        <pt x="28" y="411" on="1"/>
        <pt x="28" y="420" on="0"/>
      </contour>
    </TTGlyph>
</ttFont>
